%TF.GenerationSoftware,KiCad,Pcbnew,5.1.9-73d0e3b20d~88~ubuntu20.04.1*%
%TF.CreationDate,2021-04-06T10:54:45+03:00*%
%TF.ProjectId,hymRC,68796d52-432e-46b6-9963-61645f706362,rev?*%
%TF.SameCoordinates,Original*%
%TF.FileFunction,Legend,Bot*%
%TF.FilePolarity,Positive*%
%FSLAX46Y46*%
G04 Gerber Fmt 4.6, Leading zero omitted, Abs format (unit mm)*
G04 Created by KiCad (PCBNEW 5.1.9-73d0e3b20d~88~ubuntu20.04.1) date 2021-04-06 10:54:45*
%MOMM*%
%LPD*%
G01*
G04 APERTURE LIST*
%ADD10C,0.300000*%
%ADD11C,0.200000*%
%ADD12C,0.120000*%
%ADD13C,0.150000*%
G04 APERTURE END LIST*
D10*
X86832761Y-111272952D02*
X86832761Y-112972952D01*
X87561333Y-111272952D02*
X87561333Y-112163428D01*
X87480380Y-112325333D01*
X87318476Y-112406285D01*
X87075619Y-112406285D01*
X86913714Y-112325333D01*
X86832761Y-112244380D01*
X88208952Y-112406285D02*
X88613714Y-111272952D01*
X89018476Y-112406285D02*
X88613714Y-111272952D01*
X88451809Y-110868190D01*
X88370857Y-110787238D01*
X88208952Y-110706285D01*
X89666095Y-111272952D02*
X89666095Y-112406285D01*
X89666095Y-112244380D02*
X89747047Y-112325333D01*
X89908952Y-112406285D01*
X90151809Y-112406285D01*
X90313714Y-112325333D01*
X90394666Y-112163428D01*
X90394666Y-111272952D01*
X90394666Y-112163428D02*
X90475619Y-112325333D01*
X90637523Y-112406285D01*
X90880380Y-112406285D01*
X91042285Y-112325333D01*
X91123238Y-112163428D01*
X91123238Y-111272952D01*
X92904190Y-111272952D02*
X92337523Y-112082476D01*
X91932761Y-111272952D02*
X91932761Y-112972952D01*
X92580380Y-112972952D01*
X92742285Y-112892000D01*
X92823238Y-112811047D01*
X92904190Y-112649142D01*
X92904190Y-112406285D01*
X92823238Y-112244380D01*
X92742285Y-112163428D01*
X92580380Y-112082476D01*
X91932761Y-112082476D01*
X94604190Y-111434857D02*
X94523238Y-111353904D01*
X94280380Y-111272952D01*
X94118476Y-111272952D01*
X93875619Y-111353904D01*
X93713714Y-111515809D01*
X93632761Y-111677714D01*
X93551809Y-112001523D01*
X93551809Y-112244380D01*
X93632761Y-112568190D01*
X93713714Y-112730095D01*
X93875619Y-112892000D01*
X94118476Y-112972952D01*
X94280380Y-112972952D01*
X94523238Y-112892000D01*
X94604190Y-112811047D01*
X79506571Y-108422952D02*
X78939904Y-109232476D01*
X78535142Y-108422952D02*
X78535142Y-110122952D01*
X79182761Y-110122952D01*
X79344666Y-110042000D01*
X79425619Y-109961047D01*
X79506571Y-109799142D01*
X79506571Y-109556285D01*
X79425619Y-109394380D01*
X79344666Y-109313428D01*
X79182761Y-109232476D01*
X78535142Y-109232476D01*
X80882761Y-108503904D02*
X80720857Y-108422952D01*
X80397047Y-108422952D01*
X80235142Y-108503904D01*
X80154190Y-108665809D01*
X80154190Y-109313428D01*
X80235142Y-109475333D01*
X80397047Y-109556285D01*
X80720857Y-109556285D01*
X80882761Y-109475333D01*
X80963714Y-109313428D01*
X80963714Y-109151523D01*
X80154190Y-108989619D01*
X81692285Y-109556285D02*
X81692285Y-107856285D01*
X81692285Y-109475333D02*
X81854190Y-109556285D01*
X82178000Y-109556285D01*
X82339904Y-109475333D01*
X82420857Y-109394380D01*
X82501809Y-109232476D01*
X82501809Y-108746761D01*
X82420857Y-108584857D01*
X82339904Y-108503904D01*
X82178000Y-108422952D01*
X81854190Y-108422952D01*
X81692285Y-108503904D01*
X83878000Y-108503904D02*
X83716095Y-108422952D01*
X83392285Y-108422952D01*
X83230380Y-108503904D01*
X83149428Y-108665809D01*
X83149428Y-109313428D01*
X83230380Y-109475333D01*
X83392285Y-109556285D01*
X83716095Y-109556285D01*
X83878000Y-109475333D01*
X83958952Y-109313428D01*
X83958952Y-109151523D01*
X83149428Y-108989619D01*
X85416095Y-108422952D02*
X85416095Y-109313428D01*
X85335142Y-109475333D01*
X85173238Y-109556285D01*
X84849428Y-109556285D01*
X84687523Y-109475333D01*
X85416095Y-108503904D02*
X85254190Y-108422952D01*
X84849428Y-108422952D01*
X84687523Y-108503904D01*
X84606571Y-108665809D01*
X84606571Y-108827714D01*
X84687523Y-108989619D01*
X84849428Y-109070571D01*
X85254190Y-109070571D01*
X85416095Y-109151523D01*
X85982761Y-109556285D02*
X86630380Y-109556285D01*
X86225619Y-110122952D02*
X86225619Y-108665809D01*
X86306571Y-108503904D01*
X86468476Y-108422952D01*
X86630380Y-108422952D01*
X87844666Y-108503904D02*
X87682761Y-108422952D01*
X87358952Y-108422952D01*
X87197047Y-108503904D01*
X87116095Y-108665809D01*
X87116095Y-109313428D01*
X87197047Y-109475333D01*
X87358952Y-109556285D01*
X87682761Y-109556285D01*
X87844666Y-109475333D01*
X87925619Y-109313428D01*
X87925619Y-109151523D01*
X87116095Y-108989619D01*
X88654190Y-108422952D02*
X88654190Y-109556285D01*
X88654190Y-109232476D02*
X88735142Y-109394380D01*
X88816095Y-109475333D01*
X88978000Y-109556285D01*
X89139904Y-109556285D01*
X91973238Y-108584857D02*
X91892285Y-108503904D01*
X91649428Y-108422952D01*
X91487523Y-108422952D01*
X91244666Y-108503904D01*
X91082761Y-108665809D01*
X91001809Y-108827714D01*
X90920857Y-109151523D01*
X90920857Y-109394380D01*
X91001809Y-109718190D01*
X91082761Y-109880095D01*
X91244666Y-110042000D01*
X91487523Y-110122952D01*
X91649428Y-110122952D01*
X91892285Y-110042000D01*
X91973238Y-109961047D01*
X92944666Y-108422952D02*
X92782761Y-108503904D01*
X92701809Y-108584857D01*
X92620857Y-108746761D01*
X92620857Y-109232476D01*
X92701809Y-109394380D01*
X92782761Y-109475333D01*
X92944666Y-109556285D01*
X93187523Y-109556285D01*
X93349428Y-109475333D01*
X93430380Y-109394380D01*
X93511333Y-109232476D01*
X93511333Y-108746761D01*
X93430380Y-108584857D01*
X93349428Y-108503904D01*
X93187523Y-108422952D01*
X92944666Y-108422952D01*
X94239904Y-109556285D02*
X94239904Y-108422952D01*
X94239904Y-109394380D02*
X94320857Y-109475333D01*
X94482761Y-109556285D01*
X94725619Y-109556285D01*
X94887523Y-109475333D01*
X94968476Y-109313428D01*
X94968476Y-108422952D01*
X95535142Y-109556285D02*
X96182761Y-109556285D01*
X95778000Y-110122952D02*
X95778000Y-108665809D01*
X95858952Y-108503904D01*
X96020857Y-108422952D01*
X96182761Y-108422952D01*
X96749428Y-108422952D02*
X96749428Y-109556285D01*
X96749428Y-109232476D02*
X96830380Y-109394380D01*
X96911333Y-109475333D01*
X97073238Y-109556285D01*
X97235142Y-109556285D01*
X98044666Y-108422952D02*
X97882761Y-108503904D01*
X97801809Y-108584857D01*
X97720857Y-108746761D01*
X97720857Y-109232476D01*
X97801809Y-109394380D01*
X97882761Y-109475333D01*
X98044666Y-109556285D01*
X98287523Y-109556285D01*
X98449428Y-109475333D01*
X98530380Y-109394380D01*
X98611333Y-109232476D01*
X98611333Y-108746761D01*
X98530380Y-108584857D01*
X98449428Y-108503904D01*
X98287523Y-108422952D01*
X98044666Y-108422952D01*
X99582761Y-108422952D02*
X99420857Y-108503904D01*
X99339904Y-108665809D01*
X99339904Y-110122952D01*
X100473238Y-108422952D02*
X100311333Y-108503904D01*
X100230380Y-108665809D01*
X100230380Y-110122952D01*
X101768476Y-108503904D02*
X101606571Y-108422952D01*
X101282761Y-108422952D01*
X101120857Y-108503904D01*
X101039904Y-108665809D01*
X101039904Y-109313428D01*
X101120857Y-109475333D01*
X101282761Y-109556285D01*
X101606571Y-109556285D01*
X101768476Y-109475333D01*
X101849428Y-109313428D01*
X101849428Y-109151523D01*
X101039904Y-108989619D01*
X102578000Y-108422952D02*
X102578000Y-109556285D01*
X102578000Y-109232476D02*
X102658952Y-109394380D01*
X102739904Y-109475333D01*
X102901809Y-109556285D01*
X103063714Y-109556285D01*
D11*
X72312250Y-73047142D02*
X72997964Y-73047142D01*
X72505107Y-71847142D02*
X72655107Y-73047142D01*
X73247964Y-71847142D02*
X73397964Y-73047142D01*
X73933678Y-71847142D01*
X74083678Y-73047142D01*
X74540821Y-73047142D02*
X75190821Y-71847142D01*
X75340821Y-73047142D02*
X74390821Y-71847142D01*
X76490821Y-72647142D02*
X76947964Y-72647142D01*
X76712250Y-73047142D02*
X76583678Y-72018571D01*
X76626535Y-71904285D01*
X76733678Y-71847142D01*
X76847964Y-71847142D01*
X77419392Y-71847142D02*
X77312250Y-71904285D01*
X77262250Y-71961428D01*
X77219392Y-72075714D01*
X77262250Y-72418571D01*
X77333678Y-72532857D01*
X77397964Y-72590000D01*
X77519392Y-72647142D01*
X77690821Y-72647142D01*
X77797964Y-72590000D01*
X77847964Y-72532857D01*
X77890821Y-72418571D01*
X77847964Y-72075714D01*
X77776535Y-71961428D01*
X77712250Y-71904285D01*
X77590821Y-71847142D01*
X77419392Y-71847142D01*
X79226535Y-73047142D02*
X79912250Y-73047142D01*
X79419392Y-71847142D02*
X79569392Y-73047142D01*
X80147964Y-72190000D02*
X80719392Y-72190000D01*
X79990821Y-71847142D02*
X80540821Y-73047142D01*
X80790821Y-71847142D01*
X81226535Y-73047142D02*
X82026535Y-73047142D01*
X81362250Y-71847142D01*
X82712250Y-73047142D02*
X82940821Y-73047142D01*
X83047964Y-72990000D01*
X83147964Y-72875714D01*
X83176535Y-72647142D01*
X83126535Y-72247142D01*
X83040821Y-72018571D01*
X82912250Y-71904285D01*
X82790821Y-71847142D01*
X82562250Y-71847142D01*
X82455107Y-71904285D01*
X82355107Y-72018571D01*
X82326535Y-72247142D01*
X82376535Y-72647142D01*
X82462250Y-72875714D01*
X82590821Y-72990000D01*
X82712250Y-73047142D01*
X83590821Y-71847142D02*
X83740821Y-73047142D01*
X84033678Y-72190000D01*
X84540821Y-73047142D01*
X84390821Y-71847142D01*
X85876535Y-71847142D02*
X86026535Y-73047142D01*
X85955107Y-72475714D02*
X86640821Y-72475714D01*
X86562250Y-71847142D02*
X86712250Y-73047142D01*
X87747964Y-72647142D02*
X87647964Y-71847142D01*
X87233678Y-72647142D02*
X87155107Y-72018571D01*
X87197964Y-71904285D01*
X87305107Y-71847142D01*
X87476535Y-71847142D01*
X87597964Y-71904285D01*
X87662250Y-71961428D01*
X88733678Y-71847142D02*
X88883678Y-73047142D01*
X88740821Y-71904285D02*
X88619392Y-71847142D01*
X88390821Y-71847142D01*
X88283678Y-71904285D01*
X88233678Y-71961428D01*
X88190821Y-72075714D01*
X88233678Y-72418571D01*
X88305107Y-72532857D01*
X88369392Y-72590000D01*
X88490821Y-72647142D01*
X88719392Y-72647142D01*
X88826535Y-72590000D01*
X89819392Y-71847142D02*
X89897964Y-72475714D01*
X89855107Y-72590000D01*
X89747964Y-72647142D01*
X89519392Y-72647142D01*
X89397964Y-72590000D01*
X89826535Y-71904285D02*
X89705107Y-71847142D01*
X89419392Y-71847142D01*
X89312250Y-71904285D01*
X89269392Y-72018571D01*
X89283678Y-72132857D01*
X89355107Y-72247142D01*
X89476535Y-72304285D01*
X89762250Y-72304285D01*
X89883678Y-72361428D01*
X91233678Y-72647142D02*
X91690821Y-72647142D01*
X91305107Y-71847142D02*
X91433678Y-72875714D01*
X91505107Y-72990000D01*
X91626535Y-73047142D01*
X91740821Y-73047142D01*
X92162250Y-71847142D02*
X92055107Y-71904285D01*
X92005107Y-71961428D01*
X91962250Y-72075714D01*
X92005107Y-72418571D01*
X92076535Y-72532857D01*
X92140821Y-72590000D01*
X92262250Y-72647142D01*
X92433678Y-72647142D01*
X92540821Y-72590000D01*
X92590821Y-72532857D01*
X92633678Y-72418571D01*
X92590821Y-72075714D01*
X92519392Y-71961428D01*
X92455107Y-71904285D01*
X92333678Y-71847142D01*
X92162250Y-71847142D01*
X93076535Y-71847142D02*
X93176535Y-72647142D01*
X93147964Y-72418571D02*
X93219392Y-72532857D01*
X93283678Y-72590000D01*
X93405107Y-72647142D01*
X93519392Y-72647142D01*
X94683678Y-71904285D02*
X94790821Y-71847142D01*
X95019392Y-71847142D01*
X95140821Y-71904285D01*
X95212250Y-72018571D01*
X95219392Y-72075714D01*
X95176535Y-72190000D01*
X95069392Y-72247142D01*
X94897964Y-72247142D01*
X94790821Y-72304285D01*
X94747964Y-72418571D01*
X94755107Y-72475714D01*
X94826535Y-72590000D01*
X94947964Y-72647142D01*
X95119392Y-72647142D01*
X95226535Y-72590000D01*
X96319392Y-72647142D02*
X96219392Y-71847142D01*
X95805107Y-72647142D02*
X95726535Y-72018571D01*
X95769392Y-71904285D01*
X95876535Y-71847142D01*
X96047964Y-71847142D01*
X96169392Y-71904285D01*
X96233678Y-71961428D01*
X96890821Y-72647142D02*
X96740821Y-71447142D01*
X96883678Y-72590000D02*
X97005107Y-72647142D01*
X97233678Y-72647142D01*
X97340821Y-72590000D01*
X97390821Y-72532857D01*
X97433678Y-72418571D01*
X97390821Y-72075714D01*
X97319392Y-71961428D01*
X97255107Y-71904285D01*
X97133678Y-71847142D01*
X96905107Y-71847142D01*
X96797964Y-71904285D01*
X97976535Y-72647142D02*
X97826535Y-71447142D01*
X97969392Y-72590000D02*
X98090821Y-72647142D01*
X98319392Y-72647142D01*
X98426535Y-72590000D01*
X98476535Y-72532857D01*
X98519392Y-72418571D01*
X98476535Y-72075714D01*
X98405107Y-71961428D01*
X98340821Y-71904285D01*
X98219392Y-71847142D01*
X97990821Y-71847142D01*
X97883678Y-71904285D01*
X99133678Y-71847142D02*
X99026535Y-71904285D01*
X98976535Y-71961428D01*
X98933678Y-72075714D01*
X98976535Y-72418571D01*
X99047964Y-72532857D01*
X99112250Y-72590000D01*
X99233678Y-72647142D01*
X99405107Y-72647142D01*
X99512250Y-72590000D01*
X99562250Y-72532857D01*
X99605107Y-72418571D01*
X99562250Y-72075714D01*
X99490821Y-71961428D01*
X99426535Y-71904285D01*
X99305107Y-71847142D01*
X99133678Y-71847142D01*
X100047964Y-71847142D02*
X100147964Y-72647142D01*
X100119392Y-72418571D02*
X100190821Y-72532857D01*
X100255107Y-72590000D01*
X100376535Y-72647142D01*
X100490821Y-72647142D01*
X100719392Y-72647142D02*
X101176535Y-72647142D01*
X100940821Y-73047142D02*
X100812250Y-72018571D01*
X100855107Y-71904285D01*
X100962250Y-71847142D01*
X101076535Y-71847142D01*
X47865535Y-74260142D02*
X48015535Y-75460142D01*
X48301250Y-75460142D01*
X48465535Y-75403000D01*
X48565535Y-75288714D01*
X48608392Y-75174428D01*
X48636964Y-74945857D01*
X48615535Y-74774428D01*
X48529821Y-74545857D01*
X48458392Y-74431571D01*
X48329821Y-74317285D01*
X48151250Y-74260142D01*
X47865535Y-74260142D01*
X49529821Y-74317285D02*
X49408392Y-74260142D01*
X49179821Y-74260142D01*
X49072678Y-74317285D01*
X49029821Y-74431571D01*
X49086964Y-74888714D01*
X49158392Y-75003000D01*
X49279821Y-75060142D01*
X49508392Y-75060142D01*
X49615535Y-75003000D01*
X49658392Y-74888714D01*
X49644107Y-74774428D01*
X49058392Y-74660142D01*
X50044107Y-74317285D02*
X50151250Y-74260142D01*
X50379821Y-74260142D01*
X50501250Y-74317285D01*
X50572678Y-74431571D01*
X50579821Y-74488714D01*
X50536964Y-74603000D01*
X50429821Y-74660142D01*
X50258392Y-74660142D01*
X50151250Y-74717285D01*
X50108392Y-74831571D01*
X50115535Y-74888714D01*
X50186964Y-75003000D01*
X50308392Y-75060142D01*
X50479821Y-75060142D01*
X50586964Y-75003000D01*
X51065535Y-74260142D02*
X51165535Y-75060142D01*
X51215535Y-75460142D02*
X51151250Y-75403000D01*
X51201250Y-75345857D01*
X51265535Y-75403000D01*
X51215535Y-75460142D01*
X51201250Y-75345857D01*
X52251250Y-75060142D02*
X52129821Y-74088714D01*
X52058392Y-73974428D01*
X51994107Y-73917285D01*
X51872678Y-73860142D01*
X51701250Y-73860142D01*
X51594107Y-73917285D01*
X52158392Y-74317285D02*
X52036964Y-74260142D01*
X51808392Y-74260142D01*
X51701250Y-74317285D01*
X51651250Y-74374428D01*
X51608392Y-74488714D01*
X51651250Y-74831571D01*
X51722678Y-74945857D01*
X51786964Y-75003000D01*
X51908392Y-75060142D01*
X52136964Y-75060142D01*
X52244107Y-75003000D01*
X52822678Y-75060142D02*
X52722678Y-74260142D01*
X52808392Y-74945857D02*
X52872678Y-75003000D01*
X52994107Y-75060142D01*
X53165535Y-75060142D01*
X53272678Y-75003000D01*
X53315535Y-74888714D01*
X53236964Y-74260142D01*
X54272678Y-74317285D02*
X54151250Y-74260142D01*
X53922678Y-74260142D01*
X53815535Y-74317285D01*
X53772678Y-74431571D01*
X53829821Y-74888714D01*
X53901250Y-75003000D01*
X54022678Y-75060142D01*
X54251250Y-75060142D01*
X54358392Y-75003000D01*
X54401250Y-74888714D01*
X54386964Y-74774428D01*
X53801250Y-74660142D01*
X55351250Y-74260142D02*
X55501250Y-75460142D01*
X55358392Y-74317285D02*
X55236964Y-74260142D01*
X55008392Y-74260142D01*
X54901250Y-74317285D01*
X54851250Y-74374428D01*
X54808392Y-74488714D01*
X54851250Y-74831571D01*
X54922678Y-74945857D01*
X54986964Y-75003000D01*
X55108392Y-75060142D01*
X55336964Y-75060142D01*
X55444107Y-75003000D01*
X56836964Y-74260142D02*
X56986964Y-75460142D01*
X56929821Y-75003000D02*
X57051250Y-75060142D01*
X57279821Y-75060142D01*
X57386964Y-75003000D01*
X57436964Y-74945857D01*
X57479821Y-74831571D01*
X57436964Y-74488714D01*
X57365535Y-74374428D01*
X57301250Y-74317285D01*
X57179821Y-74260142D01*
X56951250Y-74260142D01*
X56844107Y-74317285D01*
X57908392Y-75060142D02*
X58094107Y-74260142D01*
X58479821Y-75060142D02*
X58094107Y-74260142D01*
X57944107Y-73974428D01*
X57879821Y-73917285D01*
X57758392Y-73860142D01*
X59729821Y-75460142D02*
X60415535Y-75460142D01*
X59922678Y-74260142D02*
X60072678Y-75460142D01*
X60651250Y-74603000D02*
X61222678Y-74603000D01*
X60494107Y-74260142D02*
X61044107Y-75460142D01*
X61294107Y-74260142D01*
X61729821Y-75460142D02*
X62529821Y-75460142D01*
X61865535Y-74260142D01*
X62872678Y-75460142D02*
X63008392Y-74260142D01*
X63344107Y-75117285D01*
X63465535Y-74260142D01*
X63901250Y-75460142D01*
X65222678Y-75517285D02*
X64001250Y-73974428D01*
X65844107Y-75460142D02*
X66072678Y-75460142D01*
X66179821Y-75403000D01*
X66279821Y-75288714D01*
X66308392Y-75060142D01*
X66258392Y-74660142D01*
X66172678Y-74431571D01*
X66044107Y-74317285D01*
X65922678Y-74260142D01*
X65694107Y-74260142D01*
X65586964Y-74317285D01*
X65486964Y-74431571D01*
X65458392Y-74660142D01*
X65508392Y-75060142D01*
X65594107Y-75288714D01*
X65722678Y-75403000D01*
X65844107Y-75460142D01*
X66722678Y-74260142D02*
X66872678Y-75460142D01*
X66801250Y-74888714D02*
X67486964Y-74888714D01*
X67408392Y-74260142D02*
X67558392Y-75460142D01*
X68058392Y-75345857D02*
X68122678Y-75403000D01*
X68244107Y-75460142D01*
X68529821Y-75460142D01*
X68636964Y-75403000D01*
X68686964Y-75345857D01*
X68729821Y-75231571D01*
X68715535Y-75117285D01*
X68636964Y-74945857D01*
X67865535Y-74260142D01*
X68608392Y-74260142D01*
X69272678Y-75460142D02*
X69151250Y-74488714D01*
X69194107Y-74374428D01*
X69244107Y-74317285D01*
X69351250Y-74260142D01*
X69579821Y-74260142D01*
X69701250Y-74317285D01*
X69765535Y-74374428D01*
X69836964Y-74488714D01*
X69958392Y-75460142D01*
X70379821Y-74260142D02*
X70529821Y-75460142D01*
X70815535Y-75460142D01*
X70979821Y-75403000D01*
X71079821Y-75288714D01*
X71122678Y-75174428D01*
X71151250Y-74945857D01*
X71129821Y-74774428D01*
X71044107Y-74545857D01*
X70972678Y-74431571D01*
X70844107Y-74317285D01*
X70665535Y-74260142D01*
X70379821Y-74260142D01*
X71529821Y-74317285D02*
X71694107Y-74260142D01*
X71979821Y-74260142D01*
X72101250Y-74317285D01*
X72165535Y-74374428D01*
X72236964Y-74488714D01*
X72251250Y-74603000D01*
X72208392Y-74717285D01*
X72158392Y-74774428D01*
X72051250Y-74831571D01*
X71829821Y-74888714D01*
X71722678Y-74945857D01*
X71672678Y-75003000D01*
X71629821Y-75117285D01*
X71644107Y-75231571D01*
X71715535Y-75345857D01*
X71779821Y-75403000D01*
X71901250Y-75460142D01*
X72186964Y-75460142D01*
X72351250Y-75403000D01*
X73694107Y-74717285D02*
X74608392Y-74717285D01*
X76515535Y-74888714D02*
X76679821Y-74831571D01*
X76729821Y-74774428D01*
X76772678Y-74660142D01*
X76751250Y-74488714D01*
X76679821Y-74374428D01*
X76615535Y-74317285D01*
X76494107Y-74260142D01*
X76036964Y-74260142D01*
X76186964Y-75460142D01*
X76586964Y-75460142D01*
X76694107Y-75403000D01*
X76744107Y-75345857D01*
X76786964Y-75231571D01*
X76772678Y-75117285D01*
X76701250Y-75003000D01*
X76636964Y-74945857D01*
X76515535Y-74888714D01*
X76115535Y-74888714D01*
X77751250Y-74260142D02*
X77829821Y-74888714D01*
X77786964Y-75003000D01*
X77679821Y-75060142D01*
X77451250Y-75060142D01*
X77329821Y-75003000D01*
X77758392Y-74317285D02*
X77636964Y-74260142D01*
X77351250Y-74260142D01*
X77244107Y-74317285D01*
X77201250Y-74431571D01*
X77215535Y-74545857D01*
X77286964Y-74660142D01*
X77408392Y-74717285D01*
X77694107Y-74717285D01*
X77815535Y-74774428D01*
X78322678Y-74260142D02*
X78422678Y-75060142D01*
X78394107Y-74831571D02*
X78465535Y-74945857D01*
X78529821Y-75003000D01*
X78651250Y-75060142D01*
X78765535Y-75060142D01*
X79065535Y-74260142D02*
X79165535Y-75060142D01*
X79215535Y-75460142D02*
X79151250Y-75403000D01*
X79201250Y-75345857D01*
X79265535Y-75403000D01*
X79215535Y-75460142D01*
X79201250Y-75345857D01*
X79586964Y-74317285D02*
X79694107Y-74260142D01*
X79922678Y-74260142D01*
X80044107Y-74317285D01*
X80115535Y-74431571D01*
X80122678Y-74488714D01*
X80079821Y-74603000D01*
X79972678Y-74660142D01*
X79801250Y-74660142D01*
X79694107Y-74717285D01*
X79651250Y-74831571D01*
X79658392Y-74888714D01*
X79729821Y-75003000D01*
X79851250Y-75060142D01*
X80022678Y-75060142D01*
X80129821Y-75003000D01*
X81522678Y-74260142D02*
X81672678Y-75460142D01*
X81958392Y-75460142D01*
X82122678Y-75403000D01*
X82222678Y-75288714D01*
X82265535Y-75174428D01*
X82294107Y-74945857D01*
X82272678Y-74774428D01*
X82186964Y-74545857D01*
X82115535Y-74431571D01*
X81986964Y-74317285D01*
X81808392Y-74260142D01*
X81522678Y-74260142D01*
X82722678Y-74260142D02*
X82872678Y-75460142D01*
X83294107Y-74260142D02*
X83444107Y-75460142D01*
X83979821Y-74260142D01*
X84129821Y-75460142D01*
X85251250Y-74374428D02*
X85186964Y-74317285D01*
X85008392Y-74260142D01*
X84894107Y-74260142D01*
X84729821Y-74317285D01*
X84629821Y-74431571D01*
X84586964Y-74545857D01*
X84558392Y-74774428D01*
X84579821Y-74945857D01*
X84665535Y-75174428D01*
X84736964Y-75288714D01*
X84865535Y-75403000D01*
X85044107Y-75460142D01*
X85158392Y-75460142D01*
X85322678Y-75403000D01*
X85372678Y-75345857D01*
X86722678Y-74717285D02*
X87636964Y-74717285D01*
X89144107Y-75345857D02*
X89208392Y-75403000D01*
X89329821Y-75460142D01*
X89615535Y-75460142D01*
X89722678Y-75403000D01*
X89772678Y-75345857D01*
X89815535Y-75231571D01*
X89801250Y-75117285D01*
X89722678Y-74945857D01*
X88951250Y-74260142D01*
X89694107Y-74260142D01*
X90586964Y-75460142D02*
X90701250Y-75460142D01*
X90808392Y-75403000D01*
X90858392Y-75345857D01*
X90901250Y-75231571D01*
X90929821Y-75003000D01*
X90894107Y-74717285D01*
X90808392Y-74488714D01*
X90736964Y-74374428D01*
X90672678Y-74317285D01*
X90551250Y-74260142D01*
X90436964Y-74260142D01*
X90329821Y-74317285D01*
X90279821Y-74374428D01*
X90236964Y-74488714D01*
X90208392Y-74717285D01*
X90244107Y-75003000D01*
X90329821Y-75231571D01*
X90401250Y-75345857D01*
X90465535Y-75403000D01*
X90586964Y-75460142D01*
X91429821Y-75345857D02*
X91494107Y-75403000D01*
X91615535Y-75460142D01*
X91901250Y-75460142D01*
X92008392Y-75403000D01*
X92058392Y-75345857D01*
X92101250Y-75231571D01*
X92086964Y-75117285D01*
X92008392Y-74945857D01*
X91236964Y-74260142D01*
X91979821Y-74260142D01*
X93122678Y-74260142D02*
X92436964Y-74260142D01*
X92779821Y-74260142D02*
X92929821Y-75460142D01*
X92794107Y-75288714D01*
X92665535Y-75174428D01*
X92544107Y-75117285D01*
X97272678Y-75460142D02*
X97522678Y-74260142D01*
X98072678Y-75460142D01*
X98951250Y-74260142D02*
X98265535Y-74260142D01*
X98608392Y-74260142D02*
X98758392Y-75460142D01*
X98622678Y-75288714D01*
X98494107Y-75174428D01*
X98372678Y-75117285D01*
X99479821Y-74374428D02*
X99529821Y-74317285D01*
X99465535Y-74260142D01*
X99415535Y-74317285D01*
X99479821Y-74374428D01*
X99465535Y-74260142D01*
X100415535Y-75460142D02*
X100529821Y-75460142D01*
X100636964Y-75403000D01*
X100686964Y-75345857D01*
X100729821Y-75231571D01*
X100758392Y-75003000D01*
X100722678Y-74717285D01*
X100636964Y-74488714D01*
X100565535Y-74374428D01*
X100501250Y-74317285D01*
X100379821Y-74260142D01*
X100265535Y-74260142D01*
X100158392Y-74317285D01*
X100108392Y-74374428D01*
X100065535Y-74488714D01*
X100036964Y-74717285D01*
X100072678Y-75003000D01*
X100158392Y-75231571D01*
X100229821Y-75345857D01*
X100294107Y-75403000D01*
X100415535Y-75460142D01*
X101258392Y-75345857D02*
X101322678Y-75403000D01*
X101444107Y-75460142D01*
X101729821Y-75460142D01*
X101836964Y-75403000D01*
X101886964Y-75345857D01*
X101929821Y-75231571D01*
X101915535Y-75117285D01*
X101836964Y-74945857D01*
X101065535Y-74260142D01*
X101808392Y-74260142D01*
D12*
%TO.C,U6*%
X86931500Y-90561000D02*
X90381500Y-90561000D01*
X86931500Y-90561000D02*
X84981500Y-90561000D01*
X86931500Y-99431000D02*
X88881500Y-99431000D01*
X86931500Y-99431000D02*
X84981500Y-99431000D01*
%TO.C,Y1*%
X102164000Y-65877500D02*
X102164000Y-69377500D01*
X106624000Y-65877500D02*
X106624000Y-69377500D01*
X102344000Y-58302500D02*
X106444000Y-58302500D01*
%TO.C,U14*%
X36687000Y-109604500D02*
X38137000Y-109604500D01*
X38137000Y-109604500D02*
X38137000Y-114804500D01*
X38137000Y-114804500D02*
X33237000Y-114804500D01*
X33237000Y-114804500D02*
X33237000Y-109604500D01*
X33237000Y-109604500D02*
X34687000Y-109604500D01*
X34687000Y-109604500D02*
G75*
G03*
X36687000Y-109604500I1000000J0D01*
G01*
%TO.C,U13*%
X54403500Y-110557000D02*
X55853500Y-110557000D01*
X55853500Y-110557000D02*
X55853500Y-115757000D01*
X55853500Y-115757000D02*
X50953500Y-115757000D01*
X50953500Y-115757000D02*
X50953500Y-110557000D01*
X50953500Y-110557000D02*
X52403500Y-110557000D01*
X52403500Y-110557000D02*
G75*
G03*
X54403500Y-110557000I1000000J0D01*
G01*
%TO.C,U11*%
X99584000Y-56575000D02*
X98134000Y-56575000D01*
X98134000Y-56575000D02*
X98134000Y-51375000D01*
X98134000Y-51375000D02*
X103034000Y-51375000D01*
X103034000Y-51375000D02*
X103034000Y-56575000D01*
X103034000Y-56575000D02*
X101584000Y-56575000D01*
X101584000Y-56575000D02*
G75*
G03*
X99584000Y-56575000I-1000000J0D01*
G01*
%TO.C,U7*%
X53477000Y-94678500D02*
X53477000Y-92728500D01*
X53477000Y-94678500D02*
X53477000Y-96628500D01*
X62347000Y-94678500D02*
X62347000Y-92728500D01*
X62347000Y-94678500D02*
X62347000Y-98128500D01*
%TO.C,U5*%
X65643000Y-110684000D02*
X67093000Y-110684000D01*
X67093000Y-110684000D02*
X67093000Y-115884000D01*
X67093000Y-115884000D02*
X62193000Y-115884000D01*
X62193000Y-115884000D02*
X62193000Y-110684000D01*
X62193000Y-110684000D02*
X63643000Y-110684000D01*
X63643000Y-110684000D02*
G75*
G03*
X65643000Y-110684000I1000000J0D01*
G01*
%TO.C,U4*%
X106867000Y-40052500D02*
X106867000Y-41502500D01*
X106867000Y-41502500D02*
X101667000Y-41502500D01*
X101667000Y-41502500D02*
X101667000Y-36602500D01*
X101667000Y-36602500D02*
X106867000Y-36602500D01*
X106867000Y-36602500D02*
X106867000Y-38052500D01*
X106867000Y-38052500D02*
G75*
G03*
X106867000Y-40052500I0J-1000000D01*
G01*
%TO.C,R107*%
X27532064Y-112866500D02*
X27077936Y-112866500D01*
X27532064Y-114336500D02*
X27077936Y-114336500D01*
%TO.C,R106*%
X27659064Y-110199500D02*
X27204936Y-110199500D01*
X27659064Y-111669500D02*
X27204936Y-111669500D01*
%TO.C,R105*%
X29998936Y-117448000D02*
X30453064Y-117448000D01*
X29998936Y-115978000D02*
X30453064Y-115978000D01*
%TO.C,R104*%
X32104000Y-108050064D02*
X32104000Y-107595936D01*
X30634000Y-108050064D02*
X30634000Y-107595936D01*
%TO.C,R103*%
X38507936Y-117257500D02*
X38962064Y-117257500D01*
X38507936Y-115787500D02*
X38962064Y-115787500D01*
%TO.C,R102*%
X54763936Y-64743000D02*
X55218064Y-64743000D01*
X54763936Y-63273000D02*
X55218064Y-63273000D01*
%TO.C,R101*%
X56869000Y-50709564D02*
X56869000Y-50255436D01*
X55399000Y-50709564D02*
X55399000Y-50255436D01*
%TO.C,R100*%
X59536000Y-50582564D02*
X59536000Y-50128436D01*
X58066000Y-50582564D02*
X58066000Y-50128436D01*
%TO.C,R99*%
X61949000Y-50646064D02*
X61949000Y-50191936D01*
X60479000Y-50646064D02*
X60479000Y-50191936D01*
%TO.C,R98*%
X45883564Y-113819000D02*
X45429436Y-113819000D01*
X45883564Y-115289000D02*
X45429436Y-115289000D01*
%TO.C,R97*%
X45883564Y-111152000D02*
X45429436Y-111152000D01*
X45883564Y-112622000D02*
X45429436Y-112622000D01*
%TO.C,R96*%
X48223436Y-117892500D02*
X48677564Y-117892500D01*
X48223436Y-116422500D02*
X48677564Y-116422500D01*
%TO.C,R95*%
X43343500Y-108685064D02*
X43343500Y-108230936D01*
X41873500Y-108685064D02*
X41873500Y-108230936D01*
%TO.C,R94*%
X55970436Y-118019500D02*
X56424564Y-118019500D01*
X55970436Y-116549500D02*
X56424564Y-116549500D01*
%TO.C,R88*%
X97890064Y-49303000D02*
X97435936Y-49303000D01*
X97890064Y-50773000D02*
X97435936Y-50773000D01*
%TO.C,R87*%
X93572064Y-56224500D02*
X93117936Y-56224500D01*
X93572064Y-57694500D02*
X93117936Y-57694500D01*
%TO.C,R86*%
X93572064Y-51779500D02*
X93117936Y-51779500D01*
X93572064Y-53249500D02*
X93117936Y-53249500D01*
%TO.C,R85*%
X93572064Y-54002000D02*
X93117936Y-54002000D01*
X93572064Y-55472000D02*
X93117936Y-55472000D01*
%TO.C,R80*%
X99531500Y-42000436D02*
X99531500Y-42454564D01*
X101001500Y-42000436D02*
X101001500Y-42454564D01*
%TO.C,R79*%
X107659500Y-43524436D02*
X107659500Y-43978564D01*
X109129500Y-43524436D02*
X109129500Y-43978564D01*
%TO.C,R76*%
X102325500Y-46635936D02*
X102325500Y-47090064D01*
X103795500Y-46635936D02*
X103795500Y-47090064D01*
%TO.C,R75*%
X104802000Y-46572436D02*
X104802000Y-47026564D01*
X106272000Y-46572436D02*
X106272000Y-47026564D01*
%TO.C,R74*%
X67654436Y-118083000D02*
X68108564Y-118083000D01*
X67654436Y-116613000D02*
X68108564Y-116613000D01*
%TO.C,R73*%
X61123564Y-116676500D02*
X60669436Y-116676500D01*
X61123564Y-118146500D02*
X60669436Y-118146500D01*
%TO.C,R72*%
X71654936Y-115289000D02*
X72109064Y-115289000D01*
X71654936Y-113819000D02*
X72109064Y-113819000D01*
%TO.C,R71*%
X71654936Y-112749000D02*
X72109064Y-112749000D01*
X71654936Y-111279000D02*
X72109064Y-111279000D01*
%TO.C,R70*%
X69823000Y-50900064D02*
X69823000Y-50445936D01*
X68353000Y-50900064D02*
X68353000Y-50445936D01*
%TO.C,R69*%
X72236000Y-50963564D02*
X72236000Y-50509436D01*
X70766000Y-50963564D02*
X70766000Y-50509436D01*
%TO.C,R68*%
X74776000Y-50963564D02*
X74776000Y-50509436D01*
X73306000Y-50963564D02*
X73306000Y-50509436D01*
%TO.C,R67*%
X77252500Y-51027064D02*
X77252500Y-50572936D01*
X75782500Y-51027064D02*
X75782500Y-50572936D01*
%TO.C,R66*%
X69886500Y-54900564D02*
X69886500Y-54446436D01*
X68416500Y-54900564D02*
X68416500Y-54446436D01*
%TO.C,R65*%
X79665500Y-103097064D02*
X79665500Y-102642936D01*
X78195500Y-103097064D02*
X78195500Y-102642936D01*
%TO.C,R64*%
X88609436Y-101700000D02*
X89063564Y-101700000D01*
X88609436Y-100230000D02*
X89063564Y-100230000D01*
%TO.C,R63*%
X81824500Y-103097064D02*
X81824500Y-102642936D01*
X80354500Y-103097064D02*
X80354500Y-102642936D01*
%TO.C,R62*%
X89063564Y-102643000D02*
X88609436Y-102643000D01*
X89063564Y-104113000D02*
X88609436Y-104113000D01*
%TO.C,R61*%
X96610436Y-101700000D02*
X97064564Y-101700000D01*
X96610436Y-100230000D02*
X97064564Y-100230000D01*
%TO.C,R60*%
X77433436Y-85825000D02*
X77887564Y-85825000D01*
X77433436Y-84355000D02*
X77887564Y-84355000D01*
%TO.C,R59*%
X95213500Y-91974936D02*
X95213500Y-92429064D01*
X96683500Y-91974936D02*
X96683500Y-92429064D01*
%TO.C,R58*%
X93816436Y-87603000D02*
X94270564Y-87603000D01*
X93816436Y-86133000D02*
X94270564Y-86133000D01*
%TO.C,R57*%
X89752436Y-87730000D02*
X90206564Y-87730000D01*
X89752436Y-86260000D02*
X90206564Y-86260000D01*
%TO.C,R56*%
X90206564Y-88419000D02*
X89752436Y-88419000D01*
X90206564Y-89889000D02*
X89752436Y-89889000D01*
%TO.C,R55*%
X83402436Y-87730000D02*
X83856564Y-87730000D01*
X83402436Y-86260000D02*
X83856564Y-86260000D01*
%TO.C,R54*%
X83856564Y-88419000D02*
X83402436Y-88419000D01*
X83856564Y-89889000D02*
X83402436Y-89889000D01*
%TO.C,R53*%
X92546436Y-94334000D02*
X93000564Y-94334000D01*
X92546436Y-92864000D02*
X93000564Y-92864000D01*
%TO.C,R52*%
X81078564Y-93118000D02*
X80624436Y-93118000D01*
X81078564Y-94588000D02*
X80624436Y-94588000D01*
%TO.C,R51*%
X92619500Y-97001064D02*
X92619500Y-96546936D01*
X91149500Y-97001064D02*
X91149500Y-96546936D01*
%TO.C,R50*%
X78395500Y-97001064D02*
X78395500Y-96546936D01*
X76925500Y-97001064D02*
X76925500Y-96546936D01*
%TO.C,R49*%
X94959436Y-96493000D02*
X95413564Y-96493000D01*
X94959436Y-95023000D02*
X95413564Y-95023000D01*
%TO.C,R48*%
X77125564Y-93118000D02*
X76671436Y-93118000D01*
X77125564Y-94588000D02*
X76671436Y-94588000D01*
%TO.C,R47*%
X76871500Y-102986064D02*
X76871500Y-102531936D01*
X75401500Y-102986064D02*
X75401500Y-102531936D01*
%TO.C,R46*%
X93816436Y-85444000D02*
X94270564Y-85444000D01*
X93816436Y-83974000D02*
X94270564Y-83974000D01*
%TO.C,R45*%
X47270936Y-53186000D02*
X47725064Y-53186000D01*
X47270936Y-51716000D02*
X47725064Y-51716000D01*
%TO.C,R44*%
X47270936Y-51027000D02*
X47725064Y-51027000D01*
X47270936Y-49557000D02*
X47725064Y-49557000D01*
%TO.C,R43*%
X53694064Y-88863500D02*
X53239936Y-88863500D01*
X53694064Y-90333500D02*
X53239936Y-90333500D01*
%TO.C,R42*%
X55907000Y-88101436D02*
X55907000Y-88555564D01*
X57377000Y-88101436D02*
X57377000Y-88555564D01*
%TO.C,R40*%
X49937936Y-106653000D02*
X50392064Y-106653000D01*
X49937936Y-105183000D02*
X50392064Y-105183000D01*
%TO.C,R39*%
X61949064Y-86323500D02*
X61494936Y-86323500D01*
X61949064Y-87793500D02*
X61494936Y-87793500D01*
%TO.C,R38*%
X61494936Y-90333500D02*
X61949064Y-90333500D01*
X61494936Y-88863500D02*
X61949064Y-88863500D01*
%TO.C,R37*%
X59536000Y-88555564D02*
X59536000Y-88101436D01*
X58066000Y-88555564D02*
X58066000Y-88101436D01*
%TO.C,R36*%
X61822064Y-83783500D02*
X61367936Y-83783500D01*
X61822064Y-85253500D02*
X61367936Y-85253500D01*
%TO.C,R35*%
X50953936Y-98461500D02*
X51408064Y-98461500D01*
X50953936Y-96991500D02*
X51408064Y-96991500D01*
%TO.C,R34*%
X61367936Y-82967500D02*
X61822064Y-82967500D01*
X61367936Y-81497500D02*
X61822064Y-81497500D01*
%TO.C,R33*%
X55398936Y-104811500D02*
X55853064Y-104811500D01*
X55398936Y-103341500D02*
X55853064Y-103341500D01*
%TO.C,R31*%
X71918500Y-96493064D02*
X71918500Y-96038936D01*
X70448500Y-96493064D02*
X70448500Y-96038936D01*
%TO.C,R30*%
X67209936Y-101763500D02*
X67664064Y-101763500D01*
X67209936Y-100293500D02*
X67664064Y-100293500D01*
%TO.C,R29*%
X67972000Y-94451436D02*
X67972000Y-94905564D01*
X69442000Y-94451436D02*
X69442000Y-94905564D01*
%TO.C,R28*%
X65759064Y-95213500D02*
X65304936Y-95213500D01*
X65759064Y-96683500D02*
X65304936Y-96683500D01*
%TO.C,R27*%
X62457000Y-101255564D02*
X62457000Y-100801436D01*
X60987000Y-101255564D02*
X60987000Y-100801436D01*
%TO.C,R26*%
X64997000Y-103795564D02*
X64997000Y-103341436D01*
X63527000Y-103795564D02*
X63527000Y-103341436D01*
%TO.C,R25*%
X67209936Y-104049500D02*
X67664064Y-104049500D01*
X67209936Y-102579500D02*
X67664064Y-102579500D01*
%TO.C,R19*%
X63727000Y-70585064D02*
X63727000Y-70130936D01*
X62257000Y-70585064D02*
X62257000Y-70130936D01*
%TO.C,R18*%
X65822500Y-70521564D02*
X65822500Y-70067436D01*
X64352500Y-70521564D02*
X64352500Y-70067436D01*
%TO.C,R15*%
X110897936Y-61758500D02*
X111352064Y-61758500D01*
X110897936Y-60288500D02*
X111352064Y-60288500D01*
%TO.C,R14*%
X111352064Y-58256500D02*
X110897936Y-58256500D01*
X111352064Y-59726500D02*
X110897936Y-59726500D01*
%TO.C,R11*%
X111024936Y-66457500D02*
X111479064Y-66457500D01*
X111024936Y-64987500D02*
X111479064Y-64987500D01*
%TO.C,R10*%
X111479064Y-62765000D02*
X111024936Y-62765000D01*
X111479064Y-64235000D02*
X111024936Y-64235000D01*
%TO.C,R9*%
X38825500Y-79147936D02*
X38825500Y-79602064D01*
X40295500Y-79147936D02*
X40295500Y-79602064D01*
%TO.C,R8*%
X38771564Y-75401500D02*
X38317436Y-75401500D01*
X38771564Y-76871500D02*
X38317436Y-76871500D01*
%TO.C,R5*%
X35078936Y-58520000D02*
X35533064Y-58520000D01*
X35078936Y-57050000D02*
X35533064Y-57050000D01*
%TO.C,R4*%
X39206436Y-59345500D02*
X39660564Y-59345500D01*
X39206436Y-57875500D02*
X39660564Y-57875500D01*
%TO.C,Q5*%
X42801000Y-54983500D02*
X42801000Y-54053500D01*
X42801000Y-51823500D02*
X42801000Y-52753500D01*
X42801000Y-51823500D02*
X44961000Y-51823500D01*
X42801000Y-54983500D02*
X44261000Y-54983500D01*
%TO.C,Q2*%
X43559000Y-75763000D02*
X43559000Y-76693000D01*
X43559000Y-78923000D02*
X43559000Y-77993000D01*
X43559000Y-78923000D02*
X41399000Y-78923000D01*
X43559000Y-75763000D02*
X42099000Y-75763000D01*
%TO.C,Q1*%
X34673000Y-62794000D02*
X34673000Y-61864000D01*
X34673000Y-59634000D02*
X34673000Y-60564000D01*
X34673000Y-59634000D02*
X36833000Y-59634000D01*
X34673000Y-62794000D02*
X36133000Y-62794000D01*
%TO.C,D2*%
X43608500Y-82557500D02*
X40748500Y-82557500D01*
X40748500Y-82557500D02*
X40748500Y-80637500D01*
X40748500Y-80637500D02*
X43608500Y-80637500D01*
%TO.C,D1*%
X36949500Y-68119500D02*
X36949500Y-65259500D01*
X36949500Y-65259500D02*
X38869500Y-65259500D01*
X38869500Y-65259500D02*
X38869500Y-68119500D01*
%TO.C,C45*%
X67781500Y-69906248D02*
X67781500Y-70428752D01*
X69251500Y-69906248D02*
X69251500Y-70428752D01*
%TO.C,C44*%
X71474000Y-70428752D02*
X71474000Y-69906248D01*
X70004000Y-70428752D02*
X70004000Y-69906248D01*
%TO.C,C43*%
X51442252Y-94705500D02*
X50919748Y-94705500D01*
X51442252Y-96175500D02*
X50919748Y-96175500D01*
%TO.C,C42*%
X84779752Y-100357000D02*
X84257248Y-100357000D01*
X84779752Y-101827000D02*
X84257248Y-101827000D01*
%TO.C,C41*%
X84257248Y-104113000D02*
X84779752Y-104113000D01*
X84257248Y-102643000D02*
X84779752Y-102643000D01*
%TO.C,C40*%
X50919748Y-93889500D02*
X51442252Y-93889500D01*
X50919748Y-92419500D02*
X51442252Y-92419500D01*
%TO.C,C38*%
X77252500Y-55188752D02*
X77252500Y-54666248D01*
X75782500Y-55188752D02*
X75782500Y-54666248D01*
%TO.C,C37*%
X92639248Y-101700000D02*
X93161752Y-101700000D01*
X92639248Y-100230000D02*
X93161752Y-100230000D01*
%TO.C,C36*%
X80334752Y-99087000D02*
X79812248Y-99087000D01*
X80334752Y-100557000D02*
X79812248Y-100557000D01*
%TO.C,C35*%
X97098752Y-103532000D02*
X96576248Y-103532000D01*
X97098752Y-105002000D02*
X96576248Y-105002000D01*
%TO.C,C34*%
X93034752Y-102643000D02*
X92512248Y-102643000D01*
X93034752Y-104113000D02*
X92512248Y-104113000D01*
%TO.C,C33*%
X97953500Y-88272252D02*
X97953500Y-87749748D01*
X96483500Y-88272252D02*
X96483500Y-87749748D01*
%TO.C,C32*%
X94304752Y-88419000D02*
X93782248Y-88419000D01*
X94304752Y-89889000D02*
X93782248Y-89889000D01*
%TO.C,C31*%
X79953752Y-88419000D02*
X79431248Y-88419000D01*
X79953752Y-89889000D02*
X79431248Y-89889000D01*
%TO.C,C30*%
X89718248Y-85571000D02*
X90240752Y-85571000D01*
X89718248Y-84101000D02*
X90240752Y-84101000D01*
%TO.C,C29*%
X79846500Y-85696248D02*
X79846500Y-86218752D01*
X81316500Y-85696248D02*
X81316500Y-86218752D01*
%TO.C,C28*%
X93034752Y-90578000D02*
X92512248Y-90578000D01*
X93034752Y-92048000D02*
X92512248Y-92048000D01*
%TO.C,C27*%
X80701248Y-92429000D02*
X81223752Y-92429000D01*
X80701248Y-90959000D02*
X81223752Y-90959000D01*
%TO.C,C26*%
X83241248Y-85571000D02*
X83763752Y-85571000D01*
X83241248Y-84101000D02*
X83763752Y-84101000D01*
%TO.C,C25*%
X81096752Y-95277000D02*
X80574248Y-95277000D01*
X81096752Y-96747000D02*
X80574248Y-96747000D01*
%TO.C,C24*%
X95687248Y-98652000D02*
X96209752Y-98652000D01*
X95687248Y-97182000D02*
X96209752Y-97182000D01*
%TO.C,C23*%
X76637248Y-92556000D02*
X77159752Y-92556000D01*
X76637248Y-91086000D02*
X77159752Y-91086000D01*
%TO.C,C22*%
X53728252Y-99023500D02*
X53205748Y-99023500D01*
X53728252Y-100493500D02*
X53205748Y-100493500D01*
%TO.C,C21*%
X53186000Y-86811752D02*
X53186000Y-86289248D01*
X51716000Y-86811752D02*
X51716000Y-86289248D01*
%TO.C,C20*%
X55907000Y-83622248D02*
X55907000Y-84144752D01*
X57377000Y-83622248D02*
X57377000Y-84144752D01*
%TO.C,C19*%
X67810748Y-89698500D02*
X68333252Y-89698500D01*
X67810748Y-88228500D02*
X68333252Y-88228500D01*
%TO.C,C18*%
X65920252Y-85815500D02*
X65397748Y-85815500D01*
X65920252Y-87285500D02*
X65397748Y-87285500D01*
%TO.C,C17*%
X65632000Y-90494752D02*
X65632000Y-89972248D01*
X64162000Y-90494752D02*
X64162000Y-89972248D01*
%TO.C,C16*%
X68333252Y-90768500D02*
X67810748Y-90768500D01*
X68333252Y-92238500D02*
X67810748Y-92238500D01*
%TO.C,C15*%
X61856252Y-79465500D02*
X61333748Y-79465500D01*
X61856252Y-80935500D02*
X61333748Y-80935500D01*
%TO.C,C14*%
X53205748Y-102779500D02*
X53728252Y-102779500D01*
X53205748Y-101309500D02*
X53728252Y-101309500D01*
%TO.C,C12*%
X67698252Y-97753500D02*
X67175748Y-97753500D01*
X67698252Y-99223500D02*
X67175748Y-99223500D01*
%TO.C,C11*%
X70385000Y-92004248D02*
X70385000Y-92526752D01*
X71855000Y-92004248D02*
X71855000Y-92526752D01*
%TO.C,C10*%
X64997000Y-99384752D02*
X64997000Y-98862248D01*
X63527000Y-99384752D02*
X63527000Y-98862248D01*
%TO.C,C9*%
X59917000Y-101289752D02*
X59917000Y-100767248D01*
X58447000Y-101289752D02*
X58447000Y-100767248D01*
%TO.C,C8*%
X71347000Y-102559752D02*
X71347000Y-102037248D01*
X69877000Y-102559752D02*
X69877000Y-102037248D01*
%TO.C,U6*%
D13*
X87693404Y-89168380D02*
X87693404Y-89977904D01*
X87645785Y-90073142D01*
X87598166Y-90120761D01*
X87502928Y-90168380D01*
X87312452Y-90168380D01*
X87217214Y-90120761D01*
X87169595Y-90073142D01*
X87121976Y-89977904D01*
X87121976Y-89168380D01*
X86217214Y-89168380D02*
X86407690Y-89168380D01*
X86502928Y-89216000D01*
X86550547Y-89263619D01*
X86645785Y-89406476D01*
X86693404Y-89596952D01*
X86693404Y-89977904D01*
X86645785Y-90073142D01*
X86598166Y-90120761D01*
X86502928Y-90168380D01*
X86312452Y-90168380D01*
X86217214Y-90120761D01*
X86169595Y-90073142D01*
X86121976Y-89977904D01*
X86121976Y-89739809D01*
X86169595Y-89644571D01*
X86217214Y-89596952D01*
X86312452Y-89549333D01*
X86502928Y-89549333D01*
X86598166Y-89596952D01*
X86645785Y-89644571D01*
X86693404Y-89739809D01*
%TO.C,Y1*%
X101140190Y-67151309D02*
X101616380Y-67151309D01*
X100616380Y-66817976D02*
X101140190Y-67151309D01*
X100616380Y-67484642D01*
X101616380Y-68341785D02*
X101616380Y-67770357D01*
X101616380Y-68056071D02*
X100616380Y-68056071D01*
X100759238Y-67960833D01*
X100854476Y-67865595D01*
X100902095Y-67770357D01*
%TO.C,U14*%
X36925095Y-108056880D02*
X36925095Y-108866404D01*
X36877476Y-108961642D01*
X36829857Y-109009261D01*
X36734619Y-109056880D01*
X36544142Y-109056880D01*
X36448904Y-109009261D01*
X36401285Y-108961642D01*
X36353666Y-108866404D01*
X36353666Y-108056880D01*
X35353666Y-109056880D02*
X35925095Y-109056880D01*
X35639380Y-109056880D02*
X35639380Y-108056880D01*
X35734619Y-108199738D01*
X35829857Y-108294976D01*
X35925095Y-108342595D01*
X34496523Y-108390214D02*
X34496523Y-109056880D01*
X34734619Y-108009261D02*
X34972714Y-108723547D01*
X34353666Y-108723547D01*
%TO.C,U13*%
X54641595Y-109009380D02*
X54641595Y-109818904D01*
X54593976Y-109914142D01*
X54546357Y-109961761D01*
X54451119Y-110009380D01*
X54260642Y-110009380D01*
X54165404Y-109961761D01*
X54117785Y-109914142D01*
X54070166Y-109818904D01*
X54070166Y-109009380D01*
X53070166Y-110009380D02*
X53641595Y-110009380D01*
X53355880Y-110009380D02*
X53355880Y-109009380D01*
X53451119Y-109152238D01*
X53546357Y-109247476D01*
X53641595Y-109295095D01*
X52736833Y-109009380D02*
X52117785Y-109009380D01*
X52451119Y-109390333D01*
X52308261Y-109390333D01*
X52213023Y-109437952D01*
X52165404Y-109485571D01*
X52117785Y-109580809D01*
X52117785Y-109818904D01*
X52165404Y-109914142D01*
X52213023Y-109961761D01*
X52308261Y-110009380D01*
X52593976Y-110009380D01*
X52689214Y-109961761D01*
X52736833Y-109914142D01*
%TO.C,U11*%
X101822095Y-57027380D02*
X101822095Y-57836904D01*
X101774476Y-57932142D01*
X101726857Y-57979761D01*
X101631619Y-58027380D01*
X101441142Y-58027380D01*
X101345904Y-57979761D01*
X101298285Y-57932142D01*
X101250666Y-57836904D01*
X101250666Y-57027380D01*
X100250666Y-58027380D02*
X100822095Y-58027380D01*
X100536380Y-58027380D02*
X100536380Y-57027380D01*
X100631619Y-57170238D01*
X100726857Y-57265476D01*
X100822095Y-57313095D01*
X99298285Y-58027380D02*
X99869714Y-58027380D01*
X99584000Y-58027380D02*
X99584000Y-57027380D01*
X99679238Y-57170238D01*
X99774476Y-57265476D01*
X99869714Y-57313095D01*
%TO.C,U7*%
X62644380Y-93916595D02*
X63453904Y-93916595D01*
X63549142Y-93964214D01*
X63596761Y-94011833D01*
X63644380Y-94107071D01*
X63644380Y-94297547D01*
X63596761Y-94392785D01*
X63549142Y-94440404D01*
X63453904Y-94488023D01*
X62644380Y-94488023D01*
X62644380Y-94868976D02*
X62644380Y-95535642D01*
X63644380Y-95107071D01*
%TO.C,U5*%
X65404904Y-109136380D02*
X65404904Y-109945904D01*
X65357285Y-110041142D01*
X65309666Y-110088761D01*
X65214428Y-110136380D01*
X65023952Y-110136380D01*
X64928714Y-110088761D01*
X64881095Y-110041142D01*
X64833476Y-109945904D01*
X64833476Y-109136380D01*
X63881095Y-109136380D02*
X64357285Y-109136380D01*
X64404904Y-109612571D01*
X64357285Y-109564952D01*
X64262047Y-109517333D01*
X64023952Y-109517333D01*
X63928714Y-109564952D01*
X63881095Y-109612571D01*
X63833476Y-109707809D01*
X63833476Y-109945904D01*
X63881095Y-110041142D01*
X63928714Y-110088761D01*
X64023952Y-110136380D01*
X64262047Y-110136380D01*
X64357285Y-110088761D01*
X64404904Y-110041142D01*
%TO.C,U4*%
X107319380Y-38290595D02*
X108128904Y-38290595D01*
X108224142Y-38338214D01*
X108271761Y-38385833D01*
X108319380Y-38481071D01*
X108319380Y-38671547D01*
X108271761Y-38766785D01*
X108224142Y-38814404D01*
X108128904Y-38862023D01*
X107319380Y-38862023D01*
X107652714Y-39766785D02*
X108319380Y-39766785D01*
X107271761Y-39528690D02*
X107986047Y-39290595D01*
X107986047Y-39909642D01*
%TO.C,R107*%
X26963547Y-116149380D02*
X27296880Y-115673190D01*
X27534976Y-116149380D02*
X27534976Y-115149380D01*
X27154023Y-115149380D01*
X27058785Y-115197000D01*
X27011166Y-115244619D01*
X26963547Y-115339857D01*
X26963547Y-115482714D01*
X27011166Y-115577952D01*
X27058785Y-115625571D01*
X27154023Y-115673190D01*
X27534976Y-115673190D01*
X26011166Y-116149380D02*
X26582595Y-116149380D01*
X26296880Y-116149380D02*
X26296880Y-115149380D01*
X26392119Y-115292238D01*
X26487357Y-115387476D01*
X26582595Y-115435095D01*
X25392119Y-115149380D02*
X25296880Y-115149380D01*
X25201642Y-115197000D01*
X25154023Y-115244619D01*
X25106404Y-115339857D01*
X25058785Y-115530333D01*
X25058785Y-115768428D01*
X25106404Y-115958904D01*
X25154023Y-116054142D01*
X25201642Y-116101761D01*
X25296880Y-116149380D01*
X25392119Y-116149380D01*
X25487357Y-116101761D01*
X25534976Y-116054142D01*
X25582595Y-115958904D01*
X25630214Y-115768428D01*
X25630214Y-115530333D01*
X25582595Y-115339857D01*
X25534976Y-115244619D01*
X25487357Y-115197000D01*
X25392119Y-115149380D01*
X24725452Y-115149380D02*
X24058785Y-115149380D01*
X24487357Y-116149380D01*
%TO.C,R106*%
X28551047Y-109736880D02*
X28884380Y-109260690D01*
X29122476Y-109736880D02*
X29122476Y-108736880D01*
X28741523Y-108736880D01*
X28646285Y-108784500D01*
X28598666Y-108832119D01*
X28551047Y-108927357D01*
X28551047Y-109070214D01*
X28598666Y-109165452D01*
X28646285Y-109213071D01*
X28741523Y-109260690D01*
X29122476Y-109260690D01*
X27598666Y-109736880D02*
X28170095Y-109736880D01*
X27884380Y-109736880D02*
X27884380Y-108736880D01*
X27979619Y-108879738D01*
X28074857Y-108974976D01*
X28170095Y-109022595D01*
X26979619Y-108736880D02*
X26884380Y-108736880D01*
X26789142Y-108784500D01*
X26741523Y-108832119D01*
X26693904Y-108927357D01*
X26646285Y-109117833D01*
X26646285Y-109355928D01*
X26693904Y-109546404D01*
X26741523Y-109641642D01*
X26789142Y-109689261D01*
X26884380Y-109736880D01*
X26979619Y-109736880D01*
X27074857Y-109689261D01*
X27122476Y-109641642D01*
X27170095Y-109546404D01*
X27217714Y-109355928D01*
X27217714Y-109117833D01*
X27170095Y-108927357D01*
X27122476Y-108832119D01*
X27074857Y-108784500D01*
X26979619Y-108736880D01*
X25789142Y-108736880D02*
X25979619Y-108736880D01*
X26074857Y-108784500D01*
X26122476Y-108832119D01*
X26217714Y-108974976D01*
X26265333Y-109165452D01*
X26265333Y-109546404D01*
X26217714Y-109641642D01*
X26170095Y-109689261D01*
X26074857Y-109736880D01*
X25884380Y-109736880D01*
X25789142Y-109689261D01*
X25741523Y-109641642D01*
X25693904Y-109546404D01*
X25693904Y-109308309D01*
X25741523Y-109213071D01*
X25789142Y-109165452D01*
X25884380Y-109117833D01*
X26074857Y-109117833D01*
X26170095Y-109165452D01*
X26217714Y-109213071D01*
X26265333Y-109308309D01*
%TO.C,R105*%
X31345047Y-118815380D02*
X31678380Y-118339190D01*
X31916476Y-118815380D02*
X31916476Y-117815380D01*
X31535523Y-117815380D01*
X31440285Y-117863000D01*
X31392666Y-117910619D01*
X31345047Y-118005857D01*
X31345047Y-118148714D01*
X31392666Y-118243952D01*
X31440285Y-118291571D01*
X31535523Y-118339190D01*
X31916476Y-118339190D01*
X30392666Y-118815380D02*
X30964095Y-118815380D01*
X30678380Y-118815380D02*
X30678380Y-117815380D01*
X30773619Y-117958238D01*
X30868857Y-118053476D01*
X30964095Y-118101095D01*
X29773619Y-117815380D02*
X29678380Y-117815380D01*
X29583142Y-117863000D01*
X29535523Y-117910619D01*
X29487904Y-118005857D01*
X29440285Y-118196333D01*
X29440285Y-118434428D01*
X29487904Y-118624904D01*
X29535523Y-118720142D01*
X29583142Y-118767761D01*
X29678380Y-118815380D01*
X29773619Y-118815380D01*
X29868857Y-118767761D01*
X29916476Y-118720142D01*
X29964095Y-118624904D01*
X30011714Y-118434428D01*
X30011714Y-118196333D01*
X29964095Y-118005857D01*
X29916476Y-117910619D01*
X29868857Y-117863000D01*
X29773619Y-117815380D01*
X28535523Y-117815380D02*
X29011714Y-117815380D01*
X29059333Y-118291571D01*
X29011714Y-118243952D01*
X28916476Y-118196333D01*
X28678380Y-118196333D01*
X28583142Y-118243952D01*
X28535523Y-118291571D01*
X28487904Y-118386809D01*
X28487904Y-118624904D01*
X28535523Y-118720142D01*
X28583142Y-118767761D01*
X28678380Y-118815380D01*
X28916476Y-118815380D01*
X29011714Y-118767761D01*
X29059333Y-118720142D01*
%TO.C,R104*%
X30106880Y-106767452D02*
X29630690Y-106434119D01*
X30106880Y-106196023D02*
X29106880Y-106196023D01*
X29106880Y-106576976D01*
X29154500Y-106672214D01*
X29202119Y-106719833D01*
X29297357Y-106767452D01*
X29440214Y-106767452D01*
X29535452Y-106719833D01*
X29583071Y-106672214D01*
X29630690Y-106576976D01*
X29630690Y-106196023D01*
X30106880Y-107719833D02*
X30106880Y-107148404D01*
X30106880Y-107434119D02*
X29106880Y-107434119D01*
X29249738Y-107338880D01*
X29344976Y-107243642D01*
X29392595Y-107148404D01*
X29106880Y-108338880D02*
X29106880Y-108434119D01*
X29154500Y-108529357D01*
X29202119Y-108576976D01*
X29297357Y-108624595D01*
X29487833Y-108672214D01*
X29725928Y-108672214D01*
X29916404Y-108624595D01*
X30011642Y-108576976D01*
X30059261Y-108529357D01*
X30106880Y-108434119D01*
X30106880Y-108338880D01*
X30059261Y-108243642D01*
X30011642Y-108196023D01*
X29916404Y-108148404D01*
X29725928Y-108100785D01*
X29487833Y-108100785D01*
X29297357Y-108148404D01*
X29202119Y-108196023D01*
X29154500Y-108243642D01*
X29106880Y-108338880D01*
X29440214Y-109529357D02*
X30106880Y-109529357D01*
X29059261Y-109291261D02*
X29773547Y-109053166D01*
X29773547Y-109672214D01*
%TO.C,R103*%
X39854047Y-118624880D02*
X40187380Y-118148690D01*
X40425476Y-118624880D02*
X40425476Y-117624880D01*
X40044523Y-117624880D01*
X39949285Y-117672500D01*
X39901666Y-117720119D01*
X39854047Y-117815357D01*
X39854047Y-117958214D01*
X39901666Y-118053452D01*
X39949285Y-118101071D01*
X40044523Y-118148690D01*
X40425476Y-118148690D01*
X38901666Y-118624880D02*
X39473095Y-118624880D01*
X39187380Y-118624880D02*
X39187380Y-117624880D01*
X39282619Y-117767738D01*
X39377857Y-117862976D01*
X39473095Y-117910595D01*
X38282619Y-117624880D02*
X38187380Y-117624880D01*
X38092142Y-117672500D01*
X38044523Y-117720119D01*
X37996904Y-117815357D01*
X37949285Y-118005833D01*
X37949285Y-118243928D01*
X37996904Y-118434404D01*
X38044523Y-118529642D01*
X38092142Y-118577261D01*
X38187380Y-118624880D01*
X38282619Y-118624880D01*
X38377857Y-118577261D01*
X38425476Y-118529642D01*
X38473095Y-118434404D01*
X38520714Y-118243928D01*
X38520714Y-118005833D01*
X38473095Y-117815357D01*
X38425476Y-117720119D01*
X38377857Y-117672500D01*
X38282619Y-117624880D01*
X37615952Y-117624880D02*
X36996904Y-117624880D01*
X37330238Y-118005833D01*
X37187380Y-118005833D01*
X37092142Y-118053452D01*
X37044523Y-118101071D01*
X36996904Y-118196309D01*
X36996904Y-118434404D01*
X37044523Y-118529642D01*
X37092142Y-118577261D01*
X37187380Y-118624880D01*
X37473095Y-118624880D01*
X37568333Y-118577261D01*
X37615952Y-118529642D01*
%TO.C,R102*%
X56046547Y-66238380D02*
X56379880Y-65762190D01*
X56617976Y-66238380D02*
X56617976Y-65238380D01*
X56237023Y-65238380D01*
X56141785Y-65286000D01*
X56094166Y-65333619D01*
X56046547Y-65428857D01*
X56046547Y-65571714D01*
X56094166Y-65666952D01*
X56141785Y-65714571D01*
X56237023Y-65762190D01*
X56617976Y-65762190D01*
X55094166Y-66238380D02*
X55665595Y-66238380D01*
X55379880Y-66238380D02*
X55379880Y-65238380D01*
X55475119Y-65381238D01*
X55570357Y-65476476D01*
X55665595Y-65524095D01*
X54475119Y-65238380D02*
X54379880Y-65238380D01*
X54284642Y-65286000D01*
X54237023Y-65333619D01*
X54189404Y-65428857D01*
X54141785Y-65619333D01*
X54141785Y-65857428D01*
X54189404Y-66047904D01*
X54237023Y-66143142D01*
X54284642Y-66190761D01*
X54379880Y-66238380D01*
X54475119Y-66238380D01*
X54570357Y-66190761D01*
X54617976Y-66143142D01*
X54665595Y-66047904D01*
X54713214Y-65857428D01*
X54713214Y-65619333D01*
X54665595Y-65428857D01*
X54617976Y-65333619D01*
X54570357Y-65286000D01*
X54475119Y-65238380D01*
X53760833Y-65333619D02*
X53713214Y-65286000D01*
X53617976Y-65238380D01*
X53379880Y-65238380D01*
X53284642Y-65286000D01*
X53237023Y-65333619D01*
X53189404Y-65428857D01*
X53189404Y-65524095D01*
X53237023Y-65666952D01*
X53808452Y-66238380D01*
X53189404Y-66238380D01*
%TO.C,R101*%
X54808380Y-49299952D02*
X54332190Y-48966619D01*
X54808380Y-48728523D02*
X53808380Y-48728523D01*
X53808380Y-49109476D01*
X53856000Y-49204714D01*
X53903619Y-49252333D01*
X53998857Y-49299952D01*
X54141714Y-49299952D01*
X54236952Y-49252333D01*
X54284571Y-49204714D01*
X54332190Y-49109476D01*
X54332190Y-48728523D01*
X54808380Y-50252333D02*
X54808380Y-49680904D01*
X54808380Y-49966619D02*
X53808380Y-49966619D01*
X53951238Y-49871380D01*
X54046476Y-49776142D01*
X54094095Y-49680904D01*
X53808380Y-50871380D02*
X53808380Y-50966619D01*
X53856000Y-51061857D01*
X53903619Y-51109476D01*
X53998857Y-51157095D01*
X54189333Y-51204714D01*
X54427428Y-51204714D01*
X54617904Y-51157095D01*
X54713142Y-51109476D01*
X54760761Y-51061857D01*
X54808380Y-50966619D01*
X54808380Y-50871380D01*
X54760761Y-50776142D01*
X54713142Y-50728523D01*
X54617904Y-50680904D01*
X54427428Y-50633285D01*
X54189333Y-50633285D01*
X53998857Y-50680904D01*
X53903619Y-50728523D01*
X53856000Y-50776142D01*
X53808380Y-50871380D01*
X54808380Y-52157095D02*
X54808380Y-51585666D01*
X54808380Y-51871380D02*
X53808380Y-51871380D01*
X53951238Y-51776142D01*
X54046476Y-51680904D01*
X54094095Y-51585666D01*
%TO.C,R100*%
X59443880Y-53617952D02*
X58967690Y-53284619D01*
X59443880Y-53046523D02*
X58443880Y-53046523D01*
X58443880Y-53427476D01*
X58491500Y-53522714D01*
X58539119Y-53570333D01*
X58634357Y-53617952D01*
X58777214Y-53617952D01*
X58872452Y-53570333D01*
X58920071Y-53522714D01*
X58967690Y-53427476D01*
X58967690Y-53046523D01*
X59443880Y-54570333D02*
X59443880Y-53998904D01*
X59443880Y-54284619D02*
X58443880Y-54284619D01*
X58586738Y-54189380D01*
X58681976Y-54094142D01*
X58729595Y-53998904D01*
X58443880Y-55189380D02*
X58443880Y-55284619D01*
X58491500Y-55379857D01*
X58539119Y-55427476D01*
X58634357Y-55475095D01*
X58824833Y-55522714D01*
X59062928Y-55522714D01*
X59253404Y-55475095D01*
X59348642Y-55427476D01*
X59396261Y-55379857D01*
X59443880Y-55284619D01*
X59443880Y-55189380D01*
X59396261Y-55094142D01*
X59348642Y-55046523D01*
X59253404Y-54998904D01*
X59062928Y-54951285D01*
X58824833Y-54951285D01*
X58634357Y-54998904D01*
X58539119Y-55046523D01*
X58491500Y-55094142D01*
X58443880Y-55189380D01*
X58443880Y-56141761D02*
X58443880Y-56237000D01*
X58491500Y-56332238D01*
X58539119Y-56379857D01*
X58634357Y-56427476D01*
X58824833Y-56475095D01*
X59062928Y-56475095D01*
X59253404Y-56427476D01*
X59348642Y-56379857D01*
X59396261Y-56332238D01*
X59443880Y-56237000D01*
X59443880Y-56141761D01*
X59396261Y-56046523D01*
X59348642Y-55998904D01*
X59253404Y-55951285D01*
X59062928Y-55903666D01*
X58824833Y-55903666D01*
X58634357Y-55951285D01*
X58539119Y-55998904D01*
X58491500Y-56046523D01*
X58443880Y-56141761D01*
%TO.C,R99*%
X63316380Y-49776142D02*
X62840190Y-49442809D01*
X63316380Y-49204714D02*
X62316380Y-49204714D01*
X62316380Y-49585666D01*
X62364000Y-49680904D01*
X62411619Y-49728523D01*
X62506857Y-49776142D01*
X62649714Y-49776142D01*
X62744952Y-49728523D01*
X62792571Y-49680904D01*
X62840190Y-49585666D01*
X62840190Y-49204714D01*
X63316380Y-50252333D02*
X63316380Y-50442809D01*
X63268761Y-50538047D01*
X63221142Y-50585666D01*
X63078285Y-50680904D01*
X62887809Y-50728523D01*
X62506857Y-50728523D01*
X62411619Y-50680904D01*
X62364000Y-50633285D01*
X62316380Y-50538047D01*
X62316380Y-50347571D01*
X62364000Y-50252333D01*
X62411619Y-50204714D01*
X62506857Y-50157095D01*
X62744952Y-50157095D01*
X62840190Y-50204714D01*
X62887809Y-50252333D01*
X62935428Y-50347571D01*
X62935428Y-50538047D01*
X62887809Y-50633285D01*
X62840190Y-50680904D01*
X62744952Y-50728523D01*
X63316380Y-51204714D02*
X63316380Y-51395190D01*
X63268761Y-51490428D01*
X63221142Y-51538047D01*
X63078285Y-51633285D01*
X62887809Y-51680904D01*
X62506857Y-51680904D01*
X62411619Y-51633285D01*
X62364000Y-51585666D01*
X62316380Y-51490428D01*
X62316380Y-51299952D01*
X62364000Y-51204714D01*
X62411619Y-51157095D01*
X62506857Y-51109476D01*
X62744952Y-51109476D01*
X62840190Y-51157095D01*
X62887809Y-51204714D01*
X62935428Y-51299952D01*
X62935428Y-51490428D01*
X62887809Y-51585666D01*
X62840190Y-51633285D01*
X62744952Y-51680904D01*
%TO.C,R98*%
X46299357Y-113356380D02*
X46632690Y-112880190D01*
X46870785Y-113356380D02*
X46870785Y-112356380D01*
X46489833Y-112356380D01*
X46394595Y-112404000D01*
X46346976Y-112451619D01*
X46299357Y-112546857D01*
X46299357Y-112689714D01*
X46346976Y-112784952D01*
X46394595Y-112832571D01*
X46489833Y-112880190D01*
X46870785Y-112880190D01*
X45823166Y-113356380D02*
X45632690Y-113356380D01*
X45537452Y-113308761D01*
X45489833Y-113261142D01*
X45394595Y-113118285D01*
X45346976Y-112927809D01*
X45346976Y-112546857D01*
X45394595Y-112451619D01*
X45442214Y-112404000D01*
X45537452Y-112356380D01*
X45727928Y-112356380D01*
X45823166Y-112404000D01*
X45870785Y-112451619D01*
X45918404Y-112546857D01*
X45918404Y-112784952D01*
X45870785Y-112880190D01*
X45823166Y-112927809D01*
X45727928Y-112975428D01*
X45537452Y-112975428D01*
X45442214Y-112927809D01*
X45394595Y-112880190D01*
X45346976Y-112784952D01*
X44775547Y-112784952D02*
X44870785Y-112737333D01*
X44918404Y-112689714D01*
X44966023Y-112594476D01*
X44966023Y-112546857D01*
X44918404Y-112451619D01*
X44870785Y-112404000D01*
X44775547Y-112356380D01*
X44585071Y-112356380D01*
X44489833Y-112404000D01*
X44442214Y-112451619D01*
X44394595Y-112546857D01*
X44394595Y-112594476D01*
X44442214Y-112689714D01*
X44489833Y-112737333D01*
X44585071Y-112784952D01*
X44775547Y-112784952D01*
X44870785Y-112832571D01*
X44918404Y-112880190D01*
X44966023Y-112975428D01*
X44966023Y-113165904D01*
X44918404Y-113261142D01*
X44870785Y-113308761D01*
X44775547Y-113356380D01*
X44585071Y-113356380D01*
X44489833Y-113308761D01*
X44442214Y-113261142D01*
X44394595Y-113165904D01*
X44394595Y-112975428D01*
X44442214Y-112880190D01*
X44489833Y-112832571D01*
X44585071Y-112784952D01*
%TO.C,R97*%
X42933857Y-112339380D02*
X43267190Y-111863190D01*
X43505285Y-112339380D02*
X43505285Y-111339380D01*
X43124333Y-111339380D01*
X43029095Y-111387000D01*
X42981476Y-111434619D01*
X42933857Y-111529857D01*
X42933857Y-111672714D01*
X42981476Y-111767952D01*
X43029095Y-111815571D01*
X43124333Y-111863190D01*
X43505285Y-111863190D01*
X42457666Y-112339380D02*
X42267190Y-112339380D01*
X42171952Y-112291761D01*
X42124333Y-112244142D01*
X42029095Y-112101285D01*
X41981476Y-111910809D01*
X41981476Y-111529857D01*
X42029095Y-111434619D01*
X42076714Y-111387000D01*
X42171952Y-111339380D01*
X42362428Y-111339380D01*
X42457666Y-111387000D01*
X42505285Y-111434619D01*
X42552904Y-111529857D01*
X42552904Y-111767952D01*
X42505285Y-111863190D01*
X42457666Y-111910809D01*
X42362428Y-111958428D01*
X42171952Y-111958428D01*
X42076714Y-111910809D01*
X42029095Y-111863190D01*
X41981476Y-111767952D01*
X41648142Y-111339380D02*
X40981476Y-111339380D01*
X41410047Y-112339380D01*
%TO.C,R96*%
X49093357Y-119259880D02*
X49426690Y-118783690D01*
X49664785Y-119259880D02*
X49664785Y-118259880D01*
X49283833Y-118259880D01*
X49188595Y-118307500D01*
X49140976Y-118355119D01*
X49093357Y-118450357D01*
X49093357Y-118593214D01*
X49140976Y-118688452D01*
X49188595Y-118736071D01*
X49283833Y-118783690D01*
X49664785Y-118783690D01*
X48617166Y-119259880D02*
X48426690Y-119259880D01*
X48331452Y-119212261D01*
X48283833Y-119164642D01*
X48188595Y-119021785D01*
X48140976Y-118831309D01*
X48140976Y-118450357D01*
X48188595Y-118355119D01*
X48236214Y-118307500D01*
X48331452Y-118259880D01*
X48521928Y-118259880D01*
X48617166Y-118307500D01*
X48664785Y-118355119D01*
X48712404Y-118450357D01*
X48712404Y-118688452D01*
X48664785Y-118783690D01*
X48617166Y-118831309D01*
X48521928Y-118878928D01*
X48331452Y-118878928D01*
X48236214Y-118831309D01*
X48188595Y-118783690D01*
X48140976Y-118688452D01*
X47283833Y-118259880D02*
X47474309Y-118259880D01*
X47569547Y-118307500D01*
X47617166Y-118355119D01*
X47712404Y-118497976D01*
X47760023Y-118688452D01*
X47760023Y-119069404D01*
X47712404Y-119164642D01*
X47664785Y-119212261D01*
X47569547Y-119259880D01*
X47379071Y-119259880D01*
X47283833Y-119212261D01*
X47236214Y-119164642D01*
X47188595Y-119069404D01*
X47188595Y-118831309D01*
X47236214Y-118736071D01*
X47283833Y-118688452D01*
X47379071Y-118640833D01*
X47569547Y-118640833D01*
X47664785Y-118688452D01*
X47712404Y-118736071D01*
X47760023Y-118831309D01*
%TO.C,R95*%
X44710880Y-107815142D02*
X44234690Y-107481809D01*
X44710880Y-107243714D02*
X43710880Y-107243714D01*
X43710880Y-107624666D01*
X43758500Y-107719904D01*
X43806119Y-107767523D01*
X43901357Y-107815142D01*
X44044214Y-107815142D01*
X44139452Y-107767523D01*
X44187071Y-107719904D01*
X44234690Y-107624666D01*
X44234690Y-107243714D01*
X44710880Y-108291333D02*
X44710880Y-108481809D01*
X44663261Y-108577047D01*
X44615642Y-108624666D01*
X44472785Y-108719904D01*
X44282309Y-108767523D01*
X43901357Y-108767523D01*
X43806119Y-108719904D01*
X43758500Y-108672285D01*
X43710880Y-108577047D01*
X43710880Y-108386571D01*
X43758500Y-108291333D01*
X43806119Y-108243714D01*
X43901357Y-108196095D01*
X44139452Y-108196095D01*
X44234690Y-108243714D01*
X44282309Y-108291333D01*
X44329928Y-108386571D01*
X44329928Y-108577047D01*
X44282309Y-108672285D01*
X44234690Y-108719904D01*
X44139452Y-108767523D01*
X43710880Y-109672285D02*
X43710880Y-109196095D01*
X44187071Y-109148476D01*
X44139452Y-109196095D01*
X44091833Y-109291333D01*
X44091833Y-109529428D01*
X44139452Y-109624666D01*
X44187071Y-109672285D01*
X44282309Y-109719904D01*
X44520404Y-109719904D01*
X44615642Y-109672285D01*
X44663261Y-109624666D01*
X44710880Y-109529428D01*
X44710880Y-109291333D01*
X44663261Y-109196095D01*
X44615642Y-109148476D01*
%TO.C,R94*%
X56840357Y-119386880D02*
X57173690Y-118910690D01*
X57411785Y-119386880D02*
X57411785Y-118386880D01*
X57030833Y-118386880D01*
X56935595Y-118434500D01*
X56887976Y-118482119D01*
X56840357Y-118577357D01*
X56840357Y-118720214D01*
X56887976Y-118815452D01*
X56935595Y-118863071D01*
X57030833Y-118910690D01*
X57411785Y-118910690D01*
X56364166Y-119386880D02*
X56173690Y-119386880D01*
X56078452Y-119339261D01*
X56030833Y-119291642D01*
X55935595Y-119148785D01*
X55887976Y-118958309D01*
X55887976Y-118577357D01*
X55935595Y-118482119D01*
X55983214Y-118434500D01*
X56078452Y-118386880D01*
X56268928Y-118386880D01*
X56364166Y-118434500D01*
X56411785Y-118482119D01*
X56459404Y-118577357D01*
X56459404Y-118815452D01*
X56411785Y-118910690D01*
X56364166Y-118958309D01*
X56268928Y-119005928D01*
X56078452Y-119005928D01*
X55983214Y-118958309D01*
X55935595Y-118910690D01*
X55887976Y-118815452D01*
X55030833Y-118720214D02*
X55030833Y-119386880D01*
X55268928Y-118339261D02*
X55507023Y-119053547D01*
X54887976Y-119053547D01*
%TO.C,R88*%
X101671357Y-50363380D02*
X102004690Y-49887190D01*
X102242785Y-50363380D02*
X102242785Y-49363380D01*
X101861833Y-49363380D01*
X101766595Y-49411000D01*
X101718976Y-49458619D01*
X101671357Y-49553857D01*
X101671357Y-49696714D01*
X101718976Y-49791952D01*
X101766595Y-49839571D01*
X101861833Y-49887190D01*
X102242785Y-49887190D01*
X101099928Y-49791952D02*
X101195166Y-49744333D01*
X101242785Y-49696714D01*
X101290404Y-49601476D01*
X101290404Y-49553857D01*
X101242785Y-49458619D01*
X101195166Y-49411000D01*
X101099928Y-49363380D01*
X100909452Y-49363380D01*
X100814214Y-49411000D01*
X100766595Y-49458619D01*
X100718976Y-49553857D01*
X100718976Y-49601476D01*
X100766595Y-49696714D01*
X100814214Y-49744333D01*
X100909452Y-49791952D01*
X101099928Y-49791952D01*
X101195166Y-49839571D01*
X101242785Y-49887190D01*
X101290404Y-49982428D01*
X101290404Y-50172904D01*
X101242785Y-50268142D01*
X101195166Y-50315761D01*
X101099928Y-50363380D01*
X100909452Y-50363380D01*
X100814214Y-50315761D01*
X100766595Y-50268142D01*
X100718976Y-50172904D01*
X100718976Y-49982428D01*
X100766595Y-49887190D01*
X100814214Y-49839571D01*
X100909452Y-49791952D01*
X100147547Y-49791952D02*
X100242785Y-49744333D01*
X100290404Y-49696714D01*
X100338023Y-49601476D01*
X100338023Y-49553857D01*
X100290404Y-49458619D01*
X100242785Y-49411000D01*
X100147547Y-49363380D01*
X99957071Y-49363380D01*
X99861833Y-49411000D01*
X99814214Y-49458619D01*
X99766595Y-49553857D01*
X99766595Y-49601476D01*
X99814214Y-49696714D01*
X99861833Y-49744333D01*
X99957071Y-49791952D01*
X100147547Y-49791952D01*
X100242785Y-49839571D01*
X100290404Y-49887190D01*
X100338023Y-49982428D01*
X100338023Y-50172904D01*
X100290404Y-50268142D01*
X100242785Y-50315761D01*
X100147547Y-50363380D01*
X99957071Y-50363380D01*
X99861833Y-50315761D01*
X99814214Y-50268142D01*
X99766595Y-50172904D01*
X99766595Y-49982428D01*
X99814214Y-49887190D01*
X99861833Y-49839571D01*
X99957071Y-49791952D01*
%TO.C,R87*%
X90622357Y-57475380D02*
X90955690Y-56999190D01*
X91193785Y-57475380D02*
X91193785Y-56475380D01*
X90812833Y-56475380D01*
X90717595Y-56523000D01*
X90669976Y-56570619D01*
X90622357Y-56665857D01*
X90622357Y-56808714D01*
X90669976Y-56903952D01*
X90717595Y-56951571D01*
X90812833Y-56999190D01*
X91193785Y-56999190D01*
X90050928Y-56903952D02*
X90146166Y-56856333D01*
X90193785Y-56808714D01*
X90241404Y-56713476D01*
X90241404Y-56665857D01*
X90193785Y-56570619D01*
X90146166Y-56523000D01*
X90050928Y-56475380D01*
X89860452Y-56475380D01*
X89765214Y-56523000D01*
X89717595Y-56570619D01*
X89669976Y-56665857D01*
X89669976Y-56713476D01*
X89717595Y-56808714D01*
X89765214Y-56856333D01*
X89860452Y-56903952D01*
X90050928Y-56903952D01*
X90146166Y-56951571D01*
X90193785Y-56999190D01*
X90241404Y-57094428D01*
X90241404Y-57284904D01*
X90193785Y-57380142D01*
X90146166Y-57427761D01*
X90050928Y-57475380D01*
X89860452Y-57475380D01*
X89765214Y-57427761D01*
X89717595Y-57380142D01*
X89669976Y-57284904D01*
X89669976Y-57094428D01*
X89717595Y-56999190D01*
X89765214Y-56951571D01*
X89860452Y-56903952D01*
X89336642Y-56475380D02*
X88669976Y-56475380D01*
X89098547Y-57475380D01*
%TO.C,R86*%
X90431857Y-53030380D02*
X90765190Y-52554190D01*
X91003285Y-53030380D02*
X91003285Y-52030380D01*
X90622333Y-52030380D01*
X90527095Y-52078000D01*
X90479476Y-52125619D01*
X90431857Y-52220857D01*
X90431857Y-52363714D01*
X90479476Y-52458952D01*
X90527095Y-52506571D01*
X90622333Y-52554190D01*
X91003285Y-52554190D01*
X89860428Y-52458952D02*
X89955666Y-52411333D01*
X90003285Y-52363714D01*
X90050904Y-52268476D01*
X90050904Y-52220857D01*
X90003285Y-52125619D01*
X89955666Y-52078000D01*
X89860428Y-52030380D01*
X89669952Y-52030380D01*
X89574714Y-52078000D01*
X89527095Y-52125619D01*
X89479476Y-52220857D01*
X89479476Y-52268476D01*
X89527095Y-52363714D01*
X89574714Y-52411333D01*
X89669952Y-52458952D01*
X89860428Y-52458952D01*
X89955666Y-52506571D01*
X90003285Y-52554190D01*
X90050904Y-52649428D01*
X90050904Y-52839904D01*
X90003285Y-52935142D01*
X89955666Y-52982761D01*
X89860428Y-53030380D01*
X89669952Y-53030380D01*
X89574714Y-52982761D01*
X89527095Y-52935142D01*
X89479476Y-52839904D01*
X89479476Y-52649428D01*
X89527095Y-52554190D01*
X89574714Y-52506571D01*
X89669952Y-52458952D01*
X88622333Y-52030380D02*
X88812809Y-52030380D01*
X88908047Y-52078000D01*
X88955666Y-52125619D01*
X89050904Y-52268476D01*
X89098523Y-52458952D01*
X89098523Y-52839904D01*
X89050904Y-52935142D01*
X89003285Y-52982761D01*
X88908047Y-53030380D01*
X88717571Y-53030380D01*
X88622333Y-52982761D01*
X88574714Y-52935142D01*
X88527095Y-52839904D01*
X88527095Y-52601809D01*
X88574714Y-52506571D01*
X88622333Y-52458952D01*
X88717571Y-52411333D01*
X88908047Y-52411333D01*
X89003285Y-52458952D01*
X89050904Y-52506571D01*
X89098523Y-52601809D01*
%TO.C,R85*%
X90558857Y-55506880D02*
X90892190Y-55030690D01*
X91130285Y-55506880D02*
X91130285Y-54506880D01*
X90749333Y-54506880D01*
X90654095Y-54554500D01*
X90606476Y-54602119D01*
X90558857Y-54697357D01*
X90558857Y-54840214D01*
X90606476Y-54935452D01*
X90654095Y-54983071D01*
X90749333Y-55030690D01*
X91130285Y-55030690D01*
X89987428Y-54935452D02*
X90082666Y-54887833D01*
X90130285Y-54840214D01*
X90177904Y-54744976D01*
X90177904Y-54697357D01*
X90130285Y-54602119D01*
X90082666Y-54554500D01*
X89987428Y-54506880D01*
X89796952Y-54506880D01*
X89701714Y-54554500D01*
X89654095Y-54602119D01*
X89606476Y-54697357D01*
X89606476Y-54744976D01*
X89654095Y-54840214D01*
X89701714Y-54887833D01*
X89796952Y-54935452D01*
X89987428Y-54935452D01*
X90082666Y-54983071D01*
X90130285Y-55030690D01*
X90177904Y-55125928D01*
X90177904Y-55316404D01*
X90130285Y-55411642D01*
X90082666Y-55459261D01*
X89987428Y-55506880D01*
X89796952Y-55506880D01*
X89701714Y-55459261D01*
X89654095Y-55411642D01*
X89606476Y-55316404D01*
X89606476Y-55125928D01*
X89654095Y-55030690D01*
X89701714Y-54983071D01*
X89796952Y-54935452D01*
X88701714Y-54506880D02*
X89177904Y-54506880D01*
X89225523Y-54983071D01*
X89177904Y-54935452D01*
X89082666Y-54887833D01*
X88844571Y-54887833D01*
X88749333Y-54935452D01*
X88701714Y-54983071D01*
X88654095Y-55078309D01*
X88654095Y-55316404D01*
X88701714Y-55411642D01*
X88749333Y-55459261D01*
X88844571Y-55506880D01*
X89082666Y-55506880D01*
X89177904Y-55459261D01*
X89225523Y-55411642D01*
%TO.C,R80*%
X99068880Y-41584642D02*
X98592690Y-41251309D01*
X99068880Y-41013214D02*
X98068880Y-41013214D01*
X98068880Y-41394166D01*
X98116500Y-41489404D01*
X98164119Y-41537023D01*
X98259357Y-41584642D01*
X98402214Y-41584642D01*
X98497452Y-41537023D01*
X98545071Y-41489404D01*
X98592690Y-41394166D01*
X98592690Y-41013214D01*
X98497452Y-42156071D02*
X98449833Y-42060833D01*
X98402214Y-42013214D01*
X98306976Y-41965595D01*
X98259357Y-41965595D01*
X98164119Y-42013214D01*
X98116500Y-42060833D01*
X98068880Y-42156071D01*
X98068880Y-42346547D01*
X98116500Y-42441785D01*
X98164119Y-42489404D01*
X98259357Y-42537023D01*
X98306976Y-42537023D01*
X98402214Y-42489404D01*
X98449833Y-42441785D01*
X98497452Y-42346547D01*
X98497452Y-42156071D01*
X98545071Y-42060833D01*
X98592690Y-42013214D01*
X98687928Y-41965595D01*
X98878404Y-41965595D01*
X98973642Y-42013214D01*
X99021261Y-42060833D01*
X99068880Y-42156071D01*
X99068880Y-42346547D01*
X99021261Y-42441785D01*
X98973642Y-42489404D01*
X98878404Y-42537023D01*
X98687928Y-42537023D01*
X98592690Y-42489404D01*
X98545071Y-42441785D01*
X98497452Y-42346547D01*
X98068880Y-43156071D02*
X98068880Y-43251309D01*
X98116500Y-43346547D01*
X98164119Y-43394166D01*
X98259357Y-43441785D01*
X98449833Y-43489404D01*
X98687928Y-43489404D01*
X98878404Y-43441785D01*
X98973642Y-43394166D01*
X99021261Y-43346547D01*
X99068880Y-43251309D01*
X99068880Y-43156071D01*
X99021261Y-43060833D01*
X98973642Y-43013214D01*
X98878404Y-42965595D01*
X98687928Y-42917976D01*
X98449833Y-42917976D01*
X98259357Y-42965595D01*
X98164119Y-43013214D01*
X98116500Y-43060833D01*
X98068880Y-43156071D01*
%TO.C,R79*%
X108338880Y-46728142D02*
X107862690Y-46394809D01*
X108338880Y-46156714D02*
X107338880Y-46156714D01*
X107338880Y-46537666D01*
X107386500Y-46632904D01*
X107434119Y-46680523D01*
X107529357Y-46728142D01*
X107672214Y-46728142D01*
X107767452Y-46680523D01*
X107815071Y-46632904D01*
X107862690Y-46537666D01*
X107862690Y-46156714D01*
X107338880Y-47061476D02*
X107338880Y-47728142D01*
X108338880Y-47299571D01*
X108338880Y-48156714D02*
X108338880Y-48347190D01*
X108291261Y-48442428D01*
X108243642Y-48490047D01*
X108100785Y-48585285D01*
X107910309Y-48632904D01*
X107529357Y-48632904D01*
X107434119Y-48585285D01*
X107386500Y-48537666D01*
X107338880Y-48442428D01*
X107338880Y-48251952D01*
X107386500Y-48156714D01*
X107434119Y-48109095D01*
X107529357Y-48061476D01*
X107767452Y-48061476D01*
X107862690Y-48109095D01*
X107910309Y-48156714D01*
X107957928Y-48251952D01*
X107957928Y-48442428D01*
X107910309Y-48537666D01*
X107862690Y-48585285D01*
X107767452Y-48632904D01*
%TO.C,R76*%
X101862880Y-46220142D02*
X101386690Y-45886809D01*
X101862880Y-45648714D02*
X100862880Y-45648714D01*
X100862880Y-46029666D01*
X100910500Y-46124904D01*
X100958119Y-46172523D01*
X101053357Y-46220142D01*
X101196214Y-46220142D01*
X101291452Y-46172523D01*
X101339071Y-46124904D01*
X101386690Y-46029666D01*
X101386690Y-45648714D01*
X100862880Y-46553476D02*
X100862880Y-47220142D01*
X101862880Y-46791571D01*
X100862880Y-48029666D02*
X100862880Y-47839190D01*
X100910500Y-47743952D01*
X100958119Y-47696333D01*
X101100976Y-47601095D01*
X101291452Y-47553476D01*
X101672404Y-47553476D01*
X101767642Y-47601095D01*
X101815261Y-47648714D01*
X101862880Y-47743952D01*
X101862880Y-47934428D01*
X101815261Y-48029666D01*
X101767642Y-48077285D01*
X101672404Y-48124904D01*
X101434309Y-48124904D01*
X101339071Y-48077285D01*
X101291452Y-48029666D01*
X101243833Y-47934428D01*
X101243833Y-47743952D01*
X101291452Y-47648714D01*
X101339071Y-47601095D01*
X101434309Y-47553476D01*
%TO.C,R75*%
X106243357Y-50045880D02*
X106576690Y-49569690D01*
X106814785Y-50045880D02*
X106814785Y-49045880D01*
X106433833Y-49045880D01*
X106338595Y-49093500D01*
X106290976Y-49141119D01*
X106243357Y-49236357D01*
X106243357Y-49379214D01*
X106290976Y-49474452D01*
X106338595Y-49522071D01*
X106433833Y-49569690D01*
X106814785Y-49569690D01*
X105910023Y-49045880D02*
X105243357Y-49045880D01*
X105671928Y-50045880D01*
X104386214Y-49045880D02*
X104862404Y-49045880D01*
X104910023Y-49522071D01*
X104862404Y-49474452D01*
X104767166Y-49426833D01*
X104529071Y-49426833D01*
X104433833Y-49474452D01*
X104386214Y-49522071D01*
X104338595Y-49617309D01*
X104338595Y-49855404D01*
X104386214Y-49950642D01*
X104433833Y-49998261D01*
X104529071Y-50045880D01*
X104767166Y-50045880D01*
X104862404Y-49998261D01*
X104910023Y-49950642D01*
%TO.C,R74*%
X65095357Y-117355880D02*
X65428690Y-116879690D01*
X65666785Y-117355880D02*
X65666785Y-116355880D01*
X65285833Y-116355880D01*
X65190595Y-116403500D01*
X65142976Y-116451119D01*
X65095357Y-116546357D01*
X65095357Y-116689214D01*
X65142976Y-116784452D01*
X65190595Y-116832071D01*
X65285833Y-116879690D01*
X65666785Y-116879690D01*
X64762023Y-116355880D02*
X64095357Y-116355880D01*
X64523928Y-117355880D01*
X63285833Y-116689214D02*
X63285833Y-117355880D01*
X63523928Y-116308261D02*
X63762023Y-117022547D01*
X63142976Y-117022547D01*
%TO.C,R73*%
X65031857Y-118562380D02*
X65365190Y-118086190D01*
X65603285Y-118562380D02*
X65603285Y-117562380D01*
X65222333Y-117562380D01*
X65127095Y-117610000D01*
X65079476Y-117657619D01*
X65031857Y-117752857D01*
X65031857Y-117895714D01*
X65079476Y-117990952D01*
X65127095Y-118038571D01*
X65222333Y-118086190D01*
X65603285Y-118086190D01*
X64698523Y-117562380D02*
X64031857Y-117562380D01*
X64460428Y-118562380D01*
X63746142Y-117562380D02*
X63127095Y-117562380D01*
X63460428Y-117943333D01*
X63317571Y-117943333D01*
X63222333Y-117990952D01*
X63174714Y-118038571D01*
X63127095Y-118133809D01*
X63127095Y-118371904D01*
X63174714Y-118467142D01*
X63222333Y-118514761D01*
X63317571Y-118562380D01*
X63603285Y-118562380D01*
X63698523Y-118514761D01*
X63746142Y-118467142D01*
%TO.C,R72*%
X72524857Y-116656380D02*
X72858190Y-116180190D01*
X73096285Y-116656380D02*
X73096285Y-115656380D01*
X72715333Y-115656380D01*
X72620095Y-115704000D01*
X72572476Y-115751619D01*
X72524857Y-115846857D01*
X72524857Y-115989714D01*
X72572476Y-116084952D01*
X72620095Y-116132571D01*
X72715333Y-116180190D01*
X73096285Y-116180190D01*
X72191523Y-115656380D02*
X71524857Y-115656380D01*
X71953428Y-116656380D01*
X71191523Y-115751619D02*
X71143904Y-115704000D01*
X71048666Y-115656380D01*
X70810571Y-115656380D01*
X70715333Y-115704000D01*
X70667714Y-115751619D01*
X70620095Y-115846857D01*
X70620095Y-115942095D01*
X70667714Y-116084952D01*
X71239142Y-116656380D01*
X70620095Y-116656380D01*
%TO.C,R71*%
X72397857Y-110751880D02*
X72731190Y-110275690D01*
X72969285Y-110751880D02*
X72969285Y-109751880D01*
X72588333Y-109751880D01*
X72493095Y-109799500D01*
X72445476Y-109847119D01*
X72397857Y-109942357D01*
X72397857Y-110085214D01*
X72445476Y-110180452D01*
X72493095Y-110228071D01*
X72588333Y-110275690D01*
X72969285Y-110275690D01*
X72064523Y-109751880D02*
X71397857Y-109751880D01*
X71826428Y-110751880D01*
X70493095Y-110751880D02*
X71064523Y-110751880D01*
X70778809Y-110751880D02*
X70778809Y-109751880D01*
X70874047Y-109894738D01*
X70969285Y-109989976D01*
X71064523Y-110037595D01*
%TO.C,R70*%
X66794119Y-51442857D02*
X67270309Y-51776190D01*
X66794119Y-52014285D02*
X67794119Y-52014285D01*
X67794119Y-51633333D01*
X67746500Y-51538095D01*
X67698880Y-51490476D01*
X67603642Y-51442857D01*
X67460785Y-51442857D01*
X67365547Y-51490476D01*
X67317928Y-51538095D01*
X67270309Y-51633333D01*
X67270309Y-52014285D01*
X67794119Y-51109523D02*
X67794119Y-50442857D01*
X66794119Y-50871428D01*
X67794119Y-49871428D02*
X67794119Y-49776190D01*
X67746500Y-49680952D01*
X67698880Y-49633333D01*
X67603642Y-49585714D01*
X67413166Y-49538095D01*
X67175071Y-49538095D01*
X66984595Y-49585714D01*
X66889357Y-49633333D01*
X66841738Y-49680952D01*
X66794119Y-49776190D01*
X66794119Y-49871428D01*
X66841738Y-49966666D01*
X66889357Y-50014285D01*
X66984595Y-50061904D01*
X67175071Y-50109523D01*
X67413166Y-50109523D01*
X67603642Y-50061904D01*
X67698880Y-50014285D01*
X67746500Y-49966666D01*
X67794119Y-49871428D01*
%TO.C,R69*%
X71112119Y-55379857D02*
X71588309Y-55713190D01*
X71112119Y-55951285D02*
X72112119Y-55951285D01*
X72112119Y-55570333D01*
X72064500Y-55475095D01*
X72016880Y-55427476D01*
X71921642Y-55379857D01*
X71778785Y-55379857D01*
X71683547Y-55427476D01*
X71635928Y-55475095D01*
X71588309Y-55570333D01*
X71588309Y-55951285D01*
X72112119Y-54522714D02*
X72112119Y-54713190D01*
X72064500Y-54808428D01*
X72016880Y-54856047D01*
X71874023Y-54951285D01*
X71683547Y-54998904D01*
X71302595Y-54998904D01*
X71207357Y-54951285D01*
X71159738Y-54903666D01*
X71112119Y-54808428D01*
X71112119Y-54617952D01*
X71159738Y-54522714D01*
X71207357Y-54475095D01*
X71302595Y-54427476D01*
X71540690Y-54427476D01*
X71635928Y-54475095D01*
X71683547Y-54522714D01*
X71731166Y-54617952D01*
X71731166Y-54808428D01*
X71683547Y-54903666D01*
X71635928Y-54951285D01*
X71540690Y-54998904D01*
X71112119Y-53951285D02*
X71112119Y-53760809D01*
X71159738Y-53665571D01*
X71207357Y-53617952D01*
X71350214Y-53522714D01*
X71540690Y-53475095D01*
X71921642Y-53475095D01*
X72016880Y-53522714D01*
X72064500Y-53570333D01*
X72112119Y-53665571D01*
X72112119Y-53856047D01*
X72064500Y-53951285D01*
X72016880Y-53998904D01*
X71921642Y-54046523D01*
X71683547Y-54046523D01*
X71588309Y-53998904D01*
X71540690Y-53951285D01*
X71493071Y-53856047D01*
X71493071Y-53665571D01*
X71540690Y-53570333D01*
X71588309Y-53522714D01*
X71683547Y-53475095D01*
%TO.C,R68*%
X73715619Y-55252857D02*
X74191809Y-55586190D01*
X73715619Y-55824285D02*
X74715619Y-55824285D01*
X74715619Y-55443333D01*
X74668000Y-55348095D01*
X74620380Y-55300476D01*
X74525142Y-55252857D01*
X74382285Y-55252857D01*
X74287047Y-55300476D01*
X74239428Y-55348095D01*
X74191809Y-55443333D01*
X74191809Y-55824285D01*
X74715619Y-54395714D02*
X74715619Y-54586190D01*
X74668000Y-54681428D01*
X74620380Y-54729047D01*
X74477523Y-54824285D01*
X74287047Y-54871904D01*
X73906095Y-54871904D01*
X73810857Y-54824285D01*
X73763238Y-54776666D01*
X73715619Y-54681428D01*
X73715619Y-54490952D01*
X73763238Y-54395714D01*
X73810857Y-54348095D01*
X73906095Y-54300476D01*
X74144190Y-54300476D01*
X74239428Y-54348095D01*
X74287047Y-54395714D01*
X74334666Y-54490952D01*
X74334666Y-54681428D01*
X74287047Y-54776666D01*
X74239428Y-54824285D01*
X74144190Y-54871904D01*
X74287047Y-53729047D02*
X74334666Y-53824285D01*
X74382285Y-53871904D01*
X74477523Y-53919523D01*
X74525142Y-53919523D01*
X74620380Y-53871904D01*
X74668000Y-53824285D01*
X74715619Y-53729047D01*
X74715619Y-53538571D01*
X74668000Y-53443333D01*
X74620380Y-53395714D01*
X74525142Y-53348095D01*
X74477523Y-53348095D01*
X74382285Y-53395714D01*
X74334666Y-53443333D01*
X74287047Y-53538571D01*
X74287047Y-53729047D01*
X74239428Y-53824285D01*
X74191809Y-53871904D01*
X74096571Y-53919523D01*
X73906095Y-53919523D01*
X73810857Y-53871904D01*
X73763238Y-53824285D01*
X73715619Y-53729047D01*
X73715619Y-53538571D01*
X73763238Y-53443333D01*
X73810857Y-53395714D01*
X73906095Y-53348095D01*
X74096571Y-53348095D01*
X74191809Y-53395714D01*
X74239428Y-53443333D01*
X74287047Y-53538571D01*
%TO.C,R67*%
X77715119Y-51442857D02*
X78191309Y-51776190D01*
X77715119Y-52014285D02*
X78715119Y-52014285D01*
X78715119Y-51633333D01*
X78667500Y-51538095D01*
X78619880Y-51490476D01*
X78524642Y-51442857D01*
X78381785Y-51442857D01*
X78286547Y-51490476D01*
X78238928Y-51538095D01*
X78191309Y-51633333D01*
X78191309Y-52014285D01*
X78715119Y-50585714D02*
X78715119Y-50776190D01*
X78667500Y-50871428D01*
X78619880Y-50919047D01*
X78477023Y-51014285D01*
X78286547Y-51061904D01*
X77905595Y-51061904D01*
X77810357Y-51014285D01*
X77762738Y-50966666D01*
X77715119Y-50871428D01*
X77715119Y-50680952D01*
X77762738Y-50585714D01*
X77810357Y-50538095D01*
X77905595Y-50490476D01*
X78143690Y-50490476D01*
X78238928Y-50538095D01*
X78286547Y-50585714D01*
X78334166Y-50680952D01*
X78334166Y-50871428D01*
X78286547Y-50966666D01*
X78238928Y-51014285D01*
X78143690Y-51061904D01*
X78715119Y-50157142D02*
X78715119Y-49490476D01*
X77715119Y-49919047D01*
%TO.C,R66*%
X67889380Y-54094142D02*
X67413190Y-53760809D01*
X67889380Y-53522714D02*
X66889380Y-53522714D01*
X66889380Y-53903666D01*
X66937000Y-53998904D01*
X66984619Y-54046523D01*
X67079857Y-54094142D01*
X67222714Y-54094142D01*
X67317952Y-54046523D01*
X67365571Y-53998904D01*
X67413190Y-53903666D01*
X67413190Y-53522714D01*
X66889380Y-54951285D02*
X66889380Y-54760809D01*
X66937000Y-54665571D01*
X66984619Y-54617952D01*
X67127476Y-54522714D01*
X67317952Y-54475095D01*
X67698904Y-54475095D01*
X67794142Y-54522714D01*
X67841761Y-54570333D01*
X67889380Y-54665571D01*
X67889380Y-54856047D01*
X67841761Y-54951285D01*
X67794142Y-54998904D01*
X67698904Y-55046523D01*
X67460809Y-55046523D01*
X67365571Y-54998904D01*
X67317952Y-54951285D01*
X67270333Y-54856047D01*
X67270333Y-54665571D01*
X67317952Y-54570333D01*
X67365571Y-54522714D01*
X67460809Y-54475095D01*
X66889380Y-55903666D02*
X66889380Y-55713190D01*
X66937000Y-55617952D01*
X66984619Y-55570333D01*
X67127476Y-55475095D01*
X67317952Y-55427476D01*
X67698904Y-55427476D01*
X67794142Y-55475095D01*
X67841761Y-55522714D01*
X67889380Y-55617952D01*
X67889380Y-55808428D01*
X67841761Y-55903666D01*
X67794142Y-55951285D01*
X67698904Y-55998904D01*
X67460809Y-55998904D01*
X67365571Y-55951285D01*
X67317952Y-55903666D01*
X67270333Y-55808428D01*
X67270333Y-55617952D01*
X67317952Y-55522714D01*
X67365571Y-55475095D01*
X67460809Y-55427476D01*
%TO.C,R45*%
X48140857Y-54553380D02*
X48474190Y-54077190D01*
X48712285Y-54553380D02*
X48712285Y-53553380D01*
X48331333Y-53553380D01*
X48236095Y-53601000D01*
X48188476Y-53648619D01*
X48140857Y-53743857D01*
X48140857Y-53886714D01*
X48188476Y-53981952D01*
X48236095Y-54029571D01*
X48331333Y-54077190D01*
X48712285Y-54077190D01*
X47283714Y-53886714D02*
X47283714Y-54553380D01*
X47521809Y-53505761D02*
X47759904Y-54220047D01*
X47140857Y-54220047D01*
X46283714Y-53553380D02*
X46759904Y-53553380D01*
X46807523Y-54029571D01*
X46759904Y-53981952D01*
X46664666Y-53934333D01*
X46426571Y-53934333D01*
X46331333Y-53981952D01*
X46283714Y-54029571D01*
X46236095Y-54124809D01*
X46236095Y-54362904D01*
X46283714Y-54458142D01*
X46331333Y-54505761D01*
X46426571Y-54553380D01*
X46664666Y-54553380D01*
X46759904Y-54505761D01*
X46807523Y-54458142D01*
%TO.C,R44*%
X48140857Y-49029880D02*
X48474190Y-48553690D01*
X48712285Y-49029880D02*
X48712285Y-48029880D01*
X48331333Y-48029880D01*
X48236095Y-48077500D01*
X48188476Y-48125119D01*
X48140857Y-48220357D01*
X48140857Y-48363214D01*
X48188476Y-48458452D01*
X48236095Y-48506071D01*
X48331333Y-48553690D01*
X48712285Y-48553690D01*
X47283714Y-48363214D02*
X47283714Y-49029880D01*
X47521809Y-47982261D02*
X47759904Y-48696547D01*
X47140857Y-48696547D01*
X46331333Y-48363214D02*
X46331333Y-49029880D01*
X46569428Y-47982261D02*
X46807523Y-48696547D01*
X46188476Y-48696547D01*
%TO.C,R19*%
X61666380Y-69588142D02*
X61190190Y-69254809D01*
X61666380Y-69016714D02*
X60666380Y-69016714D01*
X60666380Y-69397666D01*
X60714000Y-69492904D01*
X60761619Y-69540523D01*
X60856857Y-69588142D01*
X60999714Y-69588142D01*
X61094952Y-69540523D01*
X61142571Y-69492904D01*
X61190190Y-69397666D01*
X61190190Y-69016714D01*
X61666380Y-70540523D02*
X61666380Y-69969095D01*
X61666380Y-70254809D02*
X60666380Y-70254809D01*
X60809238Y-70159571D01*
X60904476Y-70064333D01*
X60952095Y-69969095D01*
X61666380Y-71016714D02*
X61666380Y-71207190D01*
X61618761Y-71302428D01*
X61571142Y-71350047D01*
X61428285Y-71445285D01*
X61237809Y-71492904D01*
X60856857Y-71492904D01*
X60761619Y-71445285D01*
X60714000Y-71397666D01*
X60666380Y-71302428D01*
X60666380Y-71111952D01*
X60714000Y-71016714D01*
X60761619Y-70969095D01*
X60856857Y-70921476D01*
X61094952Y-70921476D01*
X61190190Y-70969095D01*
X61237809Y-71016714D01*
X61285428Y-71111952D01*
X61285428Y-71302428D01*
X61237809Y-71397666D01*
X61190190Y-71445285D01*
X61094952Y-71492904D01*
%TO.C,R18*%
X66285119Y-70937357D02*
X66761309Y-71270690D01*
X66285119Y-71508785D02*
X67285119Y-71508785D01*
X67285119Y-71127833D01*
X67237500Y-71032595D01*
X67189880Y-70984976D01*
X67094642Y-70937357D01*
X66951785Y-70937357D01*
X66856547Y-70984976D01*
X66808928Y-71032595D01*
X66761309Y-71127833D01*
X66761309Y-71508785D01*
X66285119Y-69984976D02*
X66285119Y-70556404D01*
X66285119Y-70270690D02*
X67285119Y-70270690D01*
X67142261Y-70365928D01*
X67047023Y-70461166D01*
X66999404Y-70556404D01*
X66856547Y-69413547D02*
X66904166Y-69508785D01*
X66951785Y-69556404D01*
X67047023Y-69604023D01*
X67094642Y-69604023D01*
X67189880Y-69556404D01*
X67237500Y-69508785D01*
X67285119Y-69413547D01*
X67285119Y-69223071D01*
X67237500Y-69127833D01*
X67189880Y-69080214D01*
X67094642Y-69032595D01*
X67047023Y-69032595D01*
X66951785Y-69080214D01*
X66904166Y-69127833D01*
X66856547Y-69223071D01*
X66856547Y-69413547D01*
X66808928Y-69508785D01*
X66761309Y-69556404D01*
X66666071Y-69604023D01*
X66475595Y-69604023D01*
X66380357Y-69556404D01*
X66332738Y-69508785D01*
X66285119Y-69413547D01*
X66285119Y-69223071D01*
X66332738Y-69127833D01*
X66380357Y-69080214D01*
X66475595Y-69032595D01*
X66666071Y-69032595D01*
X66761309Y-69080214D01*
X66808928Y-69127833D01*
X66856547Y-69223071D01*
%TO.C,R15*%
X108402357Y-61666380D02*
X108735690Y-61190190D01*
X108973785Y-61666380D02*
X108973785Y-60666380D01*
X108592833Y-60666380D01*
X108497595Y-60714000D01*
X108449976Y-60761619D01*
X108402357Y-60856857D01*
X108402357Y-60999714D01*
X108449976Y-61094952D01*
X108497595Y-61142571D01*
X108592833Y-61190190D01*
X108973785Y-61190190D01*
X107449976Y-61666380D02*
X108021404Y-61666380D01*
X107735690Y-61666380D02*
X107735690Y-60666380D01*
X107830928Y-60809238D01*
X107926166Y-60904476D01*
X108021404Y-60952095D01*
X106545214Y-60666380D02*
X107021404Y-60666380D01*
X107069023Y-61142571D01*
X107021404Y-61094952D01*
X106926166Y-61047333D01*
X106688071Y-61047333D01*
X106592833Y-61094952D01*
X106545214Y-61142571D01*
X106497595Y-61237809D01*
X106497595Y-61475904D01*
X106545214Y-61571142D01*
X106592833Y-61618761D01*
X106688071Y-61666380D01*
X106926166Y-61666380D01*
X107021404Y-61618761D01*
X107069023Y-61571142D01*
%TO.C,R14*%
X108402357Y-59507380D02*
X108735690Y-59031190D01*
X108973785Y-59507380D02*
X108973785Y-58507380D01*
X108592833Y-58507380D01*
X108497595Y-58555000D01*
X108449976Y-58602619D01*
X108402357Y-58697857D01*
X108402357Y-58840714D01*
X108449976Y-58935952D01*
X108497595Y-58983571D01*
X108592833Y-59031190D01*
X108973785Y-59031190D01*
X107449976Y-59507380D02*
X108021404Y-59507380D01*
X107735690Y-59507380D02*
X107735690Y-58507380D01*
X107830928Y-58650238D01*
X107926166Y-58745476D01*
X108021404Y-58793095D01*
X106592833Y-58840714D02*
X106592833Y-59507380D01*
X106830928Y-58459761D02*
X107069023Y-59174047D01*
X106449976Y-59174047D01*
%TO.C,R11*%
X111894857Y-67824880D02*
X112228190Y-67348690D01*
X112466285Y-67824880D02*
X112466285Y-66824880D01*
X112085333Y-66824880D01*
X111990095Y-66872500D01*
X111942476Y-66920119D01*
X111894857Y-67015357D01*
X111894857Y-67158214D01*
X111942476Y-67253452D01*
X111990095Y-67301071D01*
X112085333Y-67348690D01*
X112466285Y-67348690D01*
X110942476Y-67824880D02*
X111513904Y-67824880D01*
X111228190Y-67824880D02*
X111228190Y-66824880D01*
X111323428Y-66967738D01*
X111418666Y-67062976D01*
X111513904Y-67110595D01*
X109990095Y-67824880D02*
X110561523Y-67824880D01*
X110275809Y-67824880D02*
X110275809Y-66824880D01*
X110371047Y-66967738D01*
X110466285Y-67062976D01*
X110561523Y-67110595D01*
%TO.C,R10*%
X108465857Y-64015880D02*
X108799190Y-63539690D01*
X109037285Y-64015880D02*
X109037285Y-63015880D01*
X108656333Y-63015880D01*
X108561095Y-63063500D01*
X108513476Y-63111119D01*
X108465857Y-63206357D01*
X108465857Y-63349214D01*
X108513476Y-63444452D01*
X108561095Y-63492071D01*
X108656333Y-63539690D01*
X109037285Y-63539690D01*
X107513476Y-64015880D02*
X108084904Y-64015880D01*
X107799190Y-64015880D02*
X107799190Y-63015880D01*
X107894428Y-63158738D01*
X107989666Y-63253976D01*
X108084904Y-63301595D01*
X106894428Y-63015880D02*
X106799190Y-63015880D01*
X106703952Y-63063500D01*
X106656333Y-63111119D01*
X106608714Y-63206357D01*
X106561095Y-63396833D01*
X106561095Y-63634928D01*
X106608714Y-63825404D01*
X106656333Y-63920642D01*
X106703952Y-63968261D01*
X106799190Y-64015880D01*
X106894428Y-64015880D01*
X106989666Y-63968261D01*
X107037285Y-63920642D01*
X107084904Y-63825404D01*
X107132523Y-63634928D01*
X107132523Y-63396833D01*
X107084904Y-63206357D01*
X107037285Y-63111119D01*
X106989666Y-63063500D01*
X106894428Y-63015880D01*
%TO.C,R9*%
X38362880Y-79208333D02*
X37886690Y-78875000D01*
X38362880Y-78636904D02*
X37362880Y-78636904D01*
X37362880Y-79017857D01*
X37410500Y-79113095D01*
X37458119Y-79160714D01*
X37553357Y-79208333D01*
X37696214Y-79208333D01*
X37791452Y-79160714D01*
X37839071Y-79113095D01*
X37886690Y-79017857D01*
X37886690Y-78636904D01*
X38362880Y-79684523D02*
X38362880Y-79875000D01*
X38315261Y-79970238D01*
X38267642Y-80017857D01*
X38124785Y-80113095D01*
X37934309Y-80160714D01*
X37553357Y-80160714D01*
X37458119Y-80113095D01*
X37410500Y-80065476D01*
X37362880Y-79970238D01*
X37362880Y-79779761D01*
X37410500Y-79684523D01*
X37458119Y-79636904D01*
X37553357Y-79589285D01*
X37791452Y-79589285D01*
X37886690Y-79636904D01*
X37934309Y-79684523D01*
X37981928Y-79779761D01*
X37981928Y-79970238D01*
X37934309Y-80065476D01*
X37886690Y-80113095D01*
X37791452Y-80160714D01*
%TO.C,R8*%
X38711166Y-74938880D02*
X39044500Y-74462690D01*
X39282595Y-74938880D02*
X39282595Y-73938880D01*
X38901642Y-73938880D01*
X38806404Y-73986500D01*
X38758785Y-74034119D01*
X38711166Y-74129357D01*
X38711166Y-74272214D01*
X38758785Y-74367452D01*
X38806404Y-74415071D01*
X38901642Y-74462690D01*
X39282595Y-74462690D01*
X38139738Y-74367452D02*
X38234976Y-74319833D01*
X38282595Y-74272214D01*
X38330214Y-74176976D01*
X38330214Y-74129357D01*
X38282595Y-74034119D01*
X38234976Y-73986500D01*
X38139738Y-73938880D01*
X37949261Y-73938880D01*
X37854023Y-73986500D01*
X37806404Y-74034119D01*
X37758785Y-74129357D01*
X37758785Y-74176976D01*
X37806404Y-74272214D01*
X37854023Y-74319833D01*
X37949261Y-74367452D01*
X38139738Y-74367452D01*
X38234976Y-74415071D01*
X38282595Y-74462690D01*
X38330214Y-74557928D01*
X38330214Y-74748404D01*
X38282595Y-74843642D01*
X38234976Y-74891261D01*
X38139738Y-74938880D01*
X37949261Y-74938880D01*
X37854023Y-74891261D01*
X37806404Y-74843642D01*
X37758785Y-74748404D01*
X37758785Y-74557928D01*
X37806404Y-74462690D01*
X37854023Y-74415071D01*
X37949261Y-74367452D01*
%TO.C,R5*%
X35472666Y-56522880D02*
X35806000Y-56046690D01*
X36044095Y-56522880D02*
X36044095Y-55522880D01*
X35663142Y-55522880D01*
X35567904Y-55570500D01*
X35520285Y-55618119D01*
X35472666Y-55713357D01*
X35472666Y-55856214D01*
X35520285Y-55951452D01*
X35567904Y-55999071D01*
X35663142Y-56046690D01*
X36044095Y-56046690D01*
X34567904Y-55522880D02*
X35044095Y-55522880D01*
X35091714Y-55999071D01*
X35044095Y-55951452D01*
X34948857Y-55903833D01*
X34710761Y-55903833D01*
X34615523Y-55951452D01*
X34567904Y-55999071D01*
X34520285Y-56094309D01*
X34520285Y-56332404D01*
X34567904Y-56427642D01*
X34615523Y-56475261D01*
X34710761Y-56522880D01*
X34948857Y-56522880D01*
X35044095Y-56475261D01*
X35091714Y-56427642D01*
%TO.C,R4*%
X39600166Y-60712880D02*
X39933500Y-60236690D01*
X40171595Y-60712880D02*
X40171595Y-59712880D01*
X39790642Y-59712880D01*
X39695404Y-59760500D01*
X39647785Y-59808119D01*
X39600166Y-59903357D01*
X39600166Y-60046214D01*
X39647785Y-60141452D01*
X39695404Y-60189071D01*
X39790642Y-60236690D01*
X40171595Y-60236690D01*
X38743023Y-60046214D02*
X38743023Y-60712880D01*
X38981119Y-59665261D02*
X39219214Y-60379547D01*
X38600166Y-60379547D01*
%TO.C,Q5*%
X41632119Y-53181261D02*
X41584500Y-53086023D01*
X41489261Y-52990785D01*
X41346404Y-52847928D01*
X41298785Y-52752690D01*
X41298785Y-52657452D01*
X41536880Y-52705071D02*
X41489261Y-52609833D01*
X41394023Y-52514595D01*
X41203547Y-52466976D01*
X40870214Y-52466976D01*
X40679738Y-52514595D01*
X40584500Y-52609833D01*
X40536880Y-52705071D01*
X40536880Y-52895547D01*
X40584500Y-52990785D01*
X40679738Y-53086023D01*
X40870214Y-53133642D01*
X41203547Y-53133642D01*
X41394023Y-53086023D01*
X41489261Y-52990785D01*
X41536880Y-52895547D01*
X41536880Y-52705071D01*
X40536880Y-54038404D02*
X40536880Y-53562214D01*
X41013071Y-53514595D01*
X40965452Y-53562214D01*
X40917833Y-53657452D01*
X40917833Y-53895547D01*
X40965452Y-53990785D01*
X41013071Y-54038404D01*
X41108309Y-54086023D01*
X41346404Y-54086023D01*
X41441642Y-54038404D01*
X41489261Y-53990785D01*
X41536880Y-53895547D01*
X41536880Y-53657452D01*
X41489261Y-53562214D01*
X41441642Y-53514595D01*
%TO.C,Q2*%
X42894238Y-80390619D02*
X42989476Y-80343000D01*
X43084714Y-80247761D01*
X43227571Y-80104904D01*
X43322809Y-80057285D01*
X43418047Y-80057285D01*
X43370428Y-80295380D02*
X43465666Y-80247761D01*
X43560904Y-80152523D01*
X43608523Y-79962047D01*
X43608523Y-79628714D01*
X43560904Y-79438238D01*
X43465666Y-79343000D01*
X43370428Y-79295380D01*
X43179952Y-79295380D01*
X43084714Y-79343000D01*
X42989476Y-79438238D01*
X42941857Y-79628714D01*
X42941857Y-79962047D01*
X42989476Y-80152523D01*
X43084714Y-80247761D01*
X43179952Y-80295380D01*
X43370428Y-80295380D01*
X42560904Y-79390619D02*
X42513285Y-79343000D01*
X42418047Y-79295380D01*
X42179952Y-79295380D01*
X42084714Y-79343000D01*
X42037095Y-79390619D01*
X41989476Y-79485857D01*
X41989476Y-79581095D01*
X42037095Y-79723952D01*
X42608523Y-80295380D01*
X41989476Y-80295380D01*
%TO.C,Q1*%
X32734238Y-60491619D02*
X32829476Y-60444000D01*
X32924714Y-60348761D01*
X33067571Y-60205904D01*
X33162809Y-60158285D01*
X33258047Y-60158285D01*
X33210428Y-60396380D02*
X33305666Y-60348761D01*
X33400904Y-60253523D01*
X33448523Y-60063047D01*
X33448523Y-59729714D01*
X33400904Y-59539238D01*
X33305666Y-59444000D01*
X33210428Y-59396380D01*
X33019952Y-59396380D01*
X32924714Y-59444000D01*
X32829476Y-59539238D01*
X32781857Y-59729714D01*
X32781857Y-60063047D01*
X32829476Y-60253523D01*
X32924714Y-60348761D01*
X33019952Y-60396380D01*
X33210428Y-60396380D01*
X31829476Y-60396380D02*
X32400904Y-60396380D01*
X32115190Y-60396380D02*
X32115190Y-59396380D01*
X32210428Y-59539238D01*
X32305666Y-59634476D01*
X32400904Y-59682095D01*
%TO.C,D2*%
X43346595Y-83699880D02*
X43346595Y-82699880D01*
X43108500Y-82699880D01*
X42965642Y-82747500D01*
X42870404Y-82842738D01*
X42822785Y-82937976D01*
X42775166Y-83128452D01*
X42775166Y-83271309D01*
X42822785Y-83461785D01*
X42870404Y-83557023D01*
X42965642Y-83652261D01*
X43108500Y-83699880D01*
X43346595Y-83699880D01*
X42394214Y-82795119D02*
X42346595Y-82747500D01*
X42251357Y-82699880D01*
X42013261Y-82699880D01*
X41918023Y-82747500D01*
X41870404Y-82795119D01*
X41822785Y-82890357D01*
X41822785Y-82985595D01*
X41870404Y-83128452D01*
X42441833Y-83699880D01*
X41822785Y-83699880D01*
%TO.C,D1*%
X36711880Y-66381404D02*
X35711880Y-66381404D01*
X35711880Y-66619500D01*
X35759500Y-66762357D01*
X35854738Y-66857595D01*
X35949976Y-66905214D01*
X36140452Y-66952833D01*
X36283309Y-66952833D01*
X36473785Y-66905214D01*
X36569023Y-66857595D01*
X36664261Y-66762357D01*
X36711880Y-66619500D01*
X36711880Y-66381404D01*
X36711880Y-67905214D02*
X36711880Y-67333785D01*
X36711880Y-67619500D02*
X35711880Y-67619500D01*
X35854738Y-67524261D01*
X35949976Y-67429023D01*
X35997595Y-67333785D01*
%TO.C,C45*%
X68968857Y-73128142D02*
X69016476Y-73175761D01*
X69159333Y-73223380D01*
X69254571Y-73223380D01*
X69397428Y-73175761D01*
X69492666Y-73080523D01*
X69540285Y-72985285D01*
X69587904Y-72794809D01*
X69587904Y-72651952D01*
X69540285Y-72461476D01*
X69492666Y-72366238D01*
X69397428Y-72271000D01*
X69254571Y-72223380D01*
X69159333Y-72223380D01*
X69016476Y-72271000D01*
X68968857Y-72318619D01*
X68111714Y-72556714D02*
X68111714Y-73223380D01*
X68349809Y-72175761D02*
X68587904Y-72890047D01*
X67968857Y-72890047D01*
X67111714Y-72223380D02*
X67587904Y-72223380D01*
X67635523Y-72699571D01*
X67587904Y-72651952D01*
X67492666Y-72604333D01*
X67254571Y-72604333D01*
X67159333Y-72651952D01*
X67111714Y-72699571D01*
X67064095Y-72794809D01*
X67064095Y-73032904D01*
X67111714Y-73128142D01*
X67159333Y-73175761D01*
X67254571Y-73223380D01*
X67492666Y-73223380D01*
X67587904Y-73175761D01*
X67635523Y-73128142D01*
%TO.C,C44*%
X71826357Y-73191642D02*
X71873976Y-73239261D01*
X72016833Y-73286880D01*
X72112071Y-73286880D01*
X72254928Y-73239261D01*
X72350166Y-73144023D01*
X72397785Y-73048785D01*
X72445404Y-72858309D01*
X72445404Y-72715452D01*
X72397785Y-72524976D01*
X72350166Y-72429738D01*
X72254928Y-72334500D01*
X72112071Y-72286880D01*
X72016833Y-72286880D01*
X71873976Y-72334500D01*
X71826357Y-72382119D01*
X70969214Y-72620214D02*
X70969214Y-73286880D01*
X71207309Y-72239261D02*
X71445404Y-72953547D01*
X70826357Y-72953547D01*
X70016833Y-72620214D02*
X70016833Y-73286880D01*
X70254928Y-72239261D02*
X70493023Y-72953547D01*
X69873976Y-72953547D01*
%TO.C,C38*%
X78554642Y-54284642D02*
X78602261Y-54237023D01*
X78649880Y-54094166D01*
X78649880Y-53998928D01*
X78602261Y-53856071D01*
X78507023Y-53760833D01*
X78411785Y-53713214D01*
X78221309Y-53665595D01*
X78078452Y-53665595D01*
X77887976Y-53713214D01*
X77792738Y-53760833D01*
X77697500Y-53856071D01*
X77649880Y-53998928D01*
X77649880Y-54094166D01*
X77697500Y-54237023D01*
X77745119Y-54284642D01*
X77649880Y-54617976D02*
X77649880Y-55237023D01*
X78030833Y-54903690D01*
X78030833Y-55046547D01*
X78078452Y-55141785D01*
X78126071Y-55189404D01*
X78221309Y-55237023D01*
X78459404Y-55237023D01*
X78554642Y-55189404D01*
X78602261Y-55141785D01*
X78649880Y-55046547D01*
X78649880Y-54760833D01*
X78602261Y-54665595D01*
X78554642Y-54617976D01*
X78078452Y-55808452D02*
X78030833Y-55713214D01*
X77983214Y-55665595D01*
X77887976Y-55617976D01*
X77840357Y-55617976D01*
X77745119Y-55665595D01*
X77697500Y-55713214D01*
X77649880Y-55808452D01*
X77649880Y-55998928D01*
X77697500Y-56094166D01*
X77745119Y-56141785D01*
X77840357Y-56189404D01*
X77887976Y-56189404D01*
X77983214Y-56141785D01*
X78030833Y-56094166D01*
X78078452Y-55998928D01*
X78078452Y-55808452D01*
X78126071Y-55713214D01*
X78173690Y-55665595D01*
X78268928Y-55617976D01*
X78459404Y-55617976D01*
X78554642Y-55665595D01*
X78602261Y-55713214D01*
X78649880Y-55808452D01*
X78649880Y-55998928D01*
X78602261Y-56094166D01*
X78554642Y-56141785D01*
X78459404Y-56189404D01*
X78268928Y-56189404D01*
X78173690Y-56141785D01*
X78126071Y-56094166D01*
X78078452Y-55998928D01*
%TO.C,C20*%
X55319142Y-83240642D02*
X55366761Y-83193023D01*
X55414380Y-83050166D01*
X55414380Y-82954928D01*
X55366761Y-82812071D01*
X55271523Y-82716833D01*
X55176285Y-82669214D01*
X54985809Y-82621595D01*
X54842952Y-82621595D01*
X54652476Y-82669214D01*
X54557238Y-82716833D01*
X54462000Y-82812071D01*
X54414380Y-82954928D01*
X54414380Y-83050166D01*
X54462000Y-83193023D01*
X54509619Y-83240642D01*
X54509619Y-83621595D02*
X54462000Y-83669214D01*
X54414380Y-83764452D01*
X54414380Y-84002547D01*
X54462000Y-84097785D01*
X54509619Y-84145404D01*
X54604857Y-84193023D01*
X54700095Y-84193023D01*
X54842952Y-84145404D01*
X55414380Y-83573976D01*
X55414380Y-84193023D01*
X54414380Y-84812071D02*
X54414380Y-84907309D01*
X54462000Y-85002547D01*
X54509619Y-85050166D01*
X54604857Y-85097785D01*
X54795333Y-85145404D01*
X55033428Y-85145404D01*
X55223904Y-85097785D01*
X55319142Y-85050166D01*
X55366761Y-85002547D01*
X55414380Y-84907309D01*
X55414380Y-84812071D01*
X55366761Y-84716833D01*
X55319142Y-84669214D01*
X55223904Y-84621595D01*
X55033428Y-84573976D01*
X54795333Y-84573976D01*
X54604857Y-84621595D01*
X54509619Y-84669214D01*
X54462000Y-84716833D01*
X54414380Y-84812071D01*
%TD*%
M02*
