%TF.GenerationSoftware,KiCad,Pcbnew,5.1.9-73d0e3b20d~88~ubuntu20.04.1*%
%TF.CreationDate,2021-03-12T19:43:36+02:00*%
%TF.ProjectId,hymRC,68796d52-432e-46b6-9963-61645f706362,rev?*%
%TF.SameCoordinates,Original*%
%TF.FileFunction,Copper,L1,Top*%
%TF.FilePolarity,Positive*%
%FSLAX46Y46*%
G04 Gerber Fmt 4.6, Leading zero omitted, Abs format (unit mm)*
G04 Created by KiCad (PCBNEW 5.1.9-73d0e3b20d~88~ubuntu20.04.1) date 2021-03-12 19:43:36*
%MOMM*%
%LPD*%
G01*
G04 APERTURE LIST*
%TA.AperFunction,SMDPad,CuDef*%
%ADD10R,3.100000X1.600000*%
%TD*%
%TA.AperFunction,SMDPad,CuDef*%
%ADD11R,1.500000X1.780000*%
%TD*%
%TA.AperFunction,ComponentPad*%
%ADD12O,1.600000X1.600000*%
%TD*%
%TA.AperFunction,ComponentPad*%
%ADD13R,1.600000X1.600000*%
%TD*%
%TA.AperFunction,ComponentPad*%
%ADD14O,2.300000X1.600000*%
%TD*%
%TA.AperFunction,ComponentPad*%
%ADD15C,1.400000*%
%TD*%
%TA.AperFunction,ComponentPad*%
%ADD16R,1.400000X1.400000*%
%TD*%
%TA.AperFunction,ViaPad*%
%ADD17C,0.800000*%
%TD*%
%TA.AperFunction,Conductor*%
%ADD18C,0.250000*%
%TD*%
G04 APERTURE END LIST*
D10*
%TO.P,U6,24*%
%TO.N,N/C*%
X95550001Y-49865001D03*
%TO.P,U6,12*%
X79040001Y-77805001D03*
%TO.P,U6,23*%
X95550001Y-52405001D03*
%TO.P,U6,11*%
X79040001Y-75265001D03*
%TO.P,U6,22*%
X95550001Y-54945001D03*
%TO.P,U6,10*%
X79040001Y-72725001D03*
%TO.P,U6,21*%
X95550001Y-57485001D03*
%TO.P,U6,9*%
X79040001Y-70185001D03*
%TO.P,U6,20*%
X95550001Y-60025001D03*
%TO.P,U6,8*%
X79040001Y-67645001D03*
%TO.P,U6,19*%
X95550001Y-62565001D03*
%TO.P,U6,7*%
X79040001Y-65105001D03*
%TO.P,U6,18*%
X95550001Y-65105001D03*
%TO.P,U6,6*%
X79040001Y-62565001D03*
%TO.P,U6,17*%
X95550001Y-67645001D03*
%TO.P,U6,5*%
X79040001Y-60025001D03*
%TO.P,U6,16*%
X95550001Y-70185001D03*
%TO.P,U6,4*%
X79040001Y-57485001D03*
%TO.P,U6,15*%
X95550001Y-72725001D03*
%TO.P,U6,3*%
%TO.N,Net-(U6-Pad3)*%
X79040001Y-54945001D03*
%TO.P,U6,14*%
%TO.N,N/C*%
X95550001Y-75265001D03*
%TO.P,U6,2*%
%TO.N,Net-(U6-Pad2)*%
X79040001Y-52405001D03*
%TO.P,U6,13*%
%TO.N,N/C*%
X95550001Y-77805001D03*
%TO.P,U6,1*%
%TO.N,Net-(U6-Pad1)*%
X79040001Y-49865001D03*
%TD*%
D11*
%TO.P,U4,4*%
%TO.N,/CONTROL_INPUT_1*%
X99460001Y-92715001D03*
%TO.P,U4,2*%
%TO.N,Digital_IN0*%
X89930001Y-95255001D03*
%TO.P,U4,3*%
%TO.N,GND*%
X99460001Y-95255001D03*
%TO.P,U4,1*%
%TO.N,Net-(R13-Pad1)*%
X89930001Y-92715001D03*
%TD*%
%TO.P,U3,4*%
%TO.N,/CONTROL_INPUT_0*%
X130710001Y-49815001D03*
%TO.P,U3,2*%
%TO.N,GND2*%
X121180001Y-52355001D03*
%TO.P,U3,3*%
%TO.N,GND*%
X130710001Y-52355001D03*
%TO.P,U3,1*%
%TO.N,Net-(R12-Pad1)*%
X121180001Y-49815001D03*
%TD*%
D12*
%TO.P,U2,28*%
%TO.N,Digital_Sensor_CS1*%
X75065001Y-49835001D03*
%TO.P,U2,14*%
%TO.N,Net-(U2-Pad14)*%
X67445001Y-82855001D03*
%TO.P,U2,27*%
%TO.N,Digital_Sensor_CS2*%
X75065001Y-52375001D03*
%TO.P,U2,13*%
%TO.N,/SDA*%
X67445001Y-80315001D03*
%TO.P,U2,26*%
%TO.N,Digital_Sensor_CS3*%
X75065001Y-54915001D03*
%TO.P,U2,12*%
%TO.N,Net-(U2-Pad12)*%
X67445001Y-77775001D03*
%TO.P,U2,25*%
%TO.N,Net-(U2-Pad25)*%
X75065001Y-57455001D03*
%TO.P,U2,11*%
%TO.N,Net-(U2-Pad11)*%
X67445001Y-75235001D03*
%TO.P,U2,24*%
%TO.N,/CONTROL_OUTPUT_3*%
X75065001Y-59995001D03*
%TO.P,U2,10*%
%TO.N,GND*%
X67445001Y-72695001D03*
%TO.P,U2,23*%
%TO.N,/CONTROL_OUTPUT_2*%
X75065001Y-62535001D03*
%TO.P,U2,9*%
%TO.N,+5V*%
X67445001Y-70155001D03*
%TO.P,U2,22*%
%TO.N,/CONTROL_OUTPUT_1*%
X75065001Y-65075001D03*
%TO.P,U2,8*%
%TO.N,/CONTROL_INPUT_2*%
X67445001Y-67615001D03*
%TO.P,U2,21*%
%TO.N,/CONTROL_OUTPUT_0*%
X75065001Y-67615001D03*
%TO.P,U2,7*%
%TO.N,/CONTROL_INPUT_1*%
X67445001Y-65075001D03*
%TO.P,U2,20*%
%TO.N,/INTB*%
X75065001Y-70155001D03*
%TO.P,U2,6*%
%TO.N,/CONTROL_INPUT_0*%
X67445001Y-62535001D03*
%TO.P,U2,19*%
%TO.N,/INTA*%
X75065001Y-72695001D03*
%TO.P,U2,5*%
%TO.N,/StD*%
X67445001Y-59995001D03*
%TO.P,U2,18*%
%TO.N,+5V*%
X75065001Y-75235001D03*
%TO.P,U2,4*%
%TO.N,/Q4*%
X67445001Y-57455001D03*
%TO.P,U2,17*%
%TO.N,GND*%
X75065001Y-77775001D03*
%TO.P,U2,3*%
%TO.N,/Q3*%
X67445001Y-54915001D03*
%TO.P,U2,16*%
%TO.N,GND*%
X75065001Y-80315001D03*
%TO.P,U2,2*%
%TO.N,/Q2*%
X67445001Y-52375001D03*
%TO.P,U2,15*%
%TO.N,GND*%
X75065001Y-82855001D03*
D13*
%TO.P,U2,1*%
%TO.N,/Q1*%
X67445001Y-49835001D03*
%TD*%
%TO.P,U1,18*%
%TO.N,Net-(R3-Pad2)*%
%TA.AperFunction,SMDPad,CuDef*%
G36*
G01*
X155125000Y-115420000D02*
X155125000Y-115720000D01*
G75*
G02*
X154975000Y-115870000I-150000J0D01*
G01*
X153225000Y-115870000D01*
G75*
G02*
X153075000Y-115720000I0J150000D01*
G01*
X153075000Y-115420000D01*
G75*
G02*
X153225000Y-115270000I150000J0D01*
G01*
X154975000Y-115270000D01*
G75*
G02*
X155125000Y-115420000I0J-150000D01*
G01*
G37*
%TD.AperFunction*%
%TO.P,U1,17*%
%TO.N,/StD*%
%TA.AperFunction,SMDPad,CuDef*%
G36*
G01*
X155125000Y-114150000D02*
X155125000Y-114450000D01*
G75*
G02*
X154975000Y-114600000I-150000J0D01*
G01*
X153225000Y-114600000D01*
G75*
G02*
X153075000Y-114450000I0J150000D01*
G01*
X153075000Y-114150000D01*
G75*
G02*
X153225000Y-114000000I150000J0D01*
G01*
X154975000Y-114000000D01*
G75*
G02*
X155125000Y-114150000I0J-150000D01*
G01*
G37*
%TD.AperFunction*%
%TO.P,U1,16*%
%TO.N,N/C*%
%TA.AperFunction,SMDPad,CuDef*%
G36*
G01*
X155125000Y-112880000D02*
X155125000Y-113180000D01*
G75*
G02*
X154975000Y-113330000I-150000J0D01*
G01*
X153225000Y-113330000D01*
G75*
G02*
X153075000Y-113180000I0J150000D01*
G01*
X153075000Y-112880000D01*
G75*
G02*
X153225000Y-112730000I150000J0D01*
G01*
X154975000Y-112730000D01*
G75*
G02*
X155125000Y-112880000I0J-150000D01*
G01*
G37*
%TD.AperFunction*%
%TO.P,U1,15*%
%TO.N,/Q4*%
%TA.AperFunction,SMDPad,CuDef*%
G36*
G01*
X155125000Y-111610000D02*
X155125000Y-111910000D01*
G75*
G02*
X154975000Y-112060000I-150000J0D01*
G01*
X153225000Y-112060000D01*
G75*
G02*
X153075000Y-111910000I0J150000D01*
G01*
X153075000Y-111610000D01*
G75*
G02*
X153225000Y-111460000I150000J0D01*
G01*
X154975000Y-111460000D01*
G75*
G02*
X155125000Y-111610000I0J-150000D01*
G01*
G37*
%TD.AperFunction*%
%TO.P,U1,14*%
%TO.N,/Q3*%
%TA.AperFunction,SMDPad,CuDef*%
G36*
G01*
X155125000Y-110340000D02*
X155125000Y-110640000D01*
G75*
G02*
X154975000Y-110790000I-150000J0D01*
G01*
X153225000Y-110790000D01*
G75*
G02*
X153075000Y-110640000I0J150000D01*
G01*
X153075000Y-110340000D01*
G75*
G02*
X153225000Y-110190000I150000J0D01*
G01*
X154975000Y-110190000D01*
G75*
G02*
X155125000Y-110340000I0J-150000D01*
G01*
G37*
%TD.AperFunction*%
%TO.P,U1,13*%
%TO.N,/Q2*%
%TA.AperFunction,SMDPad,CuDef*%
G36*
G01*
X155125000Y-109070000D02*
X155125000Y-109370000D01*
G75*
G02*
X154975000Y-109520000I-150000J0D01*
G01*
X153225000Y-109520000D01*
G75*
G02*
X153075000Y-109370000I0J150000D01*
G01*
X153075000Y-109070000D01*
G75*
G02*
X153225000Y-108920000I150000J0D01*
G01*
X154975000Y-108920000D01*
G75*
G02*
X155125000Y-109070000I0J-150000D01*
G01*
G37*
%TD.AperFunction*%
%TO.P,U1,12*%
%TO.N,/Q1*%
%TA.AperFunction,SMDPad,CuDef*%
G36*
G01*
X155125000Y-107800000D02*
X155125000Y-108100000D01*
G75*
G02*
X154975000Y-108250000I-150000J0D01*
G01*
X153225000Y-108250000D01*
G75*
G02*
X153075000Y-108100000I0J150000D01*
G01*
X153075000Y-107800000D01*
G75*
G02*
X153225000Y-107650000I150000J0D01*
G01*
X154975000Y-107650000D01*
G75*
G02*
X155125000Y-107800000I0J-150000D01*
G01*
G37*
%TD.AperFunction*%
%TO.P,U1,11*%
%TO.N,+5V*%
%TA.AperFunction,SMDPad,CuDef*%
G36*
G01*
X155125000Y-106530000D02*
X155125000Y-106830000D01*
G75*
G02*
X154975000Y-106980000I-150000J0D01*
G01*
X153225000Y-106980000D01*
G75*
G02*
X153075000Y-106830000I0J150000D01*
G01*
X153075000Y-106530000D01*
G75*
G02*
X153225000Y-106380000I150000J0D01*
G01*
X154975000Y-106380000D01*
G75*
G02*
X155125000Y-106530000I0J-150000D01*
G01*
G37*
%TD.AperFunction*%
%TO.P,U1,10*%
%TO.N,GND*%
%TA.AperFunction,SMDPad,CuDef*%
G36*
G01*
X155125000Y-105260000D02*
X155125000Y-105560000D01*
G75*
G02*
X154975000Y-105710000I-150000J0D01*
G01*
X153225000Y-105710000D01*
G75*
G02*
X153075000Y-105560000I0J150000D01*
G01*
X153075000Y-105260000D01*
G75*
G02*
X153225000Y-105110000I150000J0D01*
G01*
X154975000Y-105110000D01*
G75*
G02*
X155125000Y-105260000I0J-150000D01*
G01*
G37*
%TD.AperFunction*%
%TO.P,U1,9*%
%TO.N,Net-(U1-Pad9)*%
%TA.AperFunction,SMDPad,CuDef*%
G36*
G01*
X164425000Y-105260000D02*
X164425000Y-105560000D01*
G75*
G02*
X164275000Y-105710000I-150000J0D01*
G01*
X162525000Y-105710000D01*
G75*
G02*
X162375000Y-105560000I0J150000D01*
G01*
X162375000Y-105260000D01*
G75*
G02*
X162525000Y-105110000I150000J0D01*
G01*
X164275000Y-105110000D01*
G75*
G02*
X164425000Y-105260000I0J-150000D01*
G01*
G37*
%TD.AperFunction*%
%TO.P,U1,8*%
%TO.N,Net-(U1-Pad8)*%
%TA.AperFunction,SMDPad,CuDef*%
G36*
G01*
X164425000Y-106530000D02*
X164425000Y-106830000D01*
G75*
G02*
X164275000Y-106980000I-150000J0D01*
G01*
X162525000Y-106980000D01*
G75*
G02*
X162375000Y-106830000I0J150000D01*
G01*
X162375000Y-106530000D01*
G75*
G02*
X162525000Y-106380000I150000J0D01*
G01*
X164275000Y-106380000D01*
G75*
G02*
X164425000Y-106530000I0J-150000D01*
G01*
G37*
%TD.AperFunction*%
%TO.P,U1,7*%
%TO.N,N/C*%
%TA.AperFunction,SMDPad,CuDef*%
G36*
G01*
X164425000Y-107800000D02*
X164425000Y-108100000D01*
G75*
G02*
X164275000Y-108250000I-150000J0D01*
G01*
X162525000Y-108250000D01*
G75*
G02*
X162375000Y-108100000I0J150000D01*
G01*
X162375000Y-107800000D01*
G75*
G02*
X162525000Y-107650000I150000J0D01*
G01*
X164275000Y-107650000D01*
G75*
G02*
X164425000Y-107800000I0J-150000D01*
G01*
G37*
%TD.AperFunction*%
%TO.P,U1,6*%
%TO.N,Net-(U1-Pad6)*%
%TA.AperFunction,SMDPad,CuDef*%
G36*
G01*
X164425000Y-109070000D02*
X164425000Y-109370000D01*
G75*
G02*
X164275000Y-109520000I-150000J0D01*
G01*
X162525000Y-109520000D01*
G75*
G02*
X162375000Y-109370000I0J150000D01*
G01*
X162375000Y-109070000D01*
G75*
G02*
X162525000Y-108920000I150000J0D01*
G01*
X164275000Y-108920000D01*
G75*
G02*
X164425000Y-109070000I0J-150000D01*
G01*
G37*
%TD.AperFunction*%
%TO.P,U1,5*%
%TO.N,Net-(U1-Pad5)*%
%TA.AperFunction,SMDPad,CuDef*%
G36*
G01*
X164425000Y-110340000D02*
X164425000Y-110640000D01*
G75*
G02*
X164275000Y-110790000I-150000J0D01*
G01*
X162525000Y-110790000D01*
G75*
G02*
X162375000Y-110640000I0J150000D01*
G01*
X162375000Y-110340000D01*
G75*
G02*
X162525000Y-110190000I150000J0D01*
G01*
X164275000Y-110190000D01*
G75*
G02*
X164425000Y-110340000I0J-150000D01*
G01*
G37*
%TD.AperFunction*%
%TO.P,U1,4*%
%TO.N,Net-(U1-Pad1)*%
%TA.AperFunction,SMDPad,CuDef*%
G36*
G01*
X164425000Y-111610000D02*
X164425000Y-111910000D01*
G75*
G02*
X164275000Y-112060000I-150000J0D01*
G01*
X162525000Y-112060000D01*
G75*
G02*
X162375000Y-111910000I0J150000D01*
G01*
X162375000Y-111610000D01*
G75*
G02*
X162525000Y-111460000I150000J0D01*
G01*
X164275000Y-111460000D01*
G75*
G02*
X164425000Y-111610000I0J-150000D01*
G01*
G37*
%TD.AperFunction*%
%TO.P,U1,3*%
%TO.N,Net-(R2-Pad1)*%
%TA.AperFunction,SMDPad,CuDef*%
G36*
G01*
X164425000Y-112880000D02*
X164425000Y-113180000D01*
G75*
G02*
X164275000Y-113330000I-150000J0D01*
G01*
X162525000Y-113330000D01*
G75*
G02*
X162375000Y-113180000I0J150000D01*
G01*
X162375000Y-112880000D01*
G75*
G02*
X162525000Y-112730000I150000J0D01*
G01*
X164275000Y-112730000D01*
G75*
G02*
X164425000Y-112880000I0J-150000D01*
G01*
G37*
%TD.AperFunction*%
%TO.P,U1,2*%
%TO.N,Net-(R1-Pad2)*%
%TA.AperFunction,SMDPad,CuDef*%
G36*
G01*
X164425000Y-114150000D02*
X164425000Y-114450000D01*
G75*
G02*
X164275000Y-114600000I-150000J0D01*
G01*
X162525000Y-114600000D01*
G75*
G02*
X162375000Y-114450000I0J150000D01*
G01*
X162375000Y-114150000D01*
G75*
G02*
X162525000Y-114000000I150000J0D01*
G01*
X164275000Y-114000000D01*
G75*
G02*
X164425000Y-114150000I0J-150000D01*
G01*
G37*
%TD.AperFunction*%
%TO.P,U1,1*%
%TO.N,Net-(U1-Pad1)*%
%TA.AperFunction,SMDPad,CuDef*%
G36*
G01*
X164425000Y-115420000D02*
X164425000Y-115720000D01*
G75*
G02*
X164275000Y-115870000I-150000J0D01*
G01*
X162525000Y-115870000D01*
G75*
G02*
X162375000Y-115720000I0J150000D01*
G01*
X162375000Y-115420000D01*
G75*
G02*
X162525000Y-115270000I150000J0D01*
G01*
X164275000Y-115270000D01*
G75*
G02*
X164425000Y-115420000I0J-150000D01*
G01*
G37*
%TD.AperFunction*%
%TD*%
D14*
%TO.P,K4,10*%
%TO.N,Net-(D4-Pad2)*%
X86315001Y-82985001D03*
%TO.P,K4,9*%
%TO.N,R3_NC2*%
X86315001Y-85525001D03*
%TO.P,K4,8*%
%TO.N,R3_COM2*%
X86315001Y-88065001D03*
%TO.P,K4,7*%
%TO.N,R3_NO2*%
X86315001Y-90605001D03*
%TO.P,K4,6*%
%TO.N,N/C*%
X86315001Y-93145001D03*
%TO.P,K4,5*%
X78695001Y-93145001D03*
%TO.P,K4,4*%
%TO.N,R3_NO1*%
X78695001Y-90605001D03*
%TO.P,K4,3*%
%TO.N,R3_COM1*%
X78695001Y-88065001D03*
%TO.P,K4,2*%
%TO.N,R3_NC1*%
X78695001Y-85525001D03*
%TO.P,K4,1*%
%TO.N,+12V*%
X78695001Y-82985001D03*
%TD*%
D15*
%TO.P,K3,14*%
%TO.N,R2_NO*%
X107165001Y-72335001D03*
%TO.P,K3,7*%
%TO.N,R2_COM*%
X99545001Y-87575001D03*
%TO.P,K3,8*%
X107165001Y-87575001D03*
D16*
%TO.P,K3,1*%
%TO.N,R2_NC*%
X99545001Y-72335001D03*
D15*
%TO.P,K3,2*%
%TO.N,Net-(D3-Pad2)*%
X99545001Y-74875001D03*
%TO.P,K3,6*%
%TO.N,+12V*%
X99545001Y-85135001D03*
%TO.P,K3,9*%
%TO.N,N/C*%
X107165001Y-85135001D03*
%TO.P,K3,13*%
X107165001Y-74875001D03*
%TD*%
%TO.P,K2,14*%
%TO.N,R1_NO*%
X118015001Y-50885001D03*
%TO.P,K2,7*%
%TO.N,R1_COM*%
X110395001Y-66125001D03*
%TO.P,K2,8*%
X118015001Y-66125001D03*
D16*
%TO.P,K2,1*%
%TO.N,R1_NC*%
X110395001Y-50885001D03*
D15*
%TO.P,K2,2*%
%TO.N,Net-(D2-Pad2)*%
X110395001Y-53425001D03*
%TO.P,K2,6*%
%TO.N,+12V*%
X110395001Y-63685001D03*
%TO.P,K2,9*%
%TO.N,N/C*%
X118015001Y-63685001D03*
%TO.P,K2,13*%
X118015001Y-53425001D03*
%TD*%
%TO.P,K1,14*%
%TO.N,RO_NO*%
X107165001Y-50885001D03*
%TO.P,K1,7*%
%TO.N,R0_COM*%
X99545001Y-66125001D03*
%TO.P,K1,8*%
X107165001Y-66125001D03*
D16*
%TO.P,K1,1*%
%TO.N,R0_NC*%
X99545001Y-50885001D03*
D15*
%TO.P,K1,2*%
%TO.N,Net-(D1-Pad2)*%
X99545001Y-53425001D03*
%TO.P,K1,6*%
%TO.N,+12V*%
X99545001Y-63685001D03*
%TO.P,K1,9*%
%TO.N,N/C*%
X107165001Y-63685001D03*
%TO.P,K1,13*%
X107165001Y-53425001D03*
%TD*%
D12*
%TO.P,A1,16*%
%TO.N,SPI_SCK*%
X140970000Y-137160000D03*
%TO.P,A1,15*%
%TO.N,SPI_MISO*%
X125730000Y-137160000D03*
%TO.P,A1,30*%
%TO.N,Vin*%
X140970000Y-101600000D03*
%TO.P,A1,14*%
%TO.N,SPI_MOSI*%
X125730000Y-134620000D03*
%TO.P,A1,29*%
%TO.N,GND*%
X140970000Y-104140000D03*
%TO.P,A1,13*%
%TO.N,SPI_SS*%
X125730000Y-132080000D03*
%TO.P,A1,28*%
%TO.N,Net-(A1-Pad28)*%
X140970000Y-106680000D03*
%TO.P,A1,12*%
%TO.N,Net-(A1-Pad12)*%
X125730000Y-129540000D03*
%TO.P,A1,27*%
%TO.N,+5V*%
X140970000Y-109220000D03*
%TO.P,A1,11*%
%TO.N,/PTT*%
X125730000Y-127000000D03*
%TO.P,A1,26*%
%TO.N,Net-(A1-Pad26)*%
X140970000Y-111760000D03*
%TO.P,A1,10*%
%TO.N,Net-(A1-Pad10)*%
X125730000Y-124460000D03*
%TO.P,A1,25*%
%TO.N,Net-(A1-Pad25)*%
X140970000Y-114300000D03*
%TO.P,A1,9*%
%TO.N,Net-(A1-Pad9)*%
X125730000Y-121920000D03*
%TO.P,A1,24*%
%TO.N,/SCL*%
X140970000Y-116840000D03*
%TO.P,A1,8*%
%TO.N,Net-(A1-Pad8)*%
X125730000Y-119380000D03*
%TO.P,A1,23*%
%TO.N,/SDA*%
X140970000Y-119380000D03*
%TO.P,A1,7*%
%TO.N,Net-(A1-Pad7)*%
X125730000Y-116840000D03*
%TO.P,A1,22*%
%TO.N,Net-(A1-Pad22)*%
X140970000Y-121920000D03*
%TO.P,A1,6*%
%TO.N,SQUELCH*%
X125730000Y-114300000D03*
%TO.P,A1,21*%
%TO.N,/Analog2*%
X140970000Y-124460000D03*
%TO.P,A1,5*%
%TO.N,/INTA*%
X125730000Y-111760000D03*
%TO.P,A1,20*%
%TO.N,/Analog1*%
X140970000Y-127000000D03*
%TO.P,A1,4*%
%TO.N,GND*%
X125730000Y-109220000D03*
%TO.P,A1,19*%
%TO.N,/Analog0*%
X140970000Y-129540000D03*
%TO.P,A1,3*%
%TO.N,Net-(A1-Pad3)*%
X125730000Y-106680000D03*
%TO.P,A1,18*%
%TO.N,Net-(A1-Pad18)*%
X140970000Y-132080000D03*
%TO.P,A1,2*%
%TO.N,UART_RX*%
X125730000Y-104140000D03*
%TO.P,A1,17*%
%TO.N,Net-(A1-Pad17)*%
X140970000Y-134620000D03*
D13*
%TO.P,A1,1*%
%TO.N,UART_TX*%
X125730000Y-101600000D03*
%TD*%
D17*
%TO.N,/StD*%
X147320000Y-114300000D03*
X120650000Y-58420000D03*
%TD*%
D18*
%TO.N,GND*%
X142240000Y-105410000D02*
X140970000Y-104140000D01*
X154100000Y-105410000D02*
X142240000Y-105410000D01*
X67695004Y-68740002D02*
X68580000Y-69624998D01*
X64969971Y-66804973D02*
X66905000Y-68740002D01*
X66905000Y-68740002D02*
X67695004Y-68740002D01*
X66198599Y-48259991D02*
X64969971Y-49488619D01*
X131379993Y-48259991D02*
X66198599Y-48259991D01*
X131785002Y-48665000D02*
X131379993Y-48259991D01*
X131785002Y-94955002D02*
X131785002Y-48665000D01*
X64969971Y-49488619D02*
X64969971Y-66804973D01*
X140970000Y-104140000D02*
X131785002Y-94955002D01*
X67445001Y-71820003D02*
X67445001Y-72695001D01*
X68580000Y-70685004D02*
X67445001Y-71820003D01*
X68580000Y-69624998D02*
X68580000Y-70685004D01*
%TO.N,+5V*%
X143510000Y-106680000D02*
X140970000Y-109220000D01*
X154100000Y-106680000D02*
X143510000Y-106680000D01*
%TO.N,R0_COM*%
X107165001Y-66125001D02*
X99545001Y-66125001D01*
%TO.N,+12V*%
X109370000Y-64710002D02*
X110395001Y-63685001D01*
X100570002Y-64710002D02*
X109370000Y-64710002D01*
X99545001Y-63685001D02*
X100570002Y-64710002D01*
%TO.N,R1_COM*%
X118015001Y-66125001D02*
X110395001Y-66125001D01*
%TO.N,/StD*%
X153075000Y-114300000D02*
X147320000Y-114300000D01*
X154100000Y-114300000D02*
X153075000Y-114300000D01*
X66320000Y-58870000D02*
X67445001Y-59995001D01*
X66905000Y-56330000D02*
X66320000Y-56915000D01*
X73065002Y-51250000D02*
X67985002Y-56330000D01*
X66320000Y-56915000D02*
X66320000Y-58870000D01*
X75315004Y-51250000D02*
X73065002Y-51250000D01*
X67985002Y-56330000D02*
X66905000Y-56330000D01*
X76190002Y-50375002D02*
X75315004Y-51250000D01*
X76190002Y-49860000D02*
X76190002Y-50375002D01*
X77310002Y-48740000D02*
X76190002Y-49860000D01*
X110970000Y-48740000D02*
X77310002Y-48740000D01*
X120650000Y-58420000D02*
X110970000Y-48740000D01*
%TO.N,/Q3*%
X68505002Y-48710000D02*
X68570002Y-48775000D01*
X66385000Y-48710000D02*
X68505002Y-48710000D01*
X68570002Y-67865004D02*
X68570002Y-67075000D01*
X74525000Y-73820002D02*
X68570002Y-67865004D01*
X75315004Y-73820002D02*
X74525000Y-73820002D01*
X76190002Y-74695000D02*
X75315004Y-73820002D01*
X68570002Y-48775000D02*
X68570002Y-54619998D01*
X67194998Y-66490000D02*
X65419981Y-64714983D01*
X154100000Y-110490000D02*
X107390002Y-110490000D01*
X89029998Y-94040000D02*
X87790011Y-92800013D01*
X87790011Y-92800013D02*
X87790011Y-90139007D01*
X107390002Y-110490000D02*
X90940002Y-94040000D01*
X65419981Y-49675019D02*
X66385000Y-48710000D01*
X65419981Y-64714983D02*
X65419981Y-49675019D01*
X90940002Y-94040000D02*
X89029998Y-94040000D01*
X87790011Y-90139007D02*
X86841015Y-89190011D01*
X86841015Y-89190011D02*
X85499007Y-89190011D01*
X85499007Y-89190011D02*
X84839991Y-88530995D01*
X67985002Y-66490000D02*
X67194998Y-66490000D01*
X84839991Y-88530995D02*
X84839991Y-80669989D01*
X84839991Y-80669989D02*
X80560004Y-76390002D01*
X68570002Y-67075000D02*
X67985002Y-66490000D01*
X80560004Y-76390002D02*
X77230000Y-76390002D01*
X76190002Y-75350004D02*
X76190002Y-74695000D01*
X77230000Y-76390002D02*
X76190002Y-75350004D01*
X68274999Y-54915001D02*
X67445001Y-54915001D01*
X68570002Y-54619998D02*
X68274999Y-54915001D01*
%TO.N,/Q1*%
X65869990Y-51410012D02*
X67445001Y-49835001D01*
X65869990Y-60084992D02*
X65869990Y-51410012D01*
X66905000Y-61410000D02*
X67933592Y-61410000D01*
X66320000Y-61995000D02*
X66905000Y-61410000D01*
X66320000Y-63075002D02*
X66320000Y-61995000D01*
X66905000Y-63660002D02*
X66320000Y-63075002D01*
X68223590Y-61120002D02*
X66905000Y-61120002D01*
X73035002Y-58610002D02*
X67985002Y-63660002D01*
X88660000Y-58610002D02*
X73035002Y-58610002D01*
X97070004Y-63690002D02*
X93740000Y-63690002D01*
X67933592Y-61410000D02*
X68223590Y-61120002D01*
X97425002Y-65522004D02*
X97425002Y-64045000D01*
X99053000Y-67150002D02*
X97425002Y-65522004D01*
X93740000Y-63690002D02*
X88660000Y-58610002D01*
X108190002Y-71843000D02*
X103497004Y-67150002D01*
X67985002Y-63660002D02*
X66905000Y-63660002D01*
X103497004Y-67150002D02*
X99053000Y-67150002D01*
X108190002Y-73025004D02*
X108190002Y-71843000D01*
X66905000Y-61120002D02*
X65869990Y-60084992D01*
X97425002Y-64045000D02*
X97070004Y-63690002D01*
X140719997Y-105554999D02*
X108190002Y-73025004D01*
X141510001Y-105554999D02*
X140719997Y-105554999D01*
X142009992Y-106054990D02*
X141510001Y-105554999D01*
X155171758Y-106054990D02*
X142009992Y-106054990D01*
X155450010Y-106333242D02*
X155171758Y-106054990D01*
X155450010Y-107624990D02*
X155450010Y-106333242D01*
X155125000Y-107950000D02*
X155450010Y-107624990D01*
X154100000Y-107950000D02*
X155125000Y-107950000D01*
%TO.N,/CONTROL_INPUT_0*%
X97070004Y-56070002D02*
X73910000Y-56070002D01*
X100145003Y-59145001D02*
X97070004Y-56070002D01*
X121380001Y-59145001D02*
X100145003Y-59145001D01*
X73910000Y-56070002D02*
X67445001Y-62535001D01*
X130710001Y-49815001D02*
X121380001Y-59145001D01*
%TD*%
M02*
