%TF.GenerationSoftware,KiCad,Pcbnew,5.1.9-73d0e3b20d~88~ubuntu20.04.1*%
%TF.CreationDate,2021-04-05T22:07:47+03:00*%
%TF.ProjectId,hymRC,68796d52-432e-46b6-9963-61645f706362,rev?*%
%TF.SameCoordinates,Original*%
%TF.FileFunction,Legend,Top*%
%TF.FilePolarity,Positive*%
%FSLAX46Y46*%
G04 Gerber Fmt 4.6, Leading zero omitted, Abs format (unit mm)*
G04 Created by KiCad (PCBNEW 5.1.9-73d0e3b20d~88~ubuntu20.04.1) date 2021-04-05 22:07:47*
%MOMM*%
%LPD*%
G01*
G04 APERTURE LIST*
%ADD10C,0.300000*%
%ADD11C,0.200000*%
%ADD12C,0.120000*%
%ADD13C,0.150000*%
G04 APERTURE END LIST*
D10*
X85308761Y-107040047D02*
X85308761Y-105340047D01*
X86037333Y-107040047D02*
X86037333Y-106149571D01*
X85956380Y-105987666D01*
X85794476Y-105906714D01*
X85551619Y-105906714D01*
X85389714Y-105987666D01*
X85308761Y-106068619D01*
X86684952Y-105906714D02*
X87089714Y-107040047D01*
X87494476Y-105906714D02*
X87089714Y-107040047D01*
X86927809Y-107444809D01*
X86846857Y-107525761D01*
X86684952Y-107606714D01*
X88142095Y-107040047D02*
X88142095Y-105906714D01*
X88142095Y-106068619D02*
X88223047Y-105987666D01*
X88384952Y-105906714D01*
X88627809Y-105906714D01*
X88789714Y-105987666D01*
X88870666Y-106149571D01*
X88870666Y-107040047D01*
X88870666Y-106149571D02*
X88951619Y-105987666D01*
X89113523Y-105906714D01*
X89356380Y-105906714D01*
X89518285Y-105987666D01*
X89599238Y-106149571D01*
X89599238Y-107040047D01*
X91380190Y-107040047D02*
X90813523Y-106230523D01*
X90408761Y-107040047D02*
X90408761Y-105340047D01*
X91056380Y-105340047D01*
X91218285Y-105421000D01*
X91299238Y-105501952D01*
X91380190Y-105663857D01*
X91380190Y-105906714D01*
X91299238Y-106068619D01*
X91218285Y-106149571D01*
X91056380Y-106230523D01*
X90408761Y-106230523D01*
X93080190Y-106878142D02*
X92999238Y-106959095D01*
X92756380Y-107040047D01*
X92594476Y-107040047D01*
X92351619Y-106959095D01*
X92189714Y-106797190D01*
X92108761Y-106635285D01*
X92027809Y-106311476D01*
X92027809Y-106068619D01*
X92108761Y-105744809D01*
X92189714Y-105582904D01*
X92351619Y-105421000D01*
X92594476Y-105340047D01*
X92756380Y-105340047D01*
X92999238Y-105421000D01*
X93080190Y-105501952D01*
X77982571Y-109890047D02*
X77415904Y-109080523D01*
X77011142Y-109890047D02*
X77011142Y-108190047D01*
X77658761Y-108190047D01*
X77820666Y-108271000D01*
X77901619Y-108351952D01*
X77982571Y-108513857D01*
X77982571Y-108756714D01*
X77901619Y-108918619D01*
X77820666Y-108999571D01*
X77658761Y-109080523D01*
X77011142Y-109080523D01*
X79358761Y-109809095D02*
X79196857Y-109890047D01*
X78873047Y-109890047D01*
X78711142Y-109809095D01*
X78630190Y-109647190D01*
X78630190Y-108999571D01*
X78711142Y-108837666D01*
X78873047Y-108756714D01*
X79196857Y-108756714D01*
X79358761Y-108837666D01*
X79439714Y-108999571D01*
X79439714Y-109161476D01*
X78630190Y-109323380D01*
X80168285Y-108756714D02*
X80168285Y-110456714D01*
X80168285Y-108837666D02*
X80330190Y-108756714D01*
X80654000Y-108756714D01*
X80815904Y-108837666D01*
X80896857Y-108918619D01*
X80977809Y-109080523D01*
X80977809Y-109566238D01*
X80896857Y-109728142D01*
X80815904Y-109809095D01*
X80654000Y-109890047D01*
X80330190Y-109890047D01*
X80168285Y-109809095D01*
X82354000Y-109809095D02*
X82192095Y-109890047D01*
X81868285Y-109890047D01*
X81706380Y-109809095D01*
X81625428Y-109647190D01*
X81625428Y-108999571D01*
X81706380Y-108837666D01*
X81868285Y-108756714D01*
X82192095Y-108756714D01*
X82354000Y-108837666D01*
X82434952Y-108999571D01*
X82434952Y-109161476D01*
X81625428Y-109323380D01*
X83892095Y-109890047D02*
X83892095Y-108999571D01*
X83811142Y-108837666D01*
X83649238Y-108756714D01*
X83325428Y-108756714D01*
X83163523Y-108837666D01*
X83892095Y-109809095D02*
X83730190Y-109890047D01*
X83325428Y-109890047D01*
X83163523Y-109809095D01*
X83082571Y-109647190D01*
X83082571Y-109485285D01*
X83163523Y-109323380D01*
X83325428Y-109242428D01*
X83730190Y-109242428D01*
X83892095Y-109161476D01*
X84458761Y-108756714D02*
X85106380Y-108756714D01*
X84701619Y-108190047D02*
X84701619Y-109647190D01*
X84782571Y-109809095D01*
X84944476Y-109890047D01*
X85106380Y-109890047D01*
X86320666Y-109809095D02*
X86158761Y-109890047D01*
X85834952Y-109890047D01*
X85673047Y-109809095D01*
X85592095Y-109647190D01*
X85592095Y-108999571D01*
X85673047Y-108837666D01*
X85834952Y-108756714D01*
X86158761Y-108756714D01*
X86320666Y-108837666D01*
X86401619Y-108999571D01*
X86401619Y-109161476D01*
X85592095Y-109323380D01*
X87130190Y-109890047D02*
X87130190Y-108756714D01*
X87130190Y-109080523D02*
X87211142Y-108918619D01*
X87292095Y-108837666D01*
X87454000Y-108756714D01*
X87615904Y-108756714D01*
X90449238Y-109728142D02*
X90368285Y-109809095D01*
X90125428Y-109890047D01*
X89963523Y-109890047D01*
X89720666Y-109809095D01*
X89558761Y-109647190D01*
X89477809Y-109485285D01*
X89396857Y-109161476D01*
X89396857Y-108918619D01*
X89477809Y-108594809D01*
X89558761Y-108432904D01*
X89720666Y-108271000D01*
X89963523Y-108190047D01*
X90125428Y-108190047D01*
X90368285Y-108271000D01*
X90449238Y-108351952D01*
X91420666Y-109890047D02*
X91258761Y-109809095D01*
X91177809Y-109728142D01*
X91096857Y-109566238D01*
X91096857Y-109080523D01*
X91177809Y-108918619D01*
X91258761Y-108837666D01*
X91420666Y-108756714D01*
X91663523Y-108756714D01*
X91825428Y-108837666D01*
X91906380Y-108918619D01*
X91987333Y-109080523D01*
X91987333Y-109566238D01*
X91906380Y-109728142D01*
X91825428Y-109809095D01*
X91663523Y-109890047D01*
X91420666Y-109890047D01*
X92715904Y-108756714D02*
X92715904Y-109890047D01*
X92715904Y-108918619D02*
X92796857Y-108837666D01*
X92958761Y-108756714D01*
X93201619Y-108756714D01*
X93363523Y-108837666D01*
X93444476Y-108999571D01*
X93444476Y-109890047D01*
X94011142Y-108756714D02*
X94658761Y-108756714D01*
X94254000Y-108190047D02*
X94254000Y-109647190D01*
X94334952Y-109809095D01*
X94496857Y-109890047D01*
X94658761Y-109890047D01*
X95225428Y-109890047D02*
X95225428Y-108756714D01*
X95225428Y-109080523D02*
X95306380Y-108918619D01*
X95387333Y-108837666D01*
X95549238Y-108756714D01*
X95711142Y-108756714D01*
X96520666Y-109890047D02*
X96358761Y-109809095D01*
X96277809Y-109728142D01*
X96196857Y-109566238D01*
X96196857Y-109080523D01*
X96277809Y-108918619D01*
X96358761Y-108837666D01*
X96520666Y-108756714D01*
X96763523Y-108756714D01*
X96925428Y-108837666D01*
X97006380Y-108918619D01*
X97087333Y-109080523D01*
X97087333Y-109566238D01*
X97006380Y-109728142D01*
X96925428Y-109809095D01*
X96763523Y-109890047D01*
X96520666Y-109890047D01*
X98058761Y-109890047D02*
X97896857Y-109809095D01*
X97815904Y-109647190D01*
X97815904Y-108190047D01*
X98949238Y-109890047D02*
X98787333Y-109809095D01*
X98706380Y-109647190D01*
X98706380Y-108190047D01*
X100244476Y-109809095D02*
X100082571Y-109890047D01*
X99758761Y-109890047D01*
X99596857Y-109809095D01*
X99515904Y-109647190D01*
X99515904Y-108999571D01*
X99596857Y-108837666D01*
X99758761Y-108756714D01*
X100082571Y-108756714D01*
X100244476Y-108837666D01*
X100325428Y-108999571D01*
X100325428Y-109161476D01*
X99515904Y-109323380D01*
X101054000Y-109890047D02*
X101054000Y-108756714D01*
X101054000Y-109080523D02*
X101134952Y-108918619D01*
X101215904Y-108837666D01*
X101377809Y-108756714D01*
X101539714Y-108756714D01*
D11*
X77900249Y-79098857D02*
X78585964Y-79098857D01*
X78093107Y-80298857D02*
X78243107Y-79098857D01*
X78835964Y-80298857D02*
X78985964Y-79098857D01*
X79521678Y-80298857D01*
X79671678Y-79098857D01*
X80128821Y-79098857D02*
X80778821Y-80298857D01*
X80928821Y-79098857D02*
X79978821Y-80298857D01*
X82078821Y-79498857D02*
X82535964Y-79498857D01*
X82300249Y-79098857D02*
X82171678Y-80127428D01*
X82214535Y-80241714D01*
X82321678Y-80298857D01*
X82435964Y-80298857D01*
X83007392Y-80298857D02*
X82900249Y-80241714D01*
X82850249Y-80184571D01*
X82807392Y-80070285D01*
X82850249Y-79727428D01*
X82921678Y-79613142D01*
X82985964Y-79556000D01*
X83107392Y-79498857D01*
X83278821Y-79498857D01*
X83385964Y-79556000D01*
X83435964Y-79613142D01*
X83478821Y-79727428D01*
X83435964Y-80070285D01*
X83364535Y-80184571D01*
X83300249Y-80241714D01*
X83178821Y-80298857D01*
X83007392Y-80298857D01*
X84814535Y-79098857D02*
X85500249Y-79098857D01*
X85007392Y-80298857D02*
X85157392Y-79098857D01*
X85735964Y-79956000D02*
X86307392Y-79956000D01*
X85578821Y-80298857D02*
X86128821Y-79098857D01*
X86378821Y-80298857D01*
X86814535Y-79098857D02*
X87614535Y-79098857D01*
X86950249Y-80298857D01*
X88300249Y-79098857D02*
X88528821Y-79098857D01*
X88635964Y-79156000D01*
X88735964Y-79270285D01*
X88764535Y-79498857D01*
X88714535Y-79898857D01*
X88628821Y-80127428D01*
X88500249Y-80241714D01*
X88378821Y-80298857D01*
X88150249Y-80298857D01*
X88043107Y-80241714D01*
X87943107Y-80127428D01*
X87914535Y-79898857D01*
X87964535Y-79498857D01*
X88050249Y-79270285D01*
X88178821Y-79156000D01*
X88300249Y-79098857D01*
X89178821Y-80298857D02*
X89328821Y-79098857D01*
X89621678Y-79956000D01*
X90128821Y-79098857D01*
X89978821Y-80298857D01*
X91464535Y-80298857D02*
X91614535Y-79098857D01*
X91543107Y-79670285D02*
X92228821Y-79670285D01*
X92150249Y-80298857D02*
X92300249Y-79098857D01*
X93335964Y-79498857D02*
X93235964Y-80298857D01*
X92821678Y-79498857D02*
X92743107Y-80127428D01*
X92785964Y-80241714D01*
X92893107Y-80298857D01*
X93064535Y-80298857D01*
X93185964Y-80241714D01*
X93250249Y-80184571D01*
X94321678Y-80298857D02*
X94471678Y-79098857D01*
X94328821Y-80241714D02*
X94207392Y-80298857D01*
X93978821Y-80298857D01*
X93871678Y-80241714D01*
X93821678Y-80184571D01*
X93778821Y-80070285D01*
X93821678Y-79727428D01*
X93893107Y-79613142D01*
X93957392Y-79556000D01*
X94078821Y-79498857D01*
X94307392Y-79498857D01*
X94414535Y-79556000D01*
X95407392Y-80298857D02*
X95485964Y-79670285D01*
X95443107Y-79556000D01*
X95335964Y-79498857D01*
X95107392Y-79498857D01*
X94985964Y-79556000D01*
X95414535Y-80241714D02*
X95293107Y-80298857D01*
X95007392Y-80298857D01*
X94900249Y-80241714D01*
X94857392Y-80127428D01*
X94871678Y-80013142D01*
X94943107Y-79898857D01*
X95064535Y-79841714D01*
X95350249Y-79841714D01*
X95471678Y-79784571D01*
X96821678Y-79498857D02*
X97278821Y-79498857D01*
X96893107Y-80298857D02*
X97021678Y-79270285D01*
X97093107Y-79156000D01*
X97214535Y-79098857D01*
X97328821Y-79098857D01*
X97750250Y-80298857D02*
X97643107Y-80241714D01*
X97593107Y-80184571D01*
X97550250Y-80070285D01*
X97593107Y-79727428D01*
X97664535Y-79613142D01*
X97728821Y-79556000D01*
X97850250Y-79498857D01*
X98021678Y-79498857D01*
X98128821Y-79556000D01*
X98178821Y-79613142D01*
X98221678Y-79727428D01*
X98178821Y-80070285D01*
X98107392Y-80184571D01*
X98043107Y-80241714D01*
X97921678Y-80298857D01*
X97750250Y-80298857D01*
X98664535Y-80298857D02*
X98764535Y-79498857D01*
X98735964Y-79727428D02*
X98807392Y-79613142D01*
X98871678Y-79556000D01*
X98993107Y-79498857D01*
X99107392Y-79498857D01*
X100271678Y-80241714D02*
X100378821Y-80298857D01*
X100607392Y-80298857D01*
X100728821Y-80241714D01*
X100800249Y-80127428D01*
X100807392Y-80070285D01*
X100764535Y-79956000D01*
X100657392Y-79898857D01*
X100485964Y-79898857D01*
X100378821Y-79841714D01*
X100335964Y-79727428D01*
X100343107Y-79670285D01*
X100414535Y-79556000D01*
X100535964Y-79498857D01*
X100707392Y-79498857D01*
X100814535Y-79556000D01*
X101907392Y-79498857D02*
X101807392Y-80298857D01*
X101393107Y-79498857D02*
X101314535Y-80127428D01*
X101357392Y-80241714D01*
X101464535Y-80298857D01*
X101635964Y-80298857D01*
X101757392Y-80241714D01*
X101821678Y-80184571D01*
X102478821Y-79498857D02*
X102328821Y-80698857D01*
X102471678Y-79556000D02*
X102593107Y-79498857D01*
X102821678Y-79498857D01*
X102928821Y-79556000D01*
X102978821Y-79613142D01*
X103021678Y-79727428D01*
X102978821Y-80070285D01*
X102907392Y-80184571D01*
X102843107Y-80241714D01*
X102721678Y-80298857D01*
X102493107Y-80298857D01*
X102385964Y-80241714D01*
X103564535Y-79498857D02*
X103414535Y-80698857D01*
X103557392Y-79556000D02*
X103678821Y-79498857D01*
X103907392Y-79498857D01*
X104014535Y-79556000D01*
X104064535Y-79613142D01*
X104107392Y-79727428D01*
X104064535Y-80070285D01*
X103993107Y-80184571D01*
X103928821Y-80241714D01*
X103807392Y-80298857D01*
X103578821Y-80298857D01*
X103471678Y-80241714D01*
X104721678Y-80298857D02*
X104614535Y-80241714D01*
X104564535Y-80184571D01*
X104521678Y-80070285D01*
X104564535Y-79727428D01*
X104635964Y-79613142D01*
X104700250Y-79556000D01*
X104821678Y-79498857D01*
X104993107Y-79498857D01*
X105100250Y-79556000D01*
X105150250Y-79613142D01*
X105193107Y-79727428D01*
X105150250Y-80070285D01*
X105078821Y-80184571D01*
X105014535Y-80241714D01*
X104893107Y-80298857D01*
X104721678Y-80298857D01*
X105635964Y-80298857D02*
X105735964Y-79498857D01*
X105707392Y-79727428D02*
X105778821Y-79613142D01*
X105843107Y-79556000D01*
X105964535Y-79498857D01*
X106078821Y-79498857D01*
X106307392Y-79498857D02*
X106764535Y-79498857D01*
X106528821Y-79098857D02*
X106400250Y-80127428D01*
X106443107Y-80241714D01*
X106550250Y-80298857D01*
X106664535Y-80298857D01*
X47865535Y-78520857D02*
X48015535Y-77320857D01*
X48301250Y-77320857D01*
X48465535Y-77378000D01*
X48565535Y-77492285D01*
X48608392Y-77606571D01*
X48636964Y-77835142D01*
X48615535Y-78006571D01*
X48529821Y-78235142D01*
X48458392Y-78349428D01*
X48329821Y-78463714D01*
X48151250Y-78520857D01*
X47865535Y-78520857D01*
X49529821Y-78463714D02*
X49408392Y-78520857D01*
X49179821Y-78520857D01*
X49072678Y-78463714D01*
X49029821Y-78349428D01*
X49086964Y-77892285D01*
X49158392Y-77778000D01*
X49279821Y-77720857D01*
X49508392Y-77720857D01*
X49615535Y-77778000D01*
X49658392Y-77892285D01*
X49644107Y-78006571D01*
X49058392Y-78120857D01*
X50044107Y-78463714D02*
X50151250Y-78520857D01*
X50379821Y-78520857D01*
X50501250Y-78463714D01*
X50572678Y-78349428D01*
X50579821Y-78292285D01*
X50536964Y-78178000D01*
X50429821Y-78120857D01*
X50258392Y-78120857D01*
X50151250Y-78063714D01*
X50108392Y-77949428D01*
X50115535Y-77892285D01*
X50186964Y-77778000D01*
X50308392Y-77720857D01*
X50479821Y-77720857D01*
X50586964Y-77778000D01*
X51065535Y-78520857D02*
X51165535Y-77720857D01*
X51215535Y-77320857D02*
X51151250Y-77378000D01*
X51201250Y-77435142D01*
X51265535Y-77378000D01*
X51215535Y-77320857D01*
X51201250Y-77435142D01*
X52251250Y-77720857D02*
X52129821Y-78692285D01*
X52058392Y-78806571D01*
X51994107Y-78863714D01*
X51872678Y-78920857D01*
X51701250Y-78920857D01*
X51594107Y-78863714D01*
X52158392Y-78463714D02*
X52036964Y-78520857D01*
X51808392Y-78520857D01*
X51701250Y-78463714D01*
X51651250Y-78406571D01*
X51608392Y-78292285D01*
X51651250Y-77949428D01*
X51722678Y-77835142D01*
X51786964Y-77778000D01*
X51908392Y-77720857D01*
X52136964Y-77720857D01*
X52244107Y-77778000D01*
X52822678Y-77720857D02*
X52722678Y-78520857D01*
X52808392Y-77835142D02*
X52872678Y-77778000D01*
X52994107Y-77720857D01*
X53165535Y-77720857D01*
X53272678Y-77778000D01*
X53315535Y-77892285D01*
X53236964Y-78520857D01*
X54272678Y-78463714D02*
X54151250Y-78520857D01*
X53922678Y-78520857D01*
X53815535Y-78463714D01*
X53772678Y-78349428D01*
X53829821Y-77892285D01*
X53901250Y-77778000D01*
X54022678Y-77720857D01*
X54251250Y-77720857D01*
X54358392Y-77778000D01*
X54401250Y-77892285D01*
X54386964Y-78006571D01*
X53801250Y-78120857D01*
X55351250Y-78520857D02*
X55501250Y-77320857D01*
X55358392Y-78463714D02*
X55236964Y-78520857D01*
X55008392Y-78520857D01*
X54901250Y-78463714D01*
X54851250Y-78406571D01*
X54808392Y-78292285D01*
X54851250Y-77949428D01*
X54922678Y-77835142D01*
X54986964Y-77778000D01*
X55108392Y-77720857D01*
X55336964Y-77720857D01*
X55444107Y-77778000D01*
X56836964Y-78520857D02*
X56986964Y-77320857D01*
X56929821Y-77778000D02*
X57051250Y-77720857D01*
X57279821Y-77720857D01*
X57386964Y-77778000D01*
X57436964Y-77835142D01*
X57479821Y-77949428D01*
X57436964Y-78292285D01*
X57365535Y-78406571D01*
X57301250Y-78463714D01*
X57179821Y-78520857D01*
X56951250Y-78520857D01*
X56844107Y-78463714D01*
X57908392Y-77720857D02*
X58094107Y-78520857D01*
X58479821Y-77720857D02*
X58094107Y-78520857D01*
X57944107Y-78806571D01*
X57879821Y-78863714D01*
X57758392Y-78920857D01*
X59729821Y-77320857D02*
X60415535Y-77320857D01*
X59922678Y-78520857D02*
X60072678Y-77320857D01*
X60651250Y-78178000D02*
X61222678Y-78178000D01*
X60494107Y-78520857D02*
X61044107Y-77320857D01*
X61294107Y-78520857D01*
X61729821Y-77320857D02*
X62529821Y-77320857D01*
X61865535Y-78520857D01*
X62872678Y-77320857D02*
X63008392Y-78520857D01*
X63344107Y-77663714D01*
X63465535Y-78520857D01*
X63901250Y-77320857D01*
X65222678Y-77263714D02*
X64001250Y-78806571D01*
X65844107Y-77320857D02*
X66072678Y-77320857D01*
X66179821Y-77378000D01*
X66279821Y-77492285D01*
X66308392Y-77720857D01*
X66258392Y-78120857D01*
X66172678Y-78349428D01*
X66044107Y-78463714D01*
X65922678Y-78520857D01*
X65694107Y-78520857D01*
X65586964Y-78463714D01*
X65486964Y-78349428D01*
X65458392Y-78120857D01*
X65508392Y-77720857D01*
X65594107Y-77492285D01*
X65722678Y-77378000D01*
X65844107Y-77320857D01*
X66722678Y-78520857D02*
X66872678Y-77320857D01*
X66801250Y-77892285D02*
X67486964Y-77892285D01*
X67408392Y-78520857D02*
X67558392Y-77320857D01*
X68058392Y-77435142D02*
X68122678Y-77378000D01*
X68244107Y-77320857D01*
X68529821Y-77320857D01*
X68636964Y-77378000D01*
X68686964Y-77435142D01*
X68729821Y-77549428D01*
X68715535Y-77663714D01*
X68636964Y-77835142D01*
X67865535Y-78520857D01*
X68608392Y-78520857D01*
X69272678Y-77320857D02*
X69151250Y-78292285D01*
X69194107Y-78406571D01*
X69244107Y-78463714D01*
X69351250Y-78520857D01*
X69579821Y-78520857D01*
X69701250Y-78463714D01*
X69765535Y-78406571D01*
X69836964Y-78292285D01*
X69958392Y-77320857D01*
X70379821Y-78520857D02*
X70529821Y-77320857D01*
X70815535Y-77320857D01*
X70979821Y-77378000D01*
X71079821Y-77492285D01*
X71122678Y-77606571D01*
X71151250Y-77835142D01*
X71129821Y-78006571D01*
X71044107Y-78235142D01*
X70972678Y-78349428D01*
X70844107Y-78463714D01*
X70665535Y-78520857D01*
X70379821Y-78520857D01*
X71529821Y-78463714D02*
X71694107Y-78520857D01*
X71979821Y-78520857D01*
X72101250Y-78463714D01*
X72165535Y-78406571D01*
X72236964Y-78292285D01*
X72251250Y-78178000D01*
X72208392Y-78063714D01*
X72158392Y-78006571D01*
X72051250Y-77949428D01*
X71829821Y-77892285D01*
X71722678Y-77835142D01*
X71672678Y-77778000D01*
X71629821Y-77663714D01*
X71644107Y-77549428D01*
X71715535Y-77435142D01*
X71779821Y-77378000D01*
X71901250Y-77320857D01*
X72186964Y-77320857D01*
X72351250Y-77378000D01*
X73694107Y-78063714D02*
X74608392Y-78063714D01*
X76515535Y-77892285D02*
X76679821Y-77949428D01*
X76729821Y-78006571D01*
X76772678Y-78120857D01*
X76751250Y-78292285D01*
X76679821Y-78406571D01*
X76615535Y-78463714D01*
X76494107Y-78520857D01*
X76036964Y-78520857D01*
X76186964Y-77320857D01*
X76586964Y-77320857D01*
X76694107Y-77378000D01*
X76744107Y-77435142D01*
X76786964Y-77549428D01*
X76772678Y-77663714D01*
X76701250Y-77778000D01*
X76636964Y-77835142D01*
X76515535Y-77892285D01*
X76115535Y-77892285D01*
X77751250Y-78520857D02*
X77829821Y-77892285D01*
X77786964Y-77778000D01*
X77679821Y-77720857D01*
X77451250Y-77720857D01*
X77329821Y-77778000D01*
X77758392Y-78463714D02*
X77636964Y-78520857D01*
X77351250Y-78520857D01*
X77244107Y-78463714D01*
X77201250Y-78349428D01*
X77215535Y-78235142D01*
X77286964Y-78120857D01*
X77408392Y-78063714D01*
X77694107Y-78063714D01*
X77815535Y-78006571D01*
X78322678Y-78520857D02*
X78422678Y-77720857D01*
X78394107Y-77949428D02*
X78465535Y-77835142D01*
X78529821Y-77778000D01*
X78651250Y-77720857D01*
X78765535Y-77720857D01*
X79065535Y-78520857D02*
X79165535Y-77720857D01*
X79215535Y-77320857D02*
X79151250Y-77378000D01*
X79201250Y-77435142D01*
X79265535Y-77378000D01*
X79215535Y-77320857D01*
X79201250Y-77435142D01*
X79586964Y-78463714D02*
X79694107Y-78520857D01*
X79922678Y-78520857D01*
X80044107Y-78463714D01*
X80115535Y-78349428D01*
X80122678Y-78292285D01*
X80079821Y-78178000D01*
X79972678Y-78120857D01*
X79801250Y-78120857D01*
X79694107Y-78063714D01*
X79651250Y-77949428D01*
X79658392Y-77892285D01*
X79729821Y-77778000D01*
X79851250Y-77720857D01*
X80022678Y-77720857D01*
X80129821Y-77778000D01*
X81522678Y-78520857D02*
X81672678Y-77320857D01*
X81958392Y-77320857D01*
X82122678Y-77378000D01*
X82222678Y-77492285D01*
X82265535Y-77606571D01*
X82294107Y-77835142D01*
X82272678Y-78006571D01*
X82186964Y-78235142D01*
X82115535Y-78349428D01*
X81986964Y-78463714D01*
X81808392Y-78520857D01*
X81522678Y-78520857D01*
X82722678Y-78520857D02*
X82872678Y-77320857D01*
X83294107Y-78520857D02*
X83444107Y-77320857D01*
X83979821Y-78520857D01*
X84129821Y-77320857D01*
X85251250Y-78406571D02*
X85186964Y-78463714D01*
X85008392Y-78520857D01*
X84894107Y-78520857D01*
X84729821Y-78463714D01*
X84629821Y-78349428D01*
X84586964Y-78235142D01*
X84558392Y-78006571D01*
X84579821Y-77835142D01*
X84665535Y-77606571D01*
X84736964Y-77492285D01*
X84865535Y-77378000D01*
X85044107Y-77320857D01*
X85158392Y-77320857D01*
X85322678Y-77378000D01*
X85372678Y-77435142D01*
X86722678Y-78063714D02*
X87636964Y-78063714D01*
X89144107Y-77435142D02*
X89208392Y-77378000D01*
X89329821Y-77320857D01*
X89615535Y-77320857D01*
X89722678Y-77378000D01*
X89772678Y-77435142D01*
X89815535Y-77549428D01*
X89801250Y-77663714D01*
X89722678Y-77835142D01*
X88951250Y-78520857D01*
X89694107Y-78520857D01*
X90586964Y-77320857D02*
X90701250Y-77320857D01*
X90808392Y-77378000D01*
X90858392Y-77435142D01*
X90901250Y-77549428D01*
X90929821Y-77778000D01*
X90894107Y-78063714D01*
X90808392Y-78292285D01*
X90736964Y-78406571D01*
X90672678Y-78463714D01*
X90551250Y-78520857D01*
X90436964Y-78520857D01*
X90329821Y-78463714D01*
X90279821Y-78406571D01*
X90236964Y-78292285D01*
X90208392Y-78063714D01*
X90244107Y-77778000D01*
X90329821Y-77549428D01*
X90401250Y-77435142D01*
X90465535Y-77378000D01*
X90586964Y-77320857D01*
X91429821Y-77435142D02*
X91494107Y-77378000D01*
X91615535Y-77320857D01*
X91901250Y-77320857D01*
X92008392Y-77378000D01*
X92058392Y-77435142D01*
X92101250Y-77549428D01*
X92086964Y-77663714D01*
X92008392Y-77835142D01*
X91236964Y-78520857D01*
X91979821Y-78520857D01*
X93122678Y-78520857D02*
X92436964Y-78520857D01*
X92779821Y-78520857D02*
X92929821Y-77320857D01*
X92794107Y-77492285D01*
X92665535Y-77606571D01*
X92544107Y-77663714D01*
X97272678Y-77320857D02*
X97522678Y-78520857D01*
X98072678Y-77320857D01*
X98951250Y-78520857D02*
X98265535Y-78520857D01*
X98608392Y-78520857D02*
X98758392Y-77320857D01*
X98622678Y-77492285D01*
X98494107Y-77606571D01*
X98372678Y-77663714D01*
X99479821Y-78406571D02*
X99529821Y-78463714D01*
X99465535Y-78520857D01*
X99415535Y-78463714D01*
X99479821Y-78406571D01*
X99465535Y-78520857D01*
X100415535Y-77320857D02*
X100529821Y-77320857D01*
X100636964Y-77378000D01*
X100686964Y-77435142D01*
X100729821Y-77549428D01*
X100758392Y-77778000D01*
X100722678Y-78063714D01*
X100636964Y-78292285D01*
X100565535Y-78406571D01*
X100501250Y-78463714D01*
X100379821Y-78520857D01*
X100265535Y-78520857D01*
X100158392Y-78463714D01*
X100108392Y-78406571D01*
X100065535Y-78292285D01*
X100036964Y-78063714D01*
X100072678Y-77778000D01*
X100158392Y-77549428D01*
X100229821Y-77435142D01*
X100294107Y-77378000D01*
X100415535Y-77320857D01*
X101808392Y-78520857D02*
X101122678Y-78520857D01*
X101465535Y-78520857D02*
X101615535Y-77320857D01*
X101479821Y-77492285D01*
X101351250Y-77606571D01*
X101229821Y-77663714D01*
D10*
X113522428Y-108501642D02*
X114665285Y-108501642D01*
X115379571Y-108501642D02*
X116522428Y-108501642D01*
X117236714Y-108501642D02*
X118379571Y-108501642D01*
D12*
%TO.C,J12*%
X118808500Y-109474000D02*
X118808500Y-119634000D01*
X120078500Y-109474000D02*
X112458500Y-109474000D01*
X112458500Y-109474000D02*
X112458500Y-119634000D01*
X112458500Y-119634000D02*
X120078500Y-119634000D01*
X120078500Y-119634000D02*
X120078500Y-109474000D01*
%TO.C,U12*%
X29861000Y-109922000D02*
X28411000Y-109922000D01*
X28411000Y-109922000D02*
X28411000Y-115122000D01*
X28411000Y-115122000D02*
X33311000Y-115122000D01*
X33311000Y-115122000D02*
X33311000Y-109922000D01*
X33311000Y-109922000D02*
X31861000Y-109922000D01*
X31861000Y-109922000D02*
G75*
G02*
X29861000Y-109922000I-1000000J0D01*
G01*
%TO.C,U10*%
X101298500Y-52391000D02*
X99848500Y-52391000D01*
X99848500Y-52391000D02*
X99848500Y-57591000D01*
X99848500Y-57591000D02*
X104748500Y-57591000D01*
X104748500Y-57591000D02*
X104748500Y-52391000D01*
X104748500Y-52391000D02*
X103298500Y-52391000D01*
X103298500Y-52391000D02*
G75*
G02*
X101298500Y-52391000I-1000000J0D01*
G01*
%TO.C,U9*%
X88860000Y-122460000D02*
X99100000Y-122460000D01*
X88860000Y-127101000D02*
X99100000Y-127101000D01*
X88860000Y-122460000D02*
X88860000Y-127101000D01*
X99100000Y-122460000D02*
X99100000Y-127101000D01*
X88860000Y-123970000D02*
X99100000Y-123970000D01*
X92130000Y-122460000D02*
X92130000Y-123970000D01*
X95831000Y-122460000D02*
X95831000Y-123970000D01*
%TO.C,U8*%
X101560000Y-122460000D02*
X111800000Y-122460000D01*
X101560000Y-127101000D02*
X111800000Y-127101000D01*
X101560000Y-122460000D02*
X101560000Y-127101000D01*
X111800000Y-122460000D02*
X111800000Y-127101000D01*
X101560000Y-123970000D02*
X111800000Y-123970000D01*
X104830000Y-122460000D02*
X104830000Y-123970000D01*
X108531000Y-122460000D02*
X108531000Y-123970000D01*
%TO.C,U3*%
X49323500Y-115693500D02*
X50773500Y-115693500D01*
X50773500Y-115693500D02*
X50773500Y-110493500D01*
X50773500Y-110493500D02*
X45873500Y-110493500D01*
X45873500Y-110493500D02*
X45873500Y-115693500D01*
X45873500Y-115693500D02*
X47323500Y-115693500D01*
X47323500Y-115693500D02*
G75*
G02*
X49323500Y-115693500I1000000J0D01*
G01*
%TO.C,U2*%
X60917000Y-70231000D02*
X60917000Y-74091000D01*
X60917000Y-74091000D02*
X61162000Y-74091000D01*
X60917000Y-70231000D02*
X60917000Y-66371000D01*
X60917000Y-66371000D02*
X61162000Y-66371000D01*
X79037000Y-70231000D02*
X79037000Y-74091000D01*
X79037000Y-74091000D02*
X78792000Y-74091000D01*
X79037000Y-70231000D02*
X79037000Y-66371000D01*
X79037000Y-66371000D02*
X78792000Y-66371000D01*
X78792000Y-66371000D02*
X78792000Y-64556000D01*
%TO.C,U1*%
X96837500Y-65822500D02*
X94077500Y-65822500D01*
X94077500Y-65822500D02*
X94077500Y-66097500D01*
X96837500Y-65822500D02*
X99597500Y-65822500D01*
X99597500Y-65822500D02*
X99597500Y-66097500D01*
X96837500Y-73242500D02*
X94077500Y-73242500D01*
X94077500Y-73242500D02*
X94077500Y-72967500D01*
X96837500Y-73242500D02*
X99597500Y-73242500D01*
X99597500Y-73242500D02*
X99597500Y-72967500D01*
X99597500Y-72967500D02*
X101287500Y-72967500D01*
%TO.C,RV8*%
X99036500Y-104208000D02*
X88796500Y-104208000D01*
X99036500Y-94167000D02*
X88796500Y-94167000D01*
X99036500Y-104208000D02*
X99036500Y-103178000D01*
X99036500Y-100196000D02*
X99036500Y-98177000D01*
X99036500Y-95197000D02*
X99036500Y-94167000D01*
X88796500Y-104208000D02*
X88796500Y-100677000D01*
X88796500Y-97697000D02*
X88796500Y-94167000D01*
%TO.C,RV7*%
X76096500Y-83625000D02*
X86336500Y-83625000D01*
X76096500Y-93666000D02*
X86336500Y-93666000D01*
X76096500Y-83625000D02*
X76096500Y-84655000D01*
X76096500Y-87637000D02*
X76096500Y-89656000D01*
X76096500Y-92636000D02*
X76096500Y-93666000D01*
X86336500Y-83625000D02*
X86336500Y-87156000D01*
X86336500Y-90136000D02*
X86336500Y-93666000D01*
%TO.C,RV6*%
X86336500Y-104208000D02*
X76096500Y-104208000D01*
X86336500Y-94167000D02*
X76096500Y-94167000D01*
X86336500Y-104208000D02*
X86336500Y-103178000D01*
X86336500Y-100196000D02*
X86336500Y-98177000D01*
X86336500Y-95197000D02*
X86336500Y-94167000D01*
X76096500Y-104208000D02*
X76096500Y-100677000D01*
X76096500Y-97697000D02*
X76096500Y-94167000D01*
%TO.C,RV5*%
X99036500Y-93667000D02*
X88796500Y-93667000D01*
X99036500Y-83626000D02*
X88796500Y-83626000D01*
X99036500Y-93667000D02*
X99036500Y-92637000D01*
X99036500Y-89655000D02*
X99036500Y-87636000D01*
X99036500Y-84656000D02*
X99036500Y-83626000D01*
X88796500Y-93667000D02*
X88796500Y-90136000D01*
X88796500Y-87156000D02*
X88796500Y-83626000D01*
%TO.C,RV4*%
X61146000Y-92178500D02*
X61146000Y-81938500D01*
X71187000Y-92178500D02*
X71187000Y-81938500D01*
X61146000Y-92178500D02*
X62176000Y-92178500D01*
X65158000Y-92178500D02*
X67177000Y-92178500D01*
X70157000Y-92178500D02*
X71187000Y-92178500D01*
X61146000Y-81938500D02*
X64677000Y-81938500D01*
X67657000Y-81938500D02*
X71187000Y-81938500D01*
%TO.C,RV3*%
X47684000Y-106148500D02*
X47684000Y-95908500D01*
X57725000Y-106148500D02*
X57725000Y-95908500D01*
X47684000Y-106148500D02*
X48714000Y-106148500D01*
X51696000Y-106148500D02*
X53715000Y-106148500D01*
X56695000Y-106148500D02*
X57725000Y-106148500D01*
X47684000Y-95908500D02*
X51215000Y-95908500D01*
X54195000Y-95908500D02*
X57725000Y-95908500D01*
%TO.C,RV2*%
X57726000Y-81938500D02*
X57726000Y-92178500D01*
X47685000Y-81938500D02*
X47685000Y-92178500D01*
X57726000Y-81938500D02*
X56696000Y-81938500D01*
X53714000Y-81938500D02*
X51695000Y-81938500D01*
X48715000Y-81938500D02*
X47685000Y-81938500D01*
X57726000Y-92178500D02*
X54195000Y-92178500D01*
X51215000Y-92178500D02*
X47685000Y-92178500D01*
%TO.C,RV1*%
X60765000Y-106021500D02*
X60765000Y-95781500D01*
X70806000Y-106021500D02*
X70806000Y-95781500D01*
X60765000Y-106021500D02*
X61795000Y-106021500D01*
X64777000Y-106021500D02*
X66796000Y-106021500D01*
X69776000Y-106021500D02*
X70806000Y-106021500D01*
X60765000Y-95781500D02*
X64296000Y-95781500D01*
X67276000Y-95781500D02*
X70806000Y-95781500D01*
%TO.C,R93*%
X38380936Y-113184000D02*
X38835064Y-113184000D01*
X38380936Y-114654000D02*
X38835064Y-114654000D01*
%TO.C,R92*%
X38507936Y-110263000D02*
X38962064Y-110263000D01*
X38507936Y-111733000D02*
X38962064Y-111733000D01*
%TO.C,R91*%
X35787064Y-117575000D02*
X35332936Y-117575000D01*
X35787064Y-116105000D02*
X35332936Y-116105000D01*
%TO.C,R90*%
X35787064Y-108939000D02*
X35332936Y-108939000D01*
X35787064Y-107469000D02*
X35332936Y-107469000D01*
%TO.C,R89*%
X28230564Y-117511500D02*
X27776436Y-117511500D01*
X28230564Y-116041500D02*
X27776436Y-116041500D01*
%TO.C,R84*%
X99795064Y-50709500D02*
X99340936Y-50709500D01*
X99795064Y-49239500D02*
X99340936Y-49239500D01*
%TO.C,R83*%
X100991936Y-58574000D02*
X101446064Y-58574000D01*
X100991936Y-60044000D02*
X101446064Y-60044000D01*
%TO.C,R82*%
X98906000Y-60097936D02*
X98906000Y-60552064D01*
X97436000Y-60097936D02*
X97436000Y-60552064D01*
%TO.C,R81*%
X101065000Y-62129936D02*
X101065000Y-62584064D01*
X99595000Y-62129936D02*
X99595000Y-62584064D01*
%TO.C,R78*%
X45111936Y-116359000D02*
X45566064Y-116359000D01*
X45111936Y-117829000D02*
X45566064Y-117829000D01*
%TO.C,R77*%
X51725564Y-117956000D02*
X51271436Y-117956000D01*
X51725564Y-116486000D02*
X51271436Y-116486000D01*
%TO.C,R41*%
X58447000Y-91095564D02*
X58447000Y-90641436D01*
X59917000Y-91095564D02*
X59917000Y-90641436D01*
%TO.C,R32*%
X58320000Y-83475564D02*
X58320000Y-83021436D01*
X59790000Y-83475564D02*
X59790000Y-83021436D01*
%TO.C,R24*%
X58447000Y-97064564D02*
X58447000Y-96610436D01*
X59917000Y-97064564D02*
X59917000Y-96610436D01*
%TO.C,R23*%
X106452936Y-108866000D02*
X106907064Y-108866000D01*
X106452936Y-110336000D02*
X106907064Y-110336000D01*
%TO.C,R22*%
X109628000Y-113003064D02*
X109628000Y-112548936D01*
X111098000Y-113003064D02*
X111098000Y-112548936D01*
%TO.C,R21*%
X109256564Y-39152500D02*
X108802436Y-39152500D01*
X109256564Y-37682500D02*
X108802436Y-37682500D01*
%TO.C,R20*%
X111469500Y-37628564D02*
X111469500Y-37174436D01*
X112939500Y-37628564D02*
X112939500Y-37174436D01*
%TO.C,R17*%
X28093936Y-97372500D02*
X28548064Y-97372500D01*
X28093936Y-98842500D02*
X28548064Y-98842500D01*
%TO.C,R16*%
X28157436Y-93880000D02*
X28611564Y-93880000D01*
X28157436Y-95350000D02*
X28611564Y-95350000D01*
%TO.C,R13*%
X55382936Y-111025000D02*
X55837064Y-111025000D01*
X55382936Y-112495000D02*
X55837064Y-112495000D01*
%TO.C,R12*%
X55462436Y-113628500D02*
X55916564Y-113628500D01*
X55462436Y-115098500D02*
X55916564Y-115098500D01*
%TO.C,R7*%
X109510500Y-54446436D02*
X109510500Y-54900564D01*
X108040500Y-54446436D02*
X108040500Y-54900564D01*
%TO.C,R6*%
X109955000Y-50445936D02*
X109955000Y-50900064D01*
X108485000Y-50445936D02*
X108485000Y-50900064D01*
%TO.C,R3*%
X89689000Y-71807564D02*
X89689000Y-71353436D01*
X91159000Y-71807564D02*
X91159000Y-71353436D01*
%TO.C,R2*%
X103732000Y-70765936D02*
X103732000Y-71220064D01*
X102262000Y-70765936D02*
X102262000Y-71220064D01*
%TO.C,R1*%
X105827500Y-71035936D02*
X105827500Y-71490064D01*
X104357500Y-71035936D02*
X104357500Y-71490064D01*
%TO.C,Q4*%
X107386000Y-42352500D02*
X108316000Y-42352500D01*
X110546000Y-42352500D02*
X109616000Y-42352500D01*
X110546000Y-42352500D02*
X110546000Y-40192500D01*
X107386000Y-42352500D02*
X107386000Y-40892500D01*
%TO.C,Q3*%
X29081000Y-102799000D02*
X29081000Y-101869000D01*
X29081000Y-99639000D02*
X29081000Y-100569000D01*
X29081000Y-99639000D02*
X26921000Y-99639000D01*
X29081000Y-102799000D02*
X27621000Y-102799000D01*
%TO.C,K5*%
X47324000Y-56583000D02*
X47514000Y-56583000D01*
X47324000Y-57043000D02*
X47324000Y-56583000D01*
X39544000Y-57043000D02*
X39544000Y-56583000D01*
X47324000Y-54923000D02*
X47514000Y-54923000D01*
X47324000Y-42223000D02*
X47324000Y-41763000D01*
X39544000Y-42223000D02*
X39544000Y-41763000D01*
X47324000Y-54923000D02*
X47324000Y-51503000D01*
X39544000Y-54923000D02*
X39544000Y-51503000D01*
X39544000Y-41763000D02*
X47324000Y-41763000D01*
X39544000Y-57043000D02*
X47324000Y-57043000D01*
X43844000Y-55153000D02*
X43144000Y-55153000D01*
X43844000Y-56353000D02*
X43844000Y-55153000D01*
X43144000Y-56353000D02*
X43844000Y-56353000D01*
X43144000Y-55153000D02*
X43144000Y-56353000D01*
X43844000Y-55553000D02*
X43144000Y-55953000D01*
%TO.C,K4*%
X106252000Y-48074000D02*
X106442000Y-48074000D01*
X106252000Y-48534000D02*
X106252000Y-48074000D01*
X98472000Y-48534000D02*
X98472000Y-48074000D01*
X106252000Y-46414000D02*
X106442000Y-46414000D01*
X106252000Y-33714000D02*
X106252000Y-33254000D01*
X98472000Y-33714000D02*
X98472000Y-33254000D01*
X106252000Y-46414000D02*
X106252000Y-42994000D01*
X98472000Y-46414000D02*
X98472000Y-42994000D01*
X98472000Y-33254000D02*
X106252000Y-33254000D01*
X98472000Y-48534000D02*
X106252000Y-48534000D01*
X102772000Y-46644000D02*
X102072000Y-46644000D01*
X102772000Y-47844000D02*
X102772000Y-46644000D01*
X102072000Y-47844000D02*
X102772000Y-47844000D01*
X102072000Y-46644000D02*
X102072000Y-47844000D01*
X102772000Y-47044000D02*
X102072000Y-47444000D01*
%TO.C,K3*%
X38671000Y-103575000D02*
X37371000Y-103575000D01*
X38671000Y-102275000D02*
X38671000Y-103575000D01*
X38471000Y-103375000D02*
X33271000Y-103375000D01*
X38471000Y-75175000D02*
X38471000Y-103375000D01*
X33271000Y-75175000D02*
X38471000Y-75175000D01*
X33271000Y-103375000D02*
X33271000Y-75175000D01*
%TO.C,K2*%
X45402000Y-89351000D02*
X44102000Y-89351000D01*
X45402000Y-88051000D02*
X45402000Y-89351000D01*
X45202000Y-89151000D02*
X40002000Y-89151000D01*
X45202000Y-60951000D02*
X45202000Y-89151000D01*
X40002000Y-60951000D02*
X45202000Y-60951000D01*
X40002000Y-89151000D02*
X40002000Y-60951000D01*
%TO.C,K1*%
X38544000Y-70174000D02*
X37244000Y-70174000D01*
X38544000Y-68874000D02*
X38544000Y-70174000D01*
X38344000Y-69974000D02*
X33144000Y-69974000D01*
X38344000Y-41774000D02*
X38344000Y-69974000D01*
X33144000Y-41774000D02*
X38344000Y-41774000D01*
X33144000Y-69974000D02*
X33144000Y-41774000D01*
%TO.C,J11*%
X109156500Y-95250000D02*
X109156500Y-105410000D01*
X110426500Y-95250000D02*
X102806500Y-95250000D01*
X102806500Y-95250000D02*
X102806500Y-105410000D01*
X102806500Y-105410000D02*
X110426500Y-105410000D01*
X110426500Y-105410000D02*
X110426500Y-95250000D01*
%TO.C,J10*%
X76581000Y-111760000D02*
X86741000Y-111760000D01*
X76581000Y-110490000D02*
X76581000Y-118110000D01*
X76581000Y-118110000D02*
X86741000Y-118110000D01*
X86741000Y-118110000D02*
X86741000Y-110490000D01*
X86741000Y-110490000D02*
X76581000Y-110490000D01*
%TO.C,J9*%
X63246000Y-40259000D02*
X63246000Y-32639000D01*
X32766000Y-32639000D02*
X32766000Y-40259000D01*
X63246000Y-33909000D02*
X32766000Y-33909000D01*
X63246000Y-40259000D02*
X32766000Y-40259000D01*
X63246000Y-32639000D02*
X32766000Y-32639000D01*
%TO.C,J8*%
X64643000Y-32639000D02*
X64643000Y-40259000D01*
X95123000Y-40259000D02*
X95123000Y-32639000D01*
X64643000Y-38989000D02*
X95123000Y-38989000D01*
X64643000Y-32639000D02*
X95123000Y-32639000D01*
X64643000Y-40259000D02*
X95123000Y-40259000D01*
%TO.C,J7*%
X24130000Y-74930000D02*
X31750000Y-74930000D01*
X24130000Y-90170000D02*
X31750000Y-90170000D01*
X25400000Y-74930000D02*
X25400000Y-90170000D01*
X31750000Y-74930000D02*
X31750000Y-90170000D01*
X24130000Y-74930000D02*
X24130000Y-90170000D01*
%TO.C,J6*%
X24130000Y-58420000D02*
X31750000Y-58420000D01*
X24130000Y-73660000D02*
X31750000Y-73660000D01*
X25400000Y-58420000D02*
X25400000Y-73660000D01*
X31750000Y-58420000D02*
X31750000Y-73660000D01*
X24130000Y-58420000D02*
X24130000Y-73660000D01*
%TO.C,J5*%
X62738000Y-126619000D02*
X88138000Y-126619000D01*
X62738000Y-125349000D02*
X88138000Y-125349000D01*
X62738000Y-118999000D02*
X88138000Y-118999000D01*
X88138000Y-118999000D02*
X88138000Y-126619000D01*
X62738000Y-118999000D02*
X62738000Y-126619000D01*
%TO.C,J4*%
X31496000Y-118999000D02*
X31496000Y-126619000D01*
X61976000Y-126619000D02*
X61976000Y-118999000D01*
X31496000Y-125349000D02*
X61976000Y-125349000D01*
X31496000Y-118999000D02*
X61976000Y-118999000D01*
X31496000Y-126619000D02*
X61976000Y-126619000D01*
%TO.C,J3*%
X116617000Y-66921500D02*
G75*
G03*
X116617000Y-66921500I-1555000J0D01*
G01*
X116617000Y-63421500D02*
G75*
G03*
X116617000Y-63421500I-1555000J0D01*
G01*
X116617000Y-59921500D02*
G75*
G03*
X116617000Y-59921500I-1555000J0D01*
G01*
X116617000Y-56421500D02*
G75*
G03*
X116617000Y-56421500I-1555000J0D01*
G01*
X116617000Y-52921500D02*
G75*
G03*
X116617000Y-52921500I-1555000J0D01*
G01*
X116617000Y-49421500D02*
G75*
G03*
X116617000Y-49421500I-1555000J0D01*
G01*
X116617000Y-45921500D02*
G75*
G03*
X116617000Y-45921500I-1555000J0D01*
G01*
X116617000Y-42421500D02*
G75*
G03*
X116617000Y-42421500I-1555000J0D01*
G01*
X117162000Y-72581500D02*
X117162000Y-40261500D01*
X111602000Y-72581500D02*
X111602000Y-40261500D01*
X118722000Y-72581500D02*
X118722000Y-40261500D01*
X111602000Y-72581500D02*
X118722000Y-72581500D01*
X111602000Y-40261500D02*
X118722000Y-40261500D01*
X117222000Y-72821500D02*
X118962000Y-72821500D01*
X118962000Y-72821500D02*
X118962000Y-71321500D01*
X116617492Y-70394489D02*
G75*
G02*
X116494000Y-71029500I-1555492J-27011D01*
G01*
X115669742Y-71853609D02*
G75*
G02*
X114454000Y-71853500I-607742J1432109D01*
G01*
X113629891Y-71029242D02*
G75*
G02*
X113630000Y-69813500I1432109J607742D01*
G01*
X114454258Y-68989391D02*
G75*
G02*
X115670000Y-68989500I607742J-1432109D01*
G01*
X116493385Y-69813913D02*
G75*
G02*
X116617000Y-70421500I-1431385J-607587D01*
G01*
%TO.C,J2*%
X116617000Y-100957500D02*
G75*
G03*
X116617000Y-100957500I-1555000J0D01*
G01*
X116617000Y-97457500D02*
G75*
G03*
X116617000Y-97457500I-1555000J0D01*
G01*
X116617000Y-93957500D02*
G75*
G03*
X116617000Y-93957500I-1555000J0D01*
G01*
X116617000Y-90457500D02*
G75*
G03*
X116617000Y-90457500I-1555000J0D01*
G01*
X116617000Y-86957500D02*
G75*
G03*
X116617000Y-86957500I-1555000J0D01*
G01*
X116617000Y-83457500D02*
G75*
G03*
X116617000Y-83457500I-1555000J0D01*
G01*
X116617000Y-79957500D02*
G75*
G03*
X116617000Y-79957500I-1555000J0D01*
G01*
X116617000Y-76457500D02*
G75*
G03*
X116617000Y-76457500I-1555000J0D01*
G01*
X117162000Y-106617500D02*
X117162000Y-74297500D01*
X111602000Y-106617500D02*
X111602000Y-74297500D01*
X118722000Y-106617500D02*
X118722000Y-74297500D01*
X111602000Y-106617500D02*
X118722000Y-106617500D01*
X111602000Y-74297500D02*
X118722000Y-74297500D01*
X117222000Y-106857500D02*
X118962000Y-106857500D01*
X118962000Y-106857500D02*
X118962000Y-105357500D01*
X116617492Y-104430489D02*
G75*
G02*
X116494000Y-105065500I-1555492J-27011D01*
G01*
X115669742Y-105889609D02*
G75*
G02*
X114454000Y-105889500I-607742J1432109D01*
G01*
X113629891Y-105065242D02*
G75*
G02*
X113630000Y-103849500I1432109J607742D01*
G01*
X114454258Y-103025391D02*
G75*
G02*
X115670000Y-103025500I607742J-1432109D01*
G01*
X116493385Y-103849913D02*
G75*
G02*
X116617000Y-104457500I-1431385J-607587D01*
G01*
%TO.C,J1*%
X24130000Y-41910000D02*
X31750000Y-41910000D01*
X24130000Y-57150000D02*
X31750000Y-57150000D01*
X25400000Y-41910000D02*
X25400000Y-57150000D01*
X31750000Y-41910000D02*
X31750000Y-57150000D01*
X24130000Y-41910000D02*
X24130000Y-57150000D01*
%TO.C,D7*%
X106751000Y-113903000D02*
X106751000Y-111043000D01*
X106751000Y-111043000D02*
X104831000Y-111043000D01*
X104831000Y-111043000D02*
X104831000Y-113903000D01*
%TO.C,D6*%
X107117000Y-111776000D02*
X107117000Y-114636000D01*
X107117000Y-114636000D02*
X109037000Y-114636000D01*
X109037000Y-114636000D02*
X109037000Y-111776000D01*
%TO.C,D5*%
X42878500Y-59507000D02*
X45738500Y-59507000D01*
X45738500Y-59507000D02*
X45738500Y-57587000D01*
X45738500Y-57587000D02*
X42878500Y-57587000D01*
%TO.C,D4*%
X108260000Y-45418500D02*
X108260000Y-48278500D01*
X108260000Y-48278500D02*
X110180000Y-48278500D01*
X110180000Y-48278500D02*
X110180000Y-45418500D01*
%TO.C,D3*%
X32583000Y-101266500D02*
X32583000Y-98406500D01*
X32583000Y-98406500D02*
X30663000Y-98406500D01*
X30663000Y-98406500D02*
X30663000Y-101266500D01*
%TO.C,C47*%
X90685252Y-65124000D02*
X90162748Y-65124000D01*
X90685252Y-63654000D02*
X90162748Y-63654000D01*
%TO.C,C46*%
X95828752Y-75474500D02*
X95306248Y-75474500D01*
X95828752Y-74004500D02*
X95306248Y-74004500D01*
%TO.C,C39*%
X46254000Y-71475000D02*
X47454000Y-71475000D01*
X50774000Y-71475000D02*
X49574000Y-71475000D01*
X50774000Y-68019437D02*
X50774000Y-71475000D01*
X46254000Y-68019437D02*
X46254000Y-71475000D01*
X47318437Y-66955000D02*
X47454000Y-66955000D01*
X49709563Y-66955000D02*
X49574000Y-66955000D01*
X49709563Y-66955000D02*
X50774000Y-68019437D01*
X47318437Y-66955000D02*
X46254000Y-68019437D01*
X50074000Y-66215000D02*
X50074000Y-66715000D01*
X50324000Y-66465000D02*
X49824000Y-66465000D01*
%TO.C,C13*%
X59790000Y-104577248D02*
X59790000Y-105099752D01*
X58320000Y-104577248D02*
X58320000Y-105099752D01*
%TO.C,C7*%
X99034000Y-116231000D02*
X97834000Y-116231000D01*
X94514000Y-116231000D02*
X95714000Y-116231000D01*
X94514000Y-119686563D02*
X94514000Y-116231000D01*
X99034000Y-119686563D02*
X99034000Y-116231000D01*
X97969563Y-120751000D02*
X97834000Y-120751000D01*
X95578437Y-120751000D02*
X95714000Y-120751000D01*
X95578437Y-120751000D02*
X94514000Y-119686563D01*
X97969563Y-120751000D02*
X99034000Y-119686563D01*
X95214000Y-121491000D02*
X95214000Y-120991000D01*
X94964000Y-121241000D02*
X95464000Y-121241000D01*
%TO.C,C6*%
X93446000Y-116231000D02*
X92246000Y-116231000D01*
X88926000Y-116231000D02*
X90126000Y-116231000D01*
X88926000Y-119686563D02*
X88926000Y-116231000D01*
X93446000Y-119686563D02*
X93446000Y-116231000D01*
X92381563Y-120751000D02*
X92246000Y-120751000D01*
X89990437Y-120751000D02*
X90126000Y-120751000D01*
X89990437Y-120751000D02*
X88926000Y-119686563D01*
X92381563Y-120751000D02*
X93446000Y-119686563D01*
X89626000Y-121491000D02*
X89626000Y-120991000D01*
X89376000Y-121241000D02*
X89876000Y-121241000D01*
%TO.C,C5*%
X98514500Y-110389000D02*
X98514500Y-111589000D01*
X98514500Y-114909000D02*
X98514500Y-113709000D01*
X101970063Y-114909000D02*
X98514500Y-114909000D01*
X101970063Y-110389000D02*
X98514500Y-110389000D01*
X103034500Y-111453437D02*
X103034500Y-111589000D01*
X103034500Y-113844563D02*
X103034500Y-113709000D01*
X103034500Y-113844563D02*
X101970063Y-114909000D01*
X103034500Y-111453437D02*
X101970063Y-110389000D01*
X103774500Y-114209000D02*
X103274500Y-114209000D01*
X103524500Y-114459000D02*
X103524500Y-113959000D01*
%TO.C,C4*%
X111226000Y-116358000D02*
X110026000Y-116358000D01*
X106706000Y-116358000D02*
X107906000Y-116358000D01*
X106706000Y-119813563D02*
X106706000Y-116358000D01*
X111226000Y-119813563D02*
X111226000Y-116358000D01*
X110161563Y-120878000D02*
X110026000Y-120878000D01*
X107770437Y-120878000D02*
X107906000Y-120878000D01*
X107770437Y-120878000D02*
X106706000Y-119813563D01*
X110161563Y-120878000D02*
X111226000Y-119813563D01*
X107406000Y-121618000D02*
X107406000Y-121118000D01*
X107156000Y-121368000D02*
X107656000Y-121368000D01*
%TO.C,C3*%
X106082500Y-116358000D02*
X104882500Y-116358000D01*
X101562500Y-116358000D02*
X102762500Y-116358000D01*
X101562500Y-119813563D02*
X101562500Y-116358000D01*
X106082500Y-119813563D02*
X106082500Y-116358000D01*
X105018063Y-120878000D02*
X104882500Y-120878000D01*
X102626937Y-120878000D02*
X102762500Y-120878000D01*
X102626937Y-120878000D02*
X101562500Y-119813563D01*
X105018063Y-120878000D02*
X106082500Y-119813563D01*
X102262500Y-121618000D02*
X102262500Y-121118000D01*
X102012500Y-121368000D02*
X102512500Y-121368000D01*
%TO.C,C2*%
X91637752Y-75347500D02*
X91115248Y-75347500D01*
X91637752Y-73877500D02*
X91115248Y-73877500D01*
%TO.C,C1*%
X108050000Y-71049248D02*
X108050000Y-71571752D01*
X106580000Y-71049248D02*
X106580000Y-71571752D01*
%TO.C,A1*%
X90551000Y-47498000D02*
X93091000Y-47498000D01*
X93091000Y-47498000D02*
X93091000Y-44828000D01*
X90551000Y-44828000D02*
X52321000Y-44828000D01*
X95761000Y-44828000D02*
X93091000Y-44828000D01*
X93091000Y-60198000D02*
X93091000Y-62868000D01*
X93091000Y-60198000D02*
X54991000Y-60198000D01*
X54991000Y-60198000D02*
X54991000Y-62868000D01*
X90551000Y-47498000D02*
X90551000Y-44828000D01*
X90551000Y-47498000D02*
X54991000Y-47498000D01*
X54991000Y-47498000D02*
X54991000Y-44828000D01*
X52321000Y-44828000D02*
X52321000Y-62868000D01*
X52321000Y-62868000D02*
X95761000Y-62868000D01*
X95761000Y-62868000D02*
X95761000Y-44828000D01*
%TO.C,*%
D13*
%TO.C,J12*%
X112609380Y-124380523D02*
X113323666Y-124380523D01*
X113466523Y-124428142D01*
X113561761Y-124523380D01*
X113609380Y-124666238D01*
X113609380Y-124761476D01*
X113609380Y-123380523D02*
X113609380Y-123951952D01*
X113609380Y-123666238D02*
X112609380Y-123666238D01*
X112752238Y-123761476D01*
X112847476Y-123856714D01*
X112895095Y-123951952D01*
X112704619Y-122999571D02*
X112657000Y-122951952D01*
X112609380Y-122856714D01*
X112609380Y-122618619D01*
X112657000Y-122523380D01*
X112704619Y-122475761D01*
X112799857Y-122428142D01*
X112895095Y-122428142D01*
X113037952Y-122475761D01*
X113609380Y-123047190D01*
X113609380Y-122428142D01*
X113625619Y-121991380D02*
X113054190Y-121991380D01*
X113339904Y-121991380D02*
X113339904Y-120991380D01*
X113244666Y-121134238D01*
X113149428Y-121229476D01*
X113054190Y-121277095D01*
X114006571Y-121086619D02*
X114054190Y-121039000D01*
X114149428Y-120991380D01*
X114387523Y-120991380D01*
X114482761Y-121039000D01*
X114530380Y-121086619D01*
X114578000Y-121181857D01*
X114578000Y-121277095D01*
X114530380Y-121419952D01*
X113958952Y-121991380D01*
X114578000Y-121991380D01*
X114863714Y-120991380D02*
X115197047Y-121991380D01*
X115530380Y-120991380D01*
X115625619Y-122086619D02*
X116387523Y-122086619D01*
X116578000Y-121705666D02*
X117054190Y-121705666D01*
X116482761Y-121991380D02*
X116816095Y-120991380D01*
X117149428Y-121991380D01*
X117482761Y-121991380D02*
X117482761Y-120991380D01*
X118054190Y-121991380D02*
X117625619Y-121419952D01*
X118054190Y-120991380D02*
X117482761Y-121562809D01*
X118482761Y-120991380D02*
X118482761Y-121800904D01*
X118530380Y-121896142D01*
X118578000Y-121943761D01*
X118673238Y-121991380D01*
X118863714Y-121991380D01*
X118958952Y-121943761D01*
X119006571Y-121896142D01*
X119054190Y-121800904D01*
X119054190Y-120991380D01*
%TO.C,U12*%
X29622904Y-108374380D02*
X29622904Y-109183904D01*
X29670523Y-109279142D01*
X29718142Y-109326761D01*
X29813380Y-109374380D01*
X30003857Y-109374380D01*
X30099095Y-109326761D01*
X30146714Y-109279142D01*
X30194333Y-109183904D01*
X30194333Y-108374380D01*
X31194333Y-109374380D02*
X30622904Y-109374380D01*
X30908619Y-109374380D02*
X30908619Y-108374380D01*
X30813380Y-108517238D01*
X30718142Y-108612476D01*
X30622904Y-108660095D01*
X31575285Y-108469619D02*
X31622904Y-108422000D01*
X31718142Y-108374380D01*
X31956238Y-108374380D01*
X32051476Y-108422000D01*
X32099095Y-108469619D01*
X32146714Y-108564857D01*
X32146714Y-108660095D01*
X32099095Y-108802952D01*
X31527666Y-109374380D01*
X32146714Y-109374380D01*
%TO.C,U10*%
X101060404Y-50843380D02*
X101060404Y-51652904D01*
X101108023Y-51748142D01*
X101155642Y-51795761D01*
X101250880Y-51843380D01*
X101441357Y-51843380D01*
X101536595Y-51795761D01*
X101584214Y-51748142D01*
X101631833Y-51652904D01*
X101631833Y-50843380D01*
X102631833Y-51843380D02*
X102060404Y-51843380D01*
X102346119Y-51843380D02*
X102346119Y-50843380D01*
X102250880Y-50986238D01*
X102155642Y-51081476D01*
X102060404Y-51129095D01*
X103250880Y-50843380D02*
X103346119Y-50843380D01*
X103441357Y-50891000D01*
X103488976Y-50938619D01*
X103536595Y-51033857D01*
X103584214Y-51224333D01*
X103584214Y-51462428D01*
X103536595Y-51652904D01*
X103488976Y-51748142D01*
X103441357Y-51795761D01*
X103346119Y-51843380D01*
X103250880Y-51843380D01*
X103155642Y-51795761D01*
X103108023Y-51748142D01*
X103060404Y-51652904D01*
X103012785Y-51462428D01*
X103012785Y-51224333D01*
X103060404Y-51033857D01*
X103108023Y-50938619D01*
X103155642Y-50891000D01*
X103250880Y-50843380D01*
%TO.C,U9*%
X97472595Y-127595380D02*
X97472595Y-128404904D01*
X97520214Y-128500142D01*
X97567833Y-128547761D01*
X97663071Y-128595380D01*
X97853547Y-128595380D01*
X97948785Y-128547761D01*
X97996404Y-128500142D01*
X98044023Y-128404904D01*
X98044023Y-127595380D01*
X98567833Y-128595380D02*
X98758309Y-128595380D01*
X98853547Y-128547761D01*
X98901166Y-128500142D01*
X98996404Y-128357285D01*
X99044023Y-128166809D01*
X99044023Y-127785857D01*
X98996404Y-127690619D01*
X98948785Y-127643000D01*
X98853547Y-127595380D01*
X98663071Y-127595380D01*
X98567833Y-127643000D01*
X98520214Y-127690619D01*
X98472595Y-127785857D01*
X98472595Y-128023952D01*
X98520214Y-128119190D01*
X98567833Y-128166809D01*
X98663071Y-128214428D01*
X98853547Y-128214428D01*
X98948785Y-128166809D01*
X98996404Y-128119190D01*
X99044023Y-128023952D01*
%TO.C,U8*%
X110363095Y-127595380D02*
X110363095Y-128404904D01*
X110410714Y-128500142D01*
X110458333Y-128547761D01*
X110553571Y-128595380D01*
X110744047Y-128595380D01*
X110839285Y-128547761D01*
X110886904Y-128500142D01*
X110934523Y-128404904D01*
X110934523Y-127595380D01*
X111553571Y-128023952D02*
X111458333Y-127976333D01*
X111410714Y-127928714D01*
X111363095Y-127833476D01*
X111363095Y-127785857D01*
X111410714Y-127690619D01*
X111458333Y-127643000D01*
X111553571Y-127595380D01*
X111744047Y-127595380D01*
X111839285Y-127643000D01*
X111886904Y-127690619D01*
X111934523Y-127785857D01*
X111934523Y-127833476D01*
X111886904Y-127928714D01*
X111839285Y-127976333D01*
X111744047Y-128023952D01*
X111553571Y-128023952D01*
X111458333Y-128071571D01*
X111410714Y-128119190D01*
X111363095Y-128214428D01*
X111363095Y-128404904D01*
X111410714Y-128500142D01*
X111458333Y-128547761D01*
X111553571Y-128595380D01*
X111744047Y-128595380D01*
X111839285Y-128547761D01*
X111886904Y-128500142D01*
X111934523Y-128404904D01*
X111934523Y-128214428D01*
X111886904Y-128119190D01*
X111839285Y-128071571D01*
X111744047Y-128023952D01*
%TO.C,U3*%
X47561595Y-116145880D02*
X47561595Y-116955404D01*
X47609214Y-117050642D01*
X47656833Y-117098261D01*
X47752071Y-117145880D01*
X47942547Y-117145880D01*
X48037785Y-117098261D01*
X48085404Y-117050642D01*
X48133023Y-116955404D01*
X48133023Y-116145880D01*
X48513976Y-116145880D02*
X49133023Y-116145880D01*
X48799690Y-116526833D01*
X48942547Y-116526833D01*
X49037785Y-116574452D01*
X49085404Y-116622071D01*
X49133023Y-116717309D01*
X49133023Y-116955404D01*
X49085404Y-117050642D01*
X49037785Y-117098261D01*
X48942547Y-117145880D01*
X48656833Y-117145880D01*
X48561595Y-117098261D01*
X48513976Y-117050642D01*
%TO.C,U2*%
X79329380Y-70992904D02*
X80138904Y-70992904D01*
X80234142Y-70945285D01*
X80281761Y-70897666D01*
X80329380Y-70802428D01*
X80329380Y-70611952D01*
X80281761Y-70516714D01*
X80234142Y-70469095D01*
X80138904Y-70421476D01*
X79329380Y-70421476D01*
X79424619Y-69992904D02*
X79377000Y-69945285D01*
X79329380Y-69850047D01*
X79329380Y-69611952D01*
X79377000Y-69516714D01*
X79424619Y-69469095D01*
X79519857Y-69421476D01*
X79615095Y-69421476D01*
X79757952Y-69469095D01*
X80329380Y-70040523D01*
X80329380Y-69421476D01*
%TO.C,U1*%
X99187095Y-73810880D02*
X99187095Y-74620404D01*
X99234714Y-74715642D01*
X99282333Y-74763261D01*
X99377571Y-74810880D01*
X99568047Y-74810880D01*
X99663285Y-74763261D01*
X99710904Y-74715642D01*
X99758523Y-74620404D01*
X99758523Y-73810880D01*
X100758523Y-74810880D02*
X100187095Y-74810880D01*
X100472809Y-74810880D02*
X100472809Y-73810880D01*
X100377571Y-73953738D01*
X100282333Y-74048976D01*
X100187095Y-74096595D01*
%TO.C,RV8*%
X93321261Y-103449380D02*
X92987928Y-102973190D01*
X92749833Y-103449380D02*
X92749833Y-102449380D01*
X93130785Y-102449380D01*
X93226023Y-102497000D01*
X93273642Y-102544619D01*
X93321261Y-102639857D01*
X93321261Y-102782714D01*
X93273642Y-102877952D01*
X93226023Y-102925571D01*
X93130785Y-102973190D01*
X92749833Y-102973190D01*
X93606976Y-102449380D02*
X93940309Y-103449380D01*
X94273642Y-102449380D01*
X94749833Y-102877952D02*
X94654595Y-102830333D01*
X94606976Y-102782714D01*
X94559357Y-102687476D01*
X94559357Y-102639857D01*
X94606976Y-102544619D01*
X94654595Y-102497000D01*
X94749833Y-102449380D01*
X94940309Y-102449380D01*
X95035547Y-102497000D01*
X95083166Y-102544619D01*
X95130785Y-102639857D01*
X95130785Y-102687476D01*
X95083166Y-102782714D01*
X95035547Y-102830333D01*
X94940309Y-102877952D01*
X94749833Y-102877952D01*
X94654595Y-102925571D01*
X94606976Y-102973190D01*
X94559357Y-103068428D01*
X94559357Y-103258904D01*
X94606976Y-103354142D01*
X94654595Y-103401761D01*
X94749833Y-103449380D01*
X94940309Y-103449380D01*
X95035547Y-103401761D01*
X95083166Y-103354142D01*
X95130785Y-103258904D01*
X95130785Y-103068428D01*
X95083166Y-102973190D01*
X95035547Y-102925571D01*
X94940309Y-102877952D01*
%TO.C,RV7*%
X80621261Y-85288380D02*
X80287928Y-84812190D01*
X80049833Y-85288380D02*
X80049833Y-84288380D01*
X80430785Y-84288380D01*
X80526023Y-84336000D01*
X80573642Y-84383619D01*
X80621261Y-84478857D01*
X80621261Y-84621714D01*
X80573642Y-84716952D01*
X80526023Y-84764571D01*
X80430785Y-84812190D01*
X80049833Y-84812190D01*
X80906976Y-84288380D02*
X81240309Y-85288380D01*
X81573642Y-84288380D01*
X81811738Y-84288380D02*
X82478404Y-84288380D01*
X82049833Y-85288380D01*
%TO.C,RV6*%
X80621261Y-103449380D02*
X80287928Y-102973190D01*
X80049833Y-103449380D02*
X80049833Y-102449380D01*
X80430785Y-102449380D01*
X80526023Y-102497000D01*
X80573642Y-102544619D01*
X80621261Y-102639857D01*
X80621261Y-102782714D01*
X80573642Y-102877952D01*
X80526023Y-102925571D01*
X80430785Y-102973190D01*
X80049833Y-102973190D01*
X80906976Y-102449380D02*
X81240309Y-103449380D01*
X81573642Y-102449380D01*
X82335547Y-102449380D02*
X82145071Y-102449380D01*
X82049833Y-102497000D01*
X82002214Y-102544619D01*
X81906976Y-102687476D01*
X81859357Y-102877952D01*
X81859357Y-103258904D01*
X81906976Y-103354142D01*
X81954595Y-103401761D01*
X82049833Y-103449380D01*
X82240309Y-103449380D01*
X82335547Y-103401761D01*
X82383166Y-103354142D01*
X82430785Y-103258904D01*
X82430785Y-103020809D01*
X82383166Y-102925571D01*
X82335547Y-102877952D01*
X82240309Y-102830333D01*
X82049833Y-102830333D01*
X81954595Y-102877952D01*
X81906976Y-102925571D01*
X81859357Y-103020809D01*
%TO.C,RV5*%
X93321261Y-92908380D02*
X92987928Y-92432190D01*
X92749833Y-92908380D02*
X92749833Y-91908380D01*
X93130785Y-91908380D01*
X93226023Y-91956000D01*
X93273642Y-92003619D01*
X93321261Y-92098857D01*
X93321261Y-92241714D01*
X93273642Y-92336952D01*
X93226023Y-92384571D01*
X93130785Y-92432190D01*
X92749833Y-92432190D01*
X93606976Y-91908380D02*
X93940309Y-92908380D01*
X94273642Y-91908380D01*
X95083166Y-91908380D02*
X94606976Y-91908380D01*
X94559357Y-92384571D01*
X94606976Y-92336952D01*
X94702214Y-92289333D01*
X94940309Y-92289333D01*
X95035547Y-92336952D01*
X95083166Y-92384571D01*
X95130785Y-92479809D01*
X95130785Y-92717904D01*
X95083166Y-92813142D01*
X95035547Y-92860761D01*
X94940309Y-92908380D01*
X94702214Y-92908380D01*
X94606976Y-92860761D01*
X94559357Y-92813142D01*
%TO.C,RV4*%
X62809380Y-87653738D02*
X62333190Y-87987071D01*
X62809380Y-88225166D02*
X61809380Y-88225166D01*
X61809380Y-87844214D01*
X61857000Y-87748976D01*
X61904619Y-87701357D01*
X61999857Y-87653738D01*
X62142714Y-87653738D01*
X62237952Y-87701357D01*
X62285571Y-87748976D01*
X62333190Y-87844214D01*
X62333190Y-88225166D01*
X61809380Y-87368023D02*
X62809380Y-87034690D01*
X61809380Y-86701357D01*
X62142714Y-85939452D02*
X62809380Y-85939452D01*
X61761761Y-86177547D02*
X62476047Y-86415642D01*
X62476047Y-85796595D01*
%TO.C,RV3*%
X49347380Y-101623738D02*
X48871190Y-101957071D01*
X49347380Y-102195166D02*
X48347380Y-102195166D01*
X48347380Y-101814214D01*
X48395000Y-101718976D01*
X48442619Y-101671357D01*
X48537857Y-101623738D01*
X48680714Y-101623738D01*
X48775952Y-101671357D01*
X48823571Y-101718976D01*
X48871190Y-101814214D01*
X48871190Y-102195166D01*
X48347380Y-101338023D02*
X49347380Y-101004690D01*
X48347380Y-100671357D01*
X48347380Y-100433261D02*
X48347380Y-99814214D01*
X48728333Y-100147547D01*
X48728333Y-100004690D01*
X48775952Y-99909452D01*
X48823571Y-99861833D01*
X48918809Y-99814214D01*
X49156904Y-99814214D01*
X49252142Y-99861833D01*
X49299761Y-99909452D01*
X49347380Y-100004690D01*
X49347380Y-100290404D01*
X49299761Y-100385642D01*
X49252142Y-100433261D01*
%TO.C,RV2*%
X56967380Y-87653738D02*
X56491190Y-87987071D01*
X56967380Y-88225166D02*
X55967380Y-88225166D01*
X55967380Y-87844214D01*
X56015000Y-87748976D01*
X56062619Y-87701357D01*
X56157857Y-87653738D01*
X56300714Y-87653738D01*
X56395952Y-87701357D01*
X56443571Y-87748976D01*
X56491190Y-87844214D01*
X56491190Y-88225166D01*
X55967380Y-87368023D02*
X56967380Y-87034690D01*
X55967380Y-86701357D01*
X56062619Y-86415642D02*
X56015000Y-86368023D01*
X55967380Y-86272785D01*
X55967380Y-86034690D01*
X56015000Y-85939452D01*
X56062619Y-85891833D01*
X56157857Y-85844214D01*
X56253095Y-85844214D01*
X56395952Y-85891833D01*
X56967380Y-86463261D01*
X56967380Y-85844214D01*
%TO.C,RV1*%
X62428380Y-101496738D02*
X61952190Y-101830071D01*
X62428380Y-102068166D02*
X61428380Y-102068166D01*
X61428380Y-101687214D01*
X61476000Y-101591976D01*
X61523619Y-101544357D01*
X61618857Y-101496738D01*
X61761714Y-101496738D01*
X61856952Y-101544357D01*
X61904571Y-101591976D01*
X61952190Y-101687214D01*
X61952190Y-102068166D01*
X61428380Y-101211023D02*
X62428380Y-100877690D01*
X61428380Y-100544357D01*
X62428380Y-99687214D02*
X62428380Y-100258642D01*
X62428380Y-99972928D02*
X61428380Y-99972928D01*
X61571238Y-100068166D01*
X61666476Y-100163404D01*
X61714095Y-100258642D01*
%TO.C,R93*%
X38917642Y-116403380D02*
X38584309Y-115927190D01*
X38346214Y-116403380D02*
X38346214Y-115403380D01*
X38727166Y-115403380D01*
X38822404Y-115451000D01*
X38870023Y-115498619D01*
X38917642Y-115593857D01*
X38917642Y-115736714D01*
X38870023Y-115831952D01*
X38822404Y-115879571D01*
X38727166Y-115927190D01*
X38346214Y-115927190D01*
X39393833Y-116403380D02*
X39584309Y-116403380D01*
X39679547Y-116355761D01*
X39727166Y-116308142D01*
X39822404Y-116165285D01*
X39870023Y-115974809D01*
X39870023Y-115593857D01*
X39822404Y-115498619D01*
X39774785Y-115451000D01*
X39679547Y-115403380D01*
X39489071Y-115403380D01*
X39393833Y-115451000D01*
X39346214Y-115498619D01*
X39298595Y-115593857D01*
X39298595Y-115831952D01*
X39346214Y-115927190D01*
X39393833Y-115974809D01*
X39489071Y-116022428D01*
X39679547Y-116022428D01*
X39774785Y-115974809D01*
X39822404Y-115927190D01*
X39870023Y-115831952D01*
X40203357Y-115403380D02*
X40822404Y-115403380D01*
X40489071Y-115784333D01*
X40631928Y-115784333D01*
X40727166Y-115831952D01*
X40774785Y-115879571D01*
X40822404Y-115974809D01*
X40822404Y-116212904D01*
X40774785Y-116308142D01*
X40727166Y-116355761D01*
X40631928Y-116403380D01*
X40346214Y-116403380D01*
X40250976Y-116355761D01*
X40203357Y-116308142D01*
%TO.C,R92*%
X38473142Y-109672380D02*
X38139809Y-109196190D01*
X37901714Y-109672380D02*
X37901714Y-108672380D01*
X38282666Y-108672380D01*
X38377904Y-108720000D01*
X38425523Y-108767619D01*
X38473142Y-108862857D01*
X38473142Y-109005714D01*
X38425523Y-109100952D01*
X38377904Y-109148571D01*
X38282666Y-109196190D01*
X37901714Y-109196190D01*
X38949333Y-109672380D02*
X39139809Y-109672380D01*
X39235047Y-109624761D01*
X39282666Y-109577142D01*
X39377904Y-109434285D01*
X39425523Y-109243809D01*
X39425523Y-108862857D01*
X39377904Y-108767619D01*
X39330285Y-108720000D01*
X39235047Y-108672380D01*
X39044571Y-108672380D01*
X38949333Y-108720000D01*
X38901714Y-108767619D01*
X38854095Y-108862857D01*
X38854095Y-109100952D01*
X38901714Y-109196190D01*
X38949333Y-109243809D01*
X39044571Y-109291428D01*
X39235047Y-109291428D01*
X39330285Y-109243809D01*
X39377904Y-109196190D01*
X39425523Y-109100952D01*
X39806476Y-108767619D02*
X39854095Y-108720000D01*
X39949333Y-108672380D01*
X40187428Y-108672380D01*
X40282666Y-108720000D01*
X40330285Y-108767619D01*
X40377904Y-108862857D01*
X40377904Y-108958095D01*
X40330285Y-109100952D01*
X39758857Y-109672380D01*
X40377904Y-109672380D01*
%TO.C,R91*%
X34917142Y-118942380D02*
X34583809Y-118466190D01*
X34345714Y-118942380D02*
X34345714Y-117942380D01*
X34726666Y-117942380D01*
X34821904Y-117990000D01*
X34869523Y-118037619D01*
X34917142Y-118132857D01*
X34917142Y-118275714D01*
X34869523Y-118370952D01*
X34821904Y-118418571D01*
X34726666Y-118466190D01*
X34345714Y-118466190D01*
X35393333Y-118942380D02*
X35583809Y-118942380D01*
X35679047Y-118894761D01*
X35726666Y-118847142D01*
X35821904Y-118704285D01*
X35869523Y-118513809D01*
X35869523Y-118132857D01*
X35821904Y-118037619D01*
X35774285Y-117990000D01*
X35679047Y-117942380D01*
X35488571Y-117942380D01*
X35393333Y-117990000D01*
X35345714Y-118037619D01*
X35298095Y-118132857D01*
X35298095Y-118370952D01*
X35345714Y-118466190D01*
X35393333Y-118513809D01*
X35488571Y-118561428D01*
X35679047Y-118561428D01*
X35774285Y-118513809D01*
X35821904Y-118466190D01*
X35869523Y-118370952D01*
X36821904Y-118942380D02*
X36250476Y-118942380D01*
X36536190Y-118942380D02*
X36536190Y-117942380D01*
X36440952Y-118085238D01*
X36345714Y-118180476D01*
X36250476Y-118228095D01*
%TO.C,R90*%
X38473142Y-108275380D02*
X38139809Y-107799190D01*
X37901714Y-108275380D02*
X37901714Y-107275380D01*
X38282666Y-107275380D01*
X38377904Y-107323000D01*
X38425523Y-107370619D01*
X38473142Y-107465857D01*
X38473142Y-107608714D01*
X38425523Y-107703952D01*
X38377904Y-107751571D01*
X38282666Y-107799190D01*
X37901714Y-107799190D01*
X38949333Y-108275380D02*
X39139809Y-108275380D01*
X39235047Y-108227761D01*
X39282666Y-108180142D01*
X39377904Y-108037285D01*
X39425523Y-107846809D01*
X39425523Y-107465857D01*
X39377904Y-107370619D01*
X39330285Y-107323000D01*
X39235047Y-107275380D01*
X39044571Y-107275380D01*
X38949333Y-107323000D01*
X38901714Y-107370619D01*
X38854095Y-107465857D01*
X38854095Y-107703952D01*
X38901714Y-107799190D01*
X38949333Y-107846809D01*
X39044571Y-107894428D01*
X39235047Y-107894428D01*
X39330285Y-107846809D01*
X39377904Y-107799190D01*
X39425523Y-107703952D01*
X40044571Y-107275380D02*
X40139809Y-107275380D01*
X40235047Y-107323000D01*
X40282666Y-107370619D01*
X40330285Y-107465857D01*
X40377904Y-107656333D01*
X40377904Y-107894428D01*
X40330285Y-108084904D01*
X40282666Y-108180142D01*
X40235047Y-108227761D01*
X40139809Y-108275380D01*
X40044571Y-108275380D01*
X39949333Y-108227761D01*
X39901714Y-108180142D01*
X39854095Y-108084904D01*
X39806476Y-107894428D01*
X39806476Y-107656333D01*
X39854095Y-107465857D01*
X39901714Y-107370619D01*
X39949333Y-107323000D01*
X40044571Y-107275380D01*
%TO.C,R89*%
X27360642Y-118878880D02*
X27027309Y-118402690D01*
X26789214Y-118878880D02*
X26789214Y-117878880D01*
X27170166Y-117878880D01*
X27265404Y-117926500D01*
X27313023Y-117974119D01*
X27360642Y-118069357D01*
X27360642Y-118212214D01*
X27313023Y-118307452D01*
X27265404Y-118355071D01*
X27170166Y-118402690D01*
X26789214Y-118402690D01*
X27932071Y-118307452D02*
X27836833Y-118259833D01*
X27789214Y-118212214D01*
X27741595Y-118116976D01*
X27741595Y-118069357D01*
X27789214Y-117974119D01*
X27836833Y-117926500D01*
X27932071Y-117878880D01*
X28122547Y-117878880D01*
X28217785Y-117926500D01*
X28265404Y-117974119D01*
X28313023Y-118069357D01*
X28313023Y-118116976D01*
X28265404Y-118212214D01*
X28217785Y-118259833D01*
X28122547Y-118307452D01*
X27932071Y-118307452D01*
X27836833Y-118355071D01*
X27789214Y-118402690D01*
X27741595Y-118497928D01*
X27741595Y-118688404D01*
X27789214Y-118783642D01*
X27836833Y-118831261D01*
X27932071Y-118878880D01*
X28122547Y-118878880D01*
X28217785Y-118831261D01*
X28265404Y-118783642D01*
X28313023Y-118688404D01*
X28313023Y-118497928D01*
X28265404Y-118402690D01*
X28217785Y-118355071D01*
X28122547Y-118307452D01*
X28789214Y-118878880D02*
X28979690Y-118878880D01*
X29074928Y-118831261D01*
X29122547Y-118783642D01*
X29217785Y-118640785D01*
X29265404Y-118450309D01*
X29265404Y-118069357D01*
X29217785Y-117974119D01*
X29170166Y-117926500D01*
X29074928Y-117878880D01*
X28884452Y-117878880D01*
X28789214Y-117926500D01*
X28741595Y-117974119D01*
X28693976Y-118069357D01*
X28693976Y-118307452D01*
X28741595Y-118402690D01*
X28789214Y-118450309D01*
X28884452Y-118497928D01*
X29074928Y-118497928D01*
X29170166Y-118450309D01*
X29217785Y-118402690D01*
X29265404Y-118307452D01*
%TO.C,R84*%
X102290642Y-50490380D02*
X101957309Y-50014190D01*
X101719214Y-50490380D02*
X101719214Y-49490380D01*
X102100166Y-49490380D01*
X102195404Y-49538000D01*
X102243023Y-49585619D01*
X102290642Y-49680857D01*
X102290642Y-49823714D01*
X102243023Y-49918952D01*
X102195404Y-49966571D01*
X102100166Y-50014190D01*
X101719214Y-50014190D01*
X102862071Y-49918952D02*
X102766833Y-49871333D01*
X102719214Y-49823714D01*
X102671595Y-49728476D01*
X102671595Y-49680857D01*
X102719214Y-49585619D01*
X102766833Y-49538000D01*
X102862071Y-49490380D01*
X103052547Y-49490380D01*
X103147785Y-49538000D01*
X103195404Y-49585619D01*
X103243023Y-49680857D01*
X103243023Y-49728476D01*
X103195404Y-49823714D01*
X103147785Y-49871333D01*
X103052547Y-49918952D01*
X102862071Y-49918952D01*
X102766833Y-49966571D01*
X102719214Y-50014190D01*
X102671595Y-50109428D01*
X102671595Y-50299904D01*
X102719214Y-50395142D01*
X102766833Y-50442761D01*
X102862071Y-50490380D01*
X103052547Y-50490380D01*
X103147785Y-50442761D01*
X103195404Y-50395142D01*
X103243023Y-50299904D01*
X103243023Y-50109428D01*
X103195404Y-50014190D01*
X103147785Y-49966571D01*
X103052547Y-49918952D01*
X104100166Y-49823714D02*
X104100166Y-50490380D01*
X103862071Y-49442761D02*
X103623976Y-50157047D01*
X104243023Y-50157047D01*
%TO.C,R83*%
X104068642Y-60078880D02*
X103735309Y-59602690D01*
X103497214Y-60078880D02*
X103497214Y-59078880D01*
X103878166Y-59078880D01*
X103973404Y-59126500D01*
X104021023Y-59174119D01*
X104068642Y-59269357D01*
X104068642Y-59412214D01*
X104021023Y-59507452D01*
X103973404Y-59555071D01*
X103878166Y-59602690D01*
X103497214Y-59602690D01*
X104640071Y-59507452D02*
X104544833Y-59459833D01*
X104497214Y-59412214D01*
X104449595Y-59316976D01*
X104449595Y-59269357D01*
X104497214Y-59174119D01*
X104544833Y-59126500D01*
X104640071Y-59078880D01*
X104830547Y-59078880D01*
X104925785Y-59126500D01*
X104973404Y-59174119D01*
X105021023Y-59269357D01*
X105021023Y-59316976D01*
X104973404Y-59412214D01*
X104925785Y-59459833D01*
X104830547Y-59507452D01*
X104640071Y-59507452D01*
X104544833Y-59555071D01*
X104497214Y-59602690D01*
X104449595Y-59697928D01*
X104449595Y-59888404D01*
X104497214Y-59983642D01*
X104544833Y-60031261D01*
X104640071Y-60078880D01*
X104830547Y-60078880D01*
X104925785Y-60031261D01*
X104973404Y-59983642D01*
X105021023Y-59888404D01*
X105021023Y-59697928D01*
X104973404Y-59602690D01*
X104925785Y-59555071D01*
X104830547Y-59507452D01*
X105354357Y-59078880D02*
X105973404Y-59078880D01*
X105640071Y-59459833D01*
X105782928Y-59459833D01*
X105878166Y-59507452D01*
X105925785Y-59555071D01*
X105973404Y-59650309D01*
X105973404Y-59888404D01*
X105925785Y-59983642D01*
X105878166Y-60031261D01*
X105782928Y-60078880D01*
X105497214Y-60078880D01*
X105401976Y-60031261D01*
X105354357Y-59983642D01*
%TO.C,R82*%
X98623380Y-64333357D02*
X98147190Y-64666690D01*
X98623380Y-64904785D02*
X97623380Y-64904785D01*
X97623380Y-64523833D01*
X97671000Y-64428595D01*
X97718619Y-64380976D01*
X97813857Y-64333357D01*
X97956714Y-64333357D01*
X98051952Y-64380976D01*
X98099571Y-64428595D01*
X98147190Y-64523833D01*
X98147190Y-64904785D01*
X98051952Y-63761928D02*
X98004333Y-63857166D01*
X97956714Y-63904785D01*
X97861476Y-63952404D01*
X97813857Y-63952404D01*
X97718619Y-63904785D01*
X97671000Y-63857166D01*
X97623380Y-63761928D01*
X97623380Y-63571452D01*
X97671000Y-63476214D01*
X97718619Y-63428595D01*
X97813857Y-63380976D01*
X97861476Y-63380976D01*
X97956714Y-63428595D01*
X98004333Y-63476214D01*
X98051952Y-63571452D01*
X98051952Y-63761928D01*
X98099571Y-63857166D01*
X98147190Y-63904785D01*
X98242428Y-63952404D01*
X98432904Y-63952404D01*
X98528142Y-63904785D01*
X98575761Y-63857166D01*
X98623380Y-63761928D01*
X98623380Y-63571452D01*
X98575761Y-63476214D01*
X98528142Y-63428595D01*
X98432904Y-63380976D01*
X98242428Y-63380976D01*
X98147190Y-63428595D01*
X98099571Y-63476214D01*
X98051952Y-63571452D01*
X97718619Y-63000023D02*
X97671000Y-62952404D01*
X97623380Y-62857166D01*
X97623380Y-62619071D01*
X97671000Y-62523833D01*
X97718619Y-62476214D01*
X97813857Y-62428595D01*
X97909095Y-62428595D01*
X98051952Y-62476214D01*
X98623380Y-63047642D01*
X98623380Y-62428595D01*
%TO.C,R81*%
X99750642Y-65412880D02*
X99417309Y-64936690D01*
X99179214Y-65412880D02*
X99179214Y-64412880D01*
X99560166Y-64412880D01*
X99655404Y-64460500D01*
X99703023Y-64508119D01*
X99750642Y-64603357D01*
X99750642Y-64746214D01*
X99703023Y-64841452D01*
X99655404Y-64889071D01*
X99560166Y-64936690D01*
X99179214Y-64936690D01*
X100322071Y-64841452D02*
X100226833Y-64793833D01*
X100179214Y-64746214D01*
X100131595Y-64650976D01*
X100131595Y-64603357D01*
X100179214Y-64508119D01*
X100226833Y-64460500D01*
X100322071Y-64412880D01*
X100512547Y-64412880D01*
X100607785Y-64460500D01*
X100655404Y-64508119D01*
X100703023Y-64603357D01*
X100703023Y-64650976D01*
X100655404Y-64746214D01*
X100607785Y-64793833D01*
X100512547Y-64841452D01*
X100322071Y-64841452D01*
X100226833Y-64889071D01*
X100179214Y-64936690D01*
X100131595Y-65031928D01*
X100131595Y-65222404D01*
X100179214Y-65317642D01*
X100226833Y-65365261D01*
X100322071Y-65412880D01*
X100512547Y-65412880D01*
X100607785Y-65365261D01*
X100655404Y-65317642D01*
X100703023Y-65222404D01*
X100703023Y-65031928D01*
X100655404Y-64936690D01*
X100607785Y-64889071D01*
X100512547Y-64841452D01*
X101655404Y-65412880D02*
X101083976Y-65412880D01*
X101369690Y-65412880D02*
X101369690Y-64412880D01*
X101274452Y-64555738D01*
X101179214Y-64650976D01*
X101083976Y-64698595D01*
%TO.C,R78*%
X43314880Y-117609857D02*
X42838690Y-117943190D01*
X43314880Y-118181285D02*
X42314880Y-118181285D01*
X42314880Y-117800333D01*
X42362500Y-117705095D01*
X42410119Y-117657476D01*
X42505357Y-117609857D01*
X42648214Y-117609857D01*
X42743452Y-117657476D01*
X42791071Y-117705095D01*
X42838690Y-117800333D01*
X42838690Y-118181285D01*
X42314880Y-117276523D02*
X42314880Y-116609857D01*
X43314880Y-117038428D01*
X42743452Y-116086047D02*
X42695833Y-116181285D01*
X42648214Y-116228904D01*
X42552976Y-116276523D01*
X42505357Y-116276523D01*
X42410119Y-116228904D01*
X42362500Y-116181285D01*
X42314880Y-116086047D01*
X42314880Y-115895571D01*
X42362500Y-115800333D01*
X42410119Y-115752714D01*
X42505357Y-115705095D01*
X42552976Y-115705095D01*
X42648214Y-115752714D01*
X42695833Y-115800333D01*
X42743452Y-115895571D01*
X42743452Y-116086047D01*
X42791071Y-116181285D01*
X42838690Y-116228904D01*
X42933928Y-116276523D01*
X43124404Y-116276523D01*
X43219642Y-116228904D01*
X43267261Y-116181285D01*
X43314880Y-116086047D01*
X43314880Y-115895571D01*
X43267261Y-115800333D01*
X43219642Y-115752714D01*
X43124404Y-115705095D01*
X42933928Y-115705095D01*
X42838690Y-115752714D01*
X42791071Y-115800333D01*
X42743452Y-115895571D01*
%TO.C,R77*%
X54411642Y-117609880D02*
X54078309Y-117133690D01*
X53840214Y-117609880D02*
X53840214Y-116609880D01*
X54221166Y-116609880D01*
X54316404Y-116657500D01*
X54364023Y-116705119D01*
X54411642Y-116800357D01*
X54411642Y-116943214D01*
X54364023Y-117038452D01*
X54316404Y-117086071D01*
X54221166Y-117133690D01*
X53840214Y-117133690D01*
X54744976Y-116609880D02*
X55411642Y-116609880D01*
X54983071Y-117609880D01*
X55697357Y-116609880D02*
X56364023Y-116609880D01*
X55935452Y-117609880D01*
%TO.C,R23*%
X106037142Y-108403380D02*
X105703809Y-107927190D01*
X105465714Y-108403380D02*
X105465714Y-107403380D01*
X105846666Y-107403380D01*
X105941904Y-107451000D01*
X105989523Y-107498619D01*
X106037142Y-107593857D01*
X106037142Y-107736714D01*
X105989523Y-107831952D01*
X105941904Y-107879571D01*
X105846666Y-107927190D01*
X105465714Y-107927190D01*
X106418095Y-107498619D02*
X106465714Y-107451000D01*
X106560952Y-107403380D01*
X106799047Y-107403380D01*
X106894285Y-107451000D01*
X106941904Y-107498619D01*
X106989523Y-107593857D01*
X106989523Y-107689095D01*
X106941904Y-107831952D01*
X106370476Y-108403380D01*
X106989523Y-108403380D01*
X107322857Y-107403380D02*
X107941904Y-107403380D01*
X107608571Y-107784333D01*
X107751428Y-107784333D01*
X107846666Y-107831952D01*
X107894285Y-107879571D01*
X107941904Y-107974809D01*
X107941904Y-108212904D01*
X107894285Y-108308142D01*
X107846666Y-108355761D01*
X107751428Y-108403380D01*
X107465714Y-108403380D01*
X107370476Y-108355761D01*
X107322857Y-108308142D01*
%TO.C,R22*%
X109862880Y-110053357D02*
X109386690Y-110386690D01*
X109862880Y-110624785D02*
X108862880Y-110624785D01*
X108862880Y-110243833D01*
X108910500Y-110148595D01*
X108958119Y-110100976D01*
X109053357Y-110053357D01*
X109196214Y-110053357D01*
X109291452Y-110100976D01*
X109339071Y-110148595D01*
X109386690Y-110243833D01*
X109386690Y-110624785D01*
X108958119Y-109672404D02*
X108910500Y-109624785D01*
X108862880Y-109529547D01*
X108862880Y-109291452D01*
X108910500Y-109196214D01*
X108958119Y-109148595D01*
X109053357Y-109100976D01*
X109148595Y-109100976D01*
X109291452Y-109148595D01*
X109862880Y-109720023D01*
X109862880Y-109100976D01*
X108958119Y-108720023D02*
X108910500Y-108672404D01*
X108862880Y-108577166D01*
X108862880Y-108339071D01*
X108910500Y-108243833D01*
X108958119Y-108196214D01*
X109053357Y-108148595D01*
X109148595Y-108148595D01*
X109291452Y-108196214D01*
X109862880Y-108767642D01*
X109862880Y-108148595D01*
%TO.C,R21*%
X108450142Y-37028380D02*
X108116809Y-36552190D01*
X107878714Y-37028380D02*
X107878714Y-36028380D01*
X108259666Y-36028380D01*
X108354904Y-36076000D01*
X108402523Y-36123619D01*
X108450142Y-36218857D01*
X108450142Y-36361714D01*
X108402523Y-36456952D01*
X108354904Y-36504571D01*
X108259666Y-36552190D01*
X107878714Y-36552190D01*
X108831095Y-36123619D02*
X108878714Y-36076000D01*
X108973952Y-36028380D01*
X109212047Y-36028380D01*
X109307285Y-36076000D01*
X109354904Y-36123619D01*
X109402523Y-36218857D01*
X109402523Y-36314095D01*
X109354904Y-36456952D01*
X108783476Y-37028380D01*
X109402523Y-37028380D01*
X110354904Y-37028380D02*
X109783476Y-37028380D01*
X110069190Y-37028380D02*
X110069190Y-36028380D01*
X109973952Y-36171238D01*
X109878714Y-36266476D01*
X109783476Y-36314095D01*
%TO.C,R20*%
X111434642Y-34996380D02*
X111101309Y-34520190D01*
X110863214Y-34996380D02*
X110863214Y-33996380D01*
X111244166Y-33996380D01*
X111339404Y-34044000D01*
X111387023Y-34091619D01*
X111434642Y-34186857D01*
X111434642Y-34329714D01*
X111387023Y-34424952D01*
X111339404Y-34472571D01*
X111244166Y-34520190D01*
X110863214Y-34520190D01*
X111815595Y-34091619D02*
X111863214Y-34044000D01*
X111958452Y-33996380D01*
X112196547Y-33996380D01*
X112291785Y-34044000D01*
X112339404Y-34091619D01*
X112387023Y-34186857D01*
X112387023Y-34282095D01*
X112339404Y-34424952D01*
X111767976Y-34996380D01*
X112387023Y-34996380D01*
X113006071Y-33996380D02*
X113101309Y-33996380D01*
X113196547Y-34044000D01*
X113244166Y-34091619D01*
X113291785Y-34186857D01*
X113339404Y-34377333D01*
X113339404Y-34615428D01*
X113291785Y-34805904D01*
X113244166Y-34901142D01*
X113196547Y-34948761D01*
X113101309Y-34996380D01*
X113006071Y-34996380D01*
X112910833Y-34948761D01*
X112863214Y-34901142D01*
X112815595Y-34805904D01*
X112767976Y-34615428D01*
X112767976Y-34377333D01*
X112815595Y-34186857D01*
X112863214Y-34091619D01*
X112910833Y-34044000D01*
X113006071Y-33996380D01*
%TO.C,R17*%
X27678142Y-96909880D02*
X27344809Y-96433690D01*
X27106714Y-96909880D02*
X27106714Y-95909880D01*
X27487666Y-95909880D01*
X27582904Y-95957500D01*
X27630523Y-96005119D01*
X27678142Y-96100357D01*
X27678142Y-96243214D01*
X27630523Y-96338452D01*
X27582904Y-96386071D01*
X27487666Y-96433690D01*
X27106714Y-96433690D01*
X28630523Y-96909880D02*
X28059095Y-96909880D01*
X28344809Y-96909880D02*
X28344809Y-95909880D01*
X28249571Y-96052738D01*
X28154333Y-96147976D01*
X28059095Y-96195595D01*
X28963857Y-95909880D02*
X29630523Y-95909880D01*
X29201952Y-96909880D01*
%TO.C,R16*%
X27741642Y-93417380D02*
X27408309Y-92941190D01*
X27170214Y-93417380D02*
X27170214Y-92417380D01*
X27551166Y-92417380D01*
X27646404Y-92465000D01*
X27694023Y-92512619D01*
X27741642Y-92607857D01*
X27741642Y-92750714D01*
X27694023Y-92845952D01*
X27646404Y-92893571D01*
X27551166Y-92941190D01*
X27170214Y-92941190D01*
X28694023Y-93417380D02*
X28122595Y-93417380D01*
X28408309Y-93417380D02*
X28408309Y-92417380D01*
X28313071Y-92560238D01*
X28217833Y-92655476D01*
X28122595Y-92703095D01*
X29551166Y-92417380D02*
X29360690Y-92417380D01*
X29265452Y-92465000D01*
X29217833Y-92512619D01*
X29122595Y-92655476D01*
X29074976Y-92845952D01*
X29074976Y-93226904D01*
X29122595Y-93322142D01*
X29170214Y-93369761D01*
X29265452Y-93417380D01*
X29455928Y-93417380D01*
X29551166Y-93369761D01*
X29598785Y-93322142D01*
X29646404Y-93226904D01*
X29646404Y-92988809D01*
X29598785Y-92893571D01*
X29551166Y-92845952D01*
X29455928Y-92798333D01*
X29265452Y-92798333D01*
X29170214Y-92845952D01*
X29122595Y-92893571D01*
X29074976Y-92988809D01*
%TO.C,R13*%
X54967142Y-110562380D02*
X54633809Y-110086190D01*
X54395714Y-110562380D02*
X54395714Y-109562380D01*
X54776666Y-109562380D01*
X54871904Y-109610000D01*
X54919523Y-109657619D01*
X54967142Y-109752857D01*
X54967142Y-109895714D01*
X54919523Y-109990952D01*
X54871904Y-110038571D01*
X54776666Y-110086190D01*
X54395714Y-110086190D01*
X55919523Y-110562380D02*
X55348095Y-110562380D01*
X55633809Y-110562380D02*
X55633809Y-109562380D01*
X55538571Y-109705238D01*
X55443333Y-109800476D01*
X55348095Y-109848095D01*
X56252857Y-109562380D02*
X56871904Y-109562380D01*
X56538571Y-109943333D01*
X56681428Y-109943333D01*
X56776666Y-109990952D01*
X56824285Y-110038571D01*
X56871904Y-110133809D01*
X56871904Y-110371904D01*
X56824285Y-110467142D01*
X56776666Y-110514761D01*
X56681428Y-110562380D01*
X56395714Y-110562380D01*
X56300476Y-110514761D01*
X56252857Y-110467142D01*
%TO.C,R12*%
X58475642Y-114815880D02*
X58142309Y-114339690D01*
X57904214Y-114815880D02*
X57904214Y-113815880D01*
X58285166Y-113815880D01*
X58380404Y-113863500D01*
X58428023Y-113911119D01*
X58475642Y-114006357D01*
X58475642Y-114149214D01*
X58428023Y-114244452D01*
X58380404Y-114292071D01*
X58285166Y-114339690D01*
X57904214Y-114339690D01*
X59428023Y-114815880D02*
X58856595Y-114815880D01*
X59142309Y-114815880D02*
X59142309Y-113815880D01*
X59047071Y-113958738D01*
X58951833Y-114053976D01*
X58856595Y-114101595D01*
X59808976Y-113911119D02*
X59856595Y-113863500D01*
X59951833Y-113815880D01*
X60189928Y-113815880D01*
X60285166Y-113863500D01*
X60332785Y-113911119D01*
X60380404Y-114006357D01*
X60380404Y-114101595D01*
X60332785Y-114244452D01*
X59761357Y-114815880D01*
X60380404Y-114815880D01*
%TO.C,R7*%
X110877880Y-54840166D02*
X110401690Y-55173500D01*
X110877880Y-55411595D02*
X109877880Y-55411595D01*
X109877880Y-55030642D01*
X109925500Y-54935404D01*
X109973119Y-54887785D01*
X110068357Y-54840166D01*
X110211214Y-54840166D01*
X110306452Y-54887785D01*
X110354071Y-54935404D01*
X110401690Y-55030642D01*
X110401690Y-55411595D01*
X109877880Y-54506833D02*
X109877880Y-53840166D01*
X110877880Y-54268738D01*
%TO.C,R6*%
X107894380Y-51220666D02*
X107418190Y-51554000D01*
X107894380Y-51792095D02*
X106894380Y-51792095D01*
X106894380Y-51411142D01*
X106942000Y-51315904D01*
X106989619Y-51268285D01*
X107084857Y-51220666D01*
X107227714Y-51220666D01*
X107322952Y-51268285D01*
X107370571Y-51315904D01*
X107418190Y-51411142D01*
X107418190Y-51792095D01*
X106894380Y-50363523D02*
X106894380Y-50554000D01*
X106942000Y-50649238D01*
X106989619Y-50696857D01*
X107132476Y-50792095D01*
X107322952Y-50839714D01*
X107703904Y-50839714D01*
X107799142Y-50792095D01*
X107846761Y-50744476D01*
X107894380Y-50649238D01*
X107894380Y-50458761D01*
X107846761Y-50363523D01*
X107799142Y-50315904D01*
X107703904Y-50268285D01*
X107465809Y-50268285D01*
X107370571Y-50315904D01*
X107322952Y-50363523D01*
X107275333Y-50458761D01*
X107275333Y-50649238D01*
X107322952Y-50744476D01*
X107370571Y-50792095D01*
X107465809Y-50839714D01*
%TO.C,Q4*%
X110204261Y-44489619D02*
X110109023Y-44442000D01*
X110013785Y-44346761D01*
X109870928Y-44203904D01*
X109775690Y-44156285D01*
X109680452Y-44156285D01*
X109728071Y-44394380D02*
X109632833Y-44346761D01*
X109537595Y-44251523D01*
X109489976Y-44061047D01*
X109489976Y-43727714D01*
X109537595Y-43537238D01*
X109632833Y-43442000D01*
X109728071Y-43394380D01*
X109918547Y-43394380D01*
X110013785Y-43442000D01*
X110109023Y-43537238D01*
X110156642Y-43727714D01*
X110156642Y-44061047D01*
X110109023Y-44251523D01*
X110013785Y-44346761D01*
X109918547Y-44394380D01*
X109728071Y-44394380D01*
X111013785Y-43727714D02*
X111013785Y-44394380D01*
X110775690Y-43346761D02*
X110537595Y-44061047D01*
X111156642Y-44061047D01*
%TO.C,Q3*%
X26265119Y-102139738D02*
X26217500Y-102234976D01*
X26122261Y-102330214D01*
X25979404Y-102473071D01*
X25931785Y-102568309D01*
X25931785Y-102663547D01*
X26169880Y-102615928D02*
X26122261Y-102711166D01*
X26027023Y-102806404D01*
X25836547Y-102854023D01*
X25503214Y-102854023D01*
X25312738Y-102806404D01*
X25217500Y-102711166D01*
X25169880Y-102615928D01*
X25169880Y-102425452D01*
X25217500Y-102330214D01*
X25312738Y-102234976D01*
X25503214Y-102187357D01*
X25836547Y-102187357D01*
X26027023Y-102234976D01*
X26122261Y-102330214D01*
X26169880Y-102425452D01*
X26169880Y-102615928D01*
X25169880Y-101854023D02*
X25169880Y-101234976D01*
X25550833Y-101568309D01*
X25550833Y-101425452D01*
X25598452Y-101330214D01*
X25646071Y-101282595D01*
X25741309Y-101234976D01*
X25979404Y-101234976D01*
X26074642Y-101282595D01*
X26122261Y-101330214D01*
X26169880Y-101425452D01*
X26169880Y-101711166D01*
X26122261Y-101806404D01*
X26074642Y-101854023D01*
%TO.C,K5*%
X42695904Y-43505380D02*
X42695904Y-42505380D01*
X43267333Y-43505380D02*
X42838761Y-42933952D01*
X43267333Y-42505380D02*
X42695904Y-43076809D01*
X44172095Y-42505380D02*
X43695904Y-42505380D01*
X43648285Y-42981571D01*
X43695904Y-42933952D01*
X43791142Y-42886333D01*
X44029238Y-42886333D01*
X44124476Y-42933952D01*
X44172095Y-42981571D01*
X44219714Y-43076809D01*
X44219714Y-43314904D01*
X44172095Y-43410142D01*
X44124476Y-43457761D01*
X44029238Y-43505380D01*
X43791142Y-43505380D01*
X43695904Y-43457761D01*
X43648285Y-43410142D01*
%TO.C,K4*%
X101623904Y-34996380D02*
X101623904Y-33996380D01*
X102195333Y-34996380D02*
X101766761Y-34424952D01*
X102195333Y-33996380D02*
X101623904Y-34567809D01*
X103052476Y-34329714D02*
X103052476Y-34996380D01*
X102814380Y-33948761D02*
X102576285Y-34663047D01*
X103195333Y-34663047D01*
%TO.C,K3*%
X37663380Y-101703095D02*
X36663380Y-101703095D01*
X37663380Y-101131666D02*
X37091952Y-101560238D01*
X36663380Y-101131666D02*
X37234809Y-101703095D01*
X36663380Y-100798333D02*
X36663380Y-100179285D01*
X37044333Y-100512619D01*
X37044333Y-100369761D01*
X37091952Y-100274523D01*
X37139571Y-100226904D01*
X37234809Y-100179285D01*
X37472904Y-100179285D01*
X37568142Y-100226904D01*
X37615761Y-100274523D01*
X37663380Y-100369761D01*
X37663380Y-100655476D01*
X37615761Y-100750714D01*
X37568142Y-100798333D01*
%TO.C,K2*%
X44394380Y-87479095D02*
X43394380Y-87479095D01*
X44394380Y-86907666D02*
X43822952Y-87336238D01*
X43394380Y-86907666D02*
X43965809Y-87479095D01*
X43489619Y-86526714D02*
X43442000Y-86479095D01*
X43394380Y-86383857D01*
X43394380Y-86145761D01*
X43442000Y-86050523D01*
X43489619Y-86002904D01*
X43584857Y-85955285D01*
X43680095Y-85955285D01*
X43822952Y-86002904D01*
X44394380Y-86574333D01*
X44394380Y-85955285D01*
%TO.C,K1*%
X37536380Y-68302095D02*
X36536380Y-68302095D01*
X37536380Y-67730666D02*
X36964952Y-68159238D01*
X36536380Y-67730666D02*
X37107809Y-68302095D01*
X37536380Y-66778285D02*
X37536380Y-67349714D01*
X37536380Y-67064000D02*
X36536380Y-67064000D01*
X36679238Y-67159238D01*
X36774476Y-67254476D01*
X36822095Y-67349714D01*
%TO.C,J11*%
X105425976Y-93813380D02*
X105425976Y-94527666D01*
X105378357Y-94670523D01*
X105283119Y-94765761D01*
X105140261Y-94813380D01*
X105045023Y-94813380D01*
X106425976Y-94813380D02*
X105854547Y-94813380D01*
X106140261Y-94813380D02*
X106140261Y-93813380D01*
X106045023Y-93956238D01*
X105949785Y-94051476D01*
X105854547Y-94099095D01*
X107378357Y-94813380D02*
X106806928Y-94813380D01*
X107092642Y-94813380D02*
X107092642Y-93813380D01*
X106997404Y-93956238D01*
X106902166Y-94051476D01*
X106806928Y-94099095D01*
%TO.C,J10*%
X86955380Y-111744023D02*
X87669666Y-111744023D01*
X87812523Y-111791642D01*
X87907761Y-111886880D01*
X87955380Y-112029738D01*
X87955380Y-112124976D01*
X87955380Y-110744023D02*
X87955380Y-111315452D01*
X87955380Y-111029738D02*
X86955380Y-111029738D01*
X87098238Y-111124976D01*
X87193476Y-111220214D01*
X87241095Y-111315452D01*
X86955380Y-110124976D02*
X86955380Y-110029738D01*
X87003000Y-109934500D01*
X87050619Y-109886880D01*
X87145857Y-109839261D01*
X87336333Y-109791642D01*
X87574428Y-109791642D01*
X87764904Y-109839261D01*
X87860142Y-109886880D01*
X87907761Y-109934500D01*
X87955380Y-110029738D01*
X87955380Y-110124976D01*
X87907761Y-110220214D01*
X87860142Y-110267833D01*
X87764904Y-110315452D01*
X87574428Y-110363071D01*
X87336333Y-110363071D01*
X87145857Y-110315452D01*
X87050619Y-110267833D01*
X87003000Y-110220214D01*
X86955380Y-110124976D01*
%TO.C,J9*%
X31226166Y-36345880D02*
X31226166Y-37060166D01*
X31178547Y-37203023D01*
X31083309Y-37298261D01*
X30940452Y-37345880D01*
X30845214Y-37345880D01*
X31749976Y-37345880D02*
X31940452Y-37345880D01*
X32035690Y-37298261D01*
X32083309Y-37250642D01*
X32178547Y-37107785D01*
X32226166Y-36917309D01*
X32226166Y-36536357D01*
X32178547Y-36441119D01*
X32130928Y-36393500D01*
X32035690Y-36345880D01*
X31845214Y-36345880D01*
X31749976Y-36393500D01*
X31702357Y-36441119D01*
X31654738Y-36536357D01*
X31654738Y-36774452D01*
X31702357Y-36869690D01*
X31749976Y-36917309D01*
X31845214Y-36964928D01*
X32035690Y-36964928D01*
X32130928Y-36917309D01*
X32178547Y-36869690D01*
X32226166Y-36774452D01*
%TO.C,J8*%
X95932666Y-35012380D02*
X95932666Y-35726666D01*
X95885047Y-35869523D01*
X95789809Y-35964761D01*
X95646952Y-36012380D01*
X95551714Y-36012380D01*
X96551714Y-35440952D02*
X96456476Y-35393333D01*
X96408857Y-35345714D01*
X96361238Y-35250476D01*
X96361238Y-35202857D01*
X96408857Y-35107619D01*
X96456476Y-35060000D01*
X96551714Y-35012380D01*
X96742190Y-35012380D01*
X96837428Y-35060000D01*
X96885047Y-35107619D01*
X96932666Y-35202857D01*
X96932666Y-35250476D01*
X96885047Y-35345714D01*
X96837428Y-35393333D01*
X96742190Y-35440952D01*
X96551714Y-35440952D01*
X96456476Y-35488571D01*
X96408857Y-35536190D01*
X96361238Y-35631428D01*
X96361238Y-35821904D01*
X96408857Y-35917142D01*
X96456476Y-35964761D01*
X96551714Y-36012380D01*
X96742190Y-36012380D01*
X96837428Y-35964761D01*
X96885047Y-35917142D01*
X96932666Y-35821904D01*
X96932666Y-35631428D01*
X96885047Y-35536190D01*
X96837428Y-35488571D01*
X96742190Y-35440952D01*
%TO.C,J7*%
X30694380Y-91709833D02*
X31408666Y-91709833D01*
X31551523Y-91757452D01*
X31646761Y-91852690D01*
X31694380Y-91995547D01*
X31694380Y-92090785D01*
X30694380Y-91328880D02*
X30694380Y-90662214D01*
X31694380Y-91090785D01*
%TO.C,J6*%
X32345380Y-73167833D02*
X33059666Y-73167833D01*
X33202523Y-73215452D01*
X33297761Y-73310690D01*
X33345380Y-73453547D01*
X33345380Y-73548785D01*
X32345380Y-72263071D02*
X32345380Y-72453547D01*
X32393000Y-72548785D01*
X32440619Y-72596404D01*
X32583476Y-72691642D01*
X32773952Y-72739261D01*
X33154904Y-72739261D01*
X33250142Y-72691642D01*
X33297761Y-72644023D01*
X33345380Y-72548785D01*
X33345380Y-72358309D01*
X33297761Y-72263071D01*
X33250142Y-72215452D01*
X33154904Y-72167833D01*
X32916809Y-72167833D01*
X32821571Y-72215452D01*
X32773952Y-72263071D01*
X32726333Y-72358309D01*
X32726333Y-72548785D01*
X32773952Y-72644023D01*
X32821571Y-72691642D01*
X32916809Y-72739261D01*
%TO.C,J5*%
X75094666Y-117711380D02*
X75094666Y-118425666D01*
X75047047Y-118568523D01*
X74951809Y-118663761D01*
X74808952Y-118711380D01*
X74713714Y-118711380D01*
X76047047Y-117711380D02*
X75570857Y-117711380D01*
X75523238Y-118187571D01*
X75570857Y-118139952D01*
X75666095Y-118092333D01*
X75904190Y-118092333D01*
X75999428Y-118139952D01*
X76047047Y-118187571D01*
X76094666Y-118282809D01*
X76094666Y-118520904D01*
X76047047Y-118616142D01*
X75999428Y-118663761D01*
X75904190Y-118711380D01*
X75666095Y-118711380D01*
X75570857Y-118663761D01*
X75523238Y-118616142D01*
%TO.C,J4*%
X46352666Y-117711380D02*
X46352666Y-118425666D01*
X46305047Y-118568523D01*
X46209809Y-118663761D01*
X46066952Y-118711380D01*
X45971714Y-118711380D01*
X47257428Y-118044714D02*
X47257428Y-118711380D01*
X47019333Y-117663761D02*
X46781238Y-118378047D01*
X47400285Y-118378047D01*
%TO.C,J3*%
X109053380Y-72151833D02*
X109767666Y-72151833D01*
X109910523Y-72199452D01*
X110005761Y-72294690D01*
X110053380Y-72437547D01*
X110053380Y-72532785D01*
X109053380Y-71770880D02*
X109053380Y-71151833D01*
X109434333Y-71485166D01*
X109434333Y-71342309D01*
X109481952Y-71247071D01*
X109529571Y-71199452D01*
X109624809Y-71151833D01*
X109862904Y-71151833D01*
X109958142Y-71199452D01*
X110005761Y-71247071D01*
X110053380Y-71342309D01*
X110053380Y-71628023D01*
X110005761Y-71723261D01*
X109958142Y-71770880D01*
%TO.C,J2*%
X109751880Y-107076833D02*
X110466166Y-107076833D01*
X110609023Y-107124452D01*
X110704261Y-107219690D01*
X110751880Y-107362547D01*
X110751880Y-107457785D01*
X109847119Y-106648261D02*
X109799500Y-106600642D01*
X109751880Y-106505404D01*
X109751880Y-106267309D01*
X109799500Y-106172071D01*
X109847119Y-106124452D01*
X109942357Y-106076833D01*
X110037595Y-106076833D01*
X110180452Y-106124452D01*
X110751880Y-106695880D01*
X110751880Y-106076833D01*
%TO.C,J1*%
X27011380Y-40973333D02*
X27725666Y-40973333D01*
X27868523Y-41020952D01*
X27963761Y-41116190D01*
X28011380Y-41259047D01*
X28011380Y-41354285D01*
X28011380Y-39973333D02*
X28011380Y-40544761D01*
X28011380Y-40259047D02*
X27011380Y-40259047D01*
X27154238Y-40354285D01*
X27249476Y-40449523D01*
X27297095Y-40544761D01*
%TO.C,D7*%
X109354880Y-107799095D02*
X108354880Y-107799095D01*
X108354880Y-107561000D01*
X108402500Y-107418142D01*
X108497738Y-107322904D01*
X108592976Y-107275285D01*
X108783452Y-107227666D01*
X108926309Y-107227666D01*
X109116785Y-107275285D01*
X109212023Y-107322904D01*
X109307261Y-107418142D01*
X109354880Y-107561000D01*
X109354880Y-107799095D01*
X108354880Y-106894333D02*
X108354880Y-106227666D01*
X109354880Y-106656238D01*
%TO.C,D6*%
X105100380Y-108243595D02*
X104100380Y-108243595D01*
X104100380Y-108005500D01*
X104148000Y-107862642D01*
X104243238Y-107767404D01*
X104338476Y-107719785D01*
X104528952Y-107672166D01*
X104671809Y-107672166D01*
X104862285Y-107719785D01*
X104957523Y-107767404D01*
X105052761Y-107862642D01*
X105100380Y-108005500D01*
X105100380Y-108243595D01*
X104100380Y-106815023D02*
X104100380Y-107005500D01*
X104148000Y-107100738D01*
X104195619Y-107148357D01*
X104338476Y-107243595D01*
X104528952Y-107291214D01*
X104909904Y-107291214D01*
X105005142Y-107243595D01*
X105052761Y-107195976D01*
X105100380Y-107100738D01*
X105100380Y-106910261D01*
X105052761Y-106815023D01*
X105005142Y-106767404D01*
X104909904Y-106719785D01*
X104671809Y-106719785D01*
X104576571Y-106767404D01*
X104528952Y-106815023D01*
X104481333Y-106910261D01*
X104481333Y-107100738D01*
X104528952Y-107195976D01*
X104576571Y-107243595D01*
X104671809Y-107291214D01*
%TO.C,D5*%
X43140404Y-60649380D02*
X43140404Y-59649380D01*
X43378500Y-59649380D01*
X43521357Y-59697000D01*
X43616595Y-59792238D01*
X43664214Y-59887476D01*
X43711833Y-60077952D01*
X43711833Y-60220809D01*
X43664214Y-60411285D01*
X43616595Y-60506523D01*
X43521357Y-60601761D01*
X43378500Y-60649380D01*
X43140404Y-60649380D01*
X44616595Y-59649380D02*
X44140404Y-59649380D01*
X44092785Y-60125571D01*
X44140404Y-60077952D01*
X44235642Y-60030333D01*
X44473738Y-60030333D01*
X44568976Y-60077952D01*
X44616595Y-60125571D01*
X44664214Y-60220809D01*
X44664214Y-60458904D01*
X44616595Y-60554142D01*
X44568976Y-60601761D01*
X44473738Y-60649380D01*
X44235642Y-60649380D01*
X44140404Y-60601761D01*
X44092785Y-60554142D01*
%TO.C,D4*%
X108022380Y-47156595D02*
X107022380Y-47156595D01*
X107022380Y-46918500D01*
X107070000Y-46775642D01*
X107165238Y-46680404D01*
X107260476Y-46632785D01*
X107450952Y-46585166D01*
X107593809Y-46585166D01*
X107784285Y-46632785D01*
X107879523Y-46680404D01*
X107974761Y-46775642D01*
X108022380Y-46918500D01*
X108022380Y-47156595D01*
X107355714Y-45728023D02*
X108022380Y-45728023D01*
X106974761Y-45966119D02*
X107689047Y-46204214D01*
X107689047Y-45585166D01*
%TO.C,D3*%
X30948404Y-103766880D02*
X30948404Y-102766880D01*
X31186500Y-102766880D01*
X31329357Y-102814500D01*
X31424595Y-102909738D01*
X31472214Y-103004976D01*
X31519833Y-103195452D01*
X31519833Y-103338309D01*
X31472214Y-103528785D01*
X31424595Y-103624023D01*
X31329357Y-103719261D01*
X31186500Y-103766880D01*
X30948404Y-103766880D01*
X31853166Y-102766880D02*
X32472214Y-102766880D01*
X32138880Y-103147833D01*
X32281738Y-103147833D01*
X32376976Y-103195452D01*
X32424595Y-103243071D01*
X32472214Y-103338309D01*
X32472214Y-103576404D01*
X32424595Y-103671642D01*
X32376976Y-103719261D01*
X32281738Y-103766880D01*
X31996023Y-103766880D01*
X31900785Y-103719261D01*
X31853166Y-103671642D01*
%TO.C,C39*%
X52071142Y-69857857D02*
X52118761Y-69905476D01*
X52166380Y-70048333D01*
X52166380Y-70143571D01*
X52118761Y-70286428D01*
X52023523Y-70381666D01*
X51928285Y-70429285D01*
X51737809Y-70476904D01*
X51594952Y-70476904D01*
X51404476Y-70429285D01*
X51309238Y-70381666D01*
X51214000Y-70286428D01*
X51166380Y-70143571D01*
X51166380Y-70048333D01*
X51214000Y-69905476D01*
X51261619Y-69857857D01*
X51166380Y-69524523D02*
X51166380Y-68905476D01*
X51547333Y-69238809D01*
X51547333Y-69095952D01*
X51594952Y-69000714D01*
X51642571Y-68953095D01*
X51737809Y-68905476D01*
X51975904Y-68905476D01*
X52071142Y-68953095D01*
X52118761Y-69000714D01*
X52166380Y-69095952D01*
X52166380Y-69381666D01*
X52118761Y-69476904D01*
X52071142Y-69524523D01*
X52166380Y-68429285D02*
X52166380Y-68238809D01*
X52118761Y-68143571D01*
X52071142Y-68095952D01*
X51928285Y-68000714D01*
X51737809Y-67953095D01*
X51356857Y-67953095D01*
X51261619Y-68000714D01*
X51214000Y-68048333D01*
X51166380Y-68143571D01*
X51166380Y-68334047D01*
X51214000Y-68429285D01*
X51261619Y-68476904D01*
X51356857Y-68524523D01*
X51594952Y-68524523D01*
X51690190Y-68476904D01*
X51737809Y-68429285D01*
X51785428Y-68334047D01*
X51785428Y-68143571D01*
X51737809Y-68048333D01*
X51690190Y-68000714D01*
X51594952Y-67953095D01*
%TO.C,C7*%
X94527642Y-121324666D02*
X94575261Y-121372285D01*
X94622880Y-121515142D01*
X94622880Y-121610380D01*
X94575261Y-121753238D01*
X94480023Y-121848476D01*
X94384785Y-121896095D01*
X94194309Y-121943714D01*
X94051452Y-121943714D01*
X93860976Y-121896095D01*
X93765738Y-121848476D01*
X93670500Y-121753238D01*
X93622880Y-121610380D01*
X93622880Y-121515142D01*
X93670500Y-121372285D01*
X93718119Y-121324666D01*
X93622880Y-120991333D02*
X93622880Y-120324666D01*
X94622880Y-120753238D01*
%TO.C,C6*%
X89003142Y-121197666D02*
X89050761Y-121245285D01*
X89098380Y-121388142D01*
X89098380Y-121483380D01*
X89050761Y-121626238D01*
X88955523Y-121721476D01*
X88860285Y-121769095D01*
X88669809Y-121816714D01*
X88526952Y-121816714D01*
X88336476Y-121769095D01*
X88241238Y-121721476D01*
X88146000Y-121626238D01*
X88098380Y-121483380D01*
X88098380Y-121388142D01*
X88146000Y-121245285D01*
X88193619Y-121197666D01*
X88098380Y-120340523D02*
X88098380Y-120531000D01*
X88146000Y-120626238D01*
X88193619Y-120673857D01*
X88336476Y-120769095D01*
X88526952Y-120816714D01*
X88907904Y-120816714D01*
X89003142Y-120769095D01*
X89050761Y-120721476D01*
X89098380Y-120626238D01*
X89098380Y-120435761D01*
X89050761Y-120340523D01*
X89003142Y-120292904D01*
X88907904Y-120245285D01*
X88669809Y-120245285D01*
X88574571Y-120292904D01*
X88526952Y-120340523D01*
X88479333Y-120435761D01*
X88479333Y-120626238D01*
X88526952Y-120721476D01*
X88574571Y-120769095D01*
X88669809Y-120816714D01*
%TO.C,C5*%
X97766142Y-110593166D02*
X97813761Y-110640785D01*
X97861380Y-110783642D01*
X97861380Y-110878880D01*
X97813761Y-111021738D01*
X97718523Y-111116976D01*
X97623285Y-111164595D01*
X97432809Y-111212214D01*
X97289952Y-111212214D01*
X97099476Y-111164595D01*
X97004238Y-111116976D01*
X96909000Y-111021738D01*
X96861380Y-110878880D01*
X96861380Y-110783642D01*
X96909000Y-110640785D01*
X96956619Y-110593166D01*
X96861380Y-109688404D02*
X96861380Y-110164595D01*
X97337571Y-110212214D01*
X97289952Y-110164595D01*
X97242333Y-110069357D01*
X97242333Y-109831261D01*
X97289952Y-109736023D01*
X97337571Y-109688404D01*
X97432809Y-109640785D01*
X97670904Y-109640785D01*
X97766142Y-109688404D01*
X97813761Y-109736023D01*
X97861380Y-109831261D01*
X97861380Y-110069357D01*
X97813761Y-110164595D01*
X97766142Y-110212214D01*
%TO.C,C4*%
X106846642Y-121324666D02*
X106894261Y-121372285D01*
X106941880Y-121515142D01*
X106941880Y-121610380D01*
X106894261Y-121753238D01*
X106799023Y-121848476D01*
X106703785Y-121896095D01*
X106513309Y-121943714D01*
X106370452Y-121943714D01*
X106179976Y-121896095D01*
X106084738Y-121848476D01*
X105989500Y-121753238D01*
X105941880Y-121610380D01*
X105941880Y-121515142D01*
X105989500Y-121372285D01*
X106037119Y-121324666D01*
X106275214Y-120467523D02*
X106941880Y-120467523D01*
X105894261Y-120705619D02*
X106608547Y-120943714D01*
X106608547Y-120324666D01*
%TO.C,C3*%
X101258642Y-121324666D02*
X101306261Y-121372285D01*
X101353880Y-121515142D01*
X101353880Y-121610380D01*
X101306261Y-121753238D01*
X101211023Y-121848476D01*
X101115785Y-121896095D01*
X100925309Y-121943714D01*
X100782452Y-121943714D01*
X100591976Y-121896095D01*
X100496738Y-121848476D01*
X100401500Y-121753238D01*
X100353880Y-121610380D01*
X100353880Y-121515142D01*
X100401500Y-121372285D01*
X100449119Y-121324666D01*
X100353880Y-120991333D02*
X100353880Y-120372285D01*
X100734833Y-120705619D01*
X100734833Y-120562761D01*
X100782452Y-120467523D01*
X100830071Y-120419904D01*
X100925309Y-120372285D01*
X101163404Y-120372285D01*
X101258642Y-120419904D01*
X101306261Y-120467523D01*
X101353880Y-120562761D01*
X101353880Y-120848476D01*
X101306261Y-120943714D01*
X101258642Y-120991333D01*
%TO.C,A1*%
X97067666Y-54562285D02*
X97067666Y-54086095D01*
X97353380Y-54657523D02*
X96353380Y-54324190D01*
X97353380Y-53990857D01*
X97353380Y-53133714D02*
X97353380Y-53705142D01*
X97353380Y-53419428D02*
X96353380Y-53419428D01*
X96496238Y-53514666D01*
X96591476Y-53609904D01*
X96639095Y-53705142D01*
%TD*%
M02*
