%TF.GenerationSoftware,KiCad,Pcbnew,5.1.9-73d0e3b20d~88~ubuntu20.04.1*%
%TF.CreationDate,2021-03-12T19:43:36+02:00*%
%TF.ProjectId,hymRC,68796d52-432e-46b6-9963-61645f706362,rev?*%
%TF.SameCoordinates,Original*%
%TF.FileFunction,Legend,Top*%
%TF.FilePolarity,Positive*%
%FSLAX46Y46*%
G04 Gerber Fmt 4.6, Leading zero omitted, Abs format (unit mm)*
G04 Created by KiCad (PCBNEW 5.1.9-73d0e3b20d~88~ubuntu20.04.1) date 2021-03-12 19:43:36*
%MOMM*%
%LPD*%
G01*
G04 APERTURE LIST*
%ADD10C,0.120000*%
%ADD11C,0.150000*%
G04 APERTURE END LIST*
D10*
%TO.C,U6*%
X88295001Y-48535001D02*
G75*
G02*
X86295001Y-48535001I-1000000J0D01*
G01*
X86295001Y-48535001D02*
X80950001Y-48535001D01*
X80950001Y-48535001D02*
X80950001Y-79135001D01*
X80950001Y-79135001D02*
X93640001Y-79135001D01*
X93640001Y-79135001D02*
X93640001Y-48535001D01*
X93640001Y-48535001D02*
X88295001Y-48535001D01*
X77250001Y-48475001D02*
X77250001Y-79195001D01*
X77250001Y-79195001D02*
X97340001Y-79195001D01*
X97340001Y-79195001D02*
X97340001Y-48475001D01*
X97340001Y-48475001D02*
X77250001Y-48475001D01*
%TO.C,U4*%
X95695001Y-91385001D02*
G75*
G02*
X93695001Y-91385001I-1000000J0D01*
G01*
X93695001Y-91385001D02*
X91460001Y-91385001D01*
X91460001Y-91385001D02*
X91460001Y-96585001D01*
X91460001Y-96585001D02*
X97930001Y-96585001D01*
X97930001Y-96585001D02*
X97930001Y-91385001D01*
X97930001Y-91385001D02*
X95695001Y-91385001D01*
%TO.C,U3*%
X126945001Y-48485001D02*
G75*
G02*
X124945001Y-48485001I-1000000J0D01*
G01*
X124945001Y-48485001D02*
X122710001Y-48485001D01*
X122710001Y-48485001D02*
X122710001Y-53685001D01*
X122710001Y-53685001D02*
X129180001Y-53685001D01*
X129180001Y-53685001D02*
X129180001Y-48485001D01*
X129180001Y-48485001D02*
X126945001Y-48485001D01*
%TO.C,U2*%
X72255001Y-48505001D02*
G75*
G02*
X70255001Y-48505001I-1000000J0D01*
G01*
X70255001Y-48505001D02*
X68605001Y-48505001D01*
X68605001Y-48505001D02*
X68605001Y-84185001D01*
X68605001Y-84185001D02*
X73905001Y-84185001D01*
X73905001Y-84185001D02*
X73905001Y-48505001D01*
X73905001Y-48505001D02*
X72255001Y-48505001D01*
%TO.C,U1*%
X158750000Y-104605000D02*
X154890000Y-104605000D01*
X154890000Y-104605000D02*
X154890000Y-104850000D01*
X158750000Y-104605000D02*
X162610000Y-104605000D01*
X162610000Y-104605000D02*
X162610000Y-104850000D01*
X158750000Y-116375000D02*
X154890000Y-116375000D01*
X154890000Y-116375000D02*
X154890000Y-116130000D01*
X158750000Y-116375000D02*
X162610000Y-116375000D01*
X162610000Y-116375000D02*
X162610000Y-116130000D01*
X162610000Y-116130000D02*
X164425000Y-116130000D01*
%TO.C,K4*%
X77425001Y-95431001D02*
X77425001Y-80699001D01*
X77425001Y-80699001D02*
X87585001Y-80699001D01*
X87585001Y-80699001D02*
X87585001Y-95431001D01*
X87585001Y-95431001D02*
X77425001Y-95431001D01*
X82911001Y-82985001D02*
X82276001Y-84001001D01*
X80727001Y-82858001D02*
X80727001Y-83493001D01*
X80727001Y-83493001D02*
X81387001Y-83493001D01*
X83927001Y-82858001D02*
X83927001Y-83493001D01*
X83927001Y-83493001D02*
X83292001Y-83493001D01*
X83292001Y-82985001D02*
X81387001Y-82985001D01*
X81387001Y-82985001D02*
X81387001Y-84001001D01*
X81387001Y-84001001D02*
X83292001Y-84001001D01*
X83292001Y-82985001D02*
X83292001Y-84001001D01*
%TO.C,K3*%
X104355001Y-69945001D02*
G75*
G02*
X102355001Y-69945001I-1000000J0D01*
G01*
X102355001Y-69945001D02*
X100585001Y-69945001D01*
X100585001Y-69945001D02*
X100585001Y-89965001D01*
X100585001Y-89965001D02*
X106125001Y-89965001D01*
X106125001Y-89965001D02*
X106125001Y-69945001D01*
X106125001Y-69945001D02*
X104355001Y-69945001D01*
%TO.C,K2*%
X115205001Y-48495001D02*
G75*
G02*
X113205001Y-48495001I-1000000J0D01*
G01*
X113205001Y-48495001D02*
X111435001Y-48495001D01*
X111435001Y-48495001D02*
X111435001Y-68515001D01*
X111435001Y-68515001D02*
X116975001Y-68515001D01*
X116975001Y-68515001D02*
X116975001Y-48495001D01*
X116975001Y-48495001D02*
X115205001Y-48495001D01*
%TO.C,K1*%
X104355001Y-48495001D02*
G75*
G02*
X102355001Y-48495001I-1000000J0D01*
G01*
X102355001Y-48495001D02*
X100585001Y-48495001D01*
X100585001Y-48495001D02*
X100585001Y-68515001D01*
X100585001Y-68515001D02*
X106125001Y-68515001D01*
X106125001Y-68515001D02*
X106125001Y-48495001D01*
X106125001Y-48495001D02*
X104355001Y-48495001D01*
%TO.C,A1*%
X127000000Y-102870000D02*
X127000000Y-100330000D01*
X127000000Y-100330000D02*
X124330000Y-100330000D01*
X124330000Y-102870000D02*
X124330000Y-141100000D01*
X124330000Y-97660000D02*
X124330000Y-100330000D01*
X139700000Y-100330000D02*
X142370000Y-100330000D01*
X139700000Y-100330000D02*
X139700000Y-138430000D01*
X139700000Y-138430000D02*
X142370000Y-138430000D01*
X127000000Y-102870000D02*
X124330000Y-102870000D01*
X127000000Y-102870000D02*
X127000000Y-138430000D01*
X127000000Y-138430000D02*
X124330000Y-138430000D01*
X124330000Y-141100000D02*
X142370000Y-141100000D01*
X142370000Y-141100000D02*
X142370000Y-97660000D01*
X142370000Y-97660000D02*
X124330000Y-97660000D01*
%TO.C,U6*%
D11*
X86533096Y-46987381D02*
X86533096Y-47796905D01*
X86580715Y-47892143D01*
X86628334Y-47939762D01*
X86723572Y-47987381D01*
X86914048Y-47987381D01*
X87009286Y-47939762D01*
X87056905Y-47892143D01*
X87104524Y-47796905D01*
X87104524Y-46987381D01*
X88009286Y-46987381D02*
X87818810Y-46987381D01*
X87723572Y-47035001D01*
X87675953Y-47082620D01*
X87580715Y-47225477D01*
X87533096Y-47415953D01*
X87533096Y-47796905D01*
X87580715Y-47892143D01*
X87628334Y-47939762D01*
X87723572Y-47987381D01*
X87914048Y-47987381D01*
X88009286Y-47939762D01*
X88056905Y-47892143D01*
X88104524Y-47796905D01*
X88104524Y-47558810D01*
X88056905Y-47463572D01*
X88009286Y-47415953D01*
X87914048Y-47368334D01*
X87723572Y-47368334D01*
X87628334Y-47415953D01*
X87580715Y-47463572D01*
X87533096Y-47558810D01*
%TO.C,U4*%
X93933096Y-89837381D02*
X93933096Y-90646905D01*
X93980715Y-90742143D01*
X94028334Y-90789762D01*
X94123572Y-90837381D01*
X94314048Y-90837381D01*
X94409286Y-90789762D01*
X94456905Y-90742143D01*
X94504524Y-90646905D01*
X94504524Y-89837381D01*
X95409286Y-90170715D02*
X95409286Y-90837381D01*
X95171191Y-89789762D02*
X94933096Y-90504048D01*
X95552143Y-90504048D01*
%TO.C,U3*%
X125183096Y-46937381D02*
X125183096Y-47746905D01*
X125230715Y-47842143D01*
X125278334Y-47889762D01*
X125373572Y-47937381D01*
X125564048Y-47937381D01*
X125659286Y-47889762D01*
X125706905Y-47842143D01*
X125754524Y-47746905D01*
X125754524Y-46937381D01*
X126135477Y-46937381D02*
X126754524Y-46937381D01*
X126421191Y-47318334D01*
X126564048Y-47318334D01*
X126659286Y-47365953D01*
X126706905Y-47413572D01*
X126754524Y-47508810D01*
X126754524Y-47746905D01*
X126706905Y-47842143D01*
X126659286Y-47889762D01*
X126564048Y-47937381D01*
X126278334Y-47937381D01*
X126183096Y-47889762D01*
X126135477Y-47842143D01*
%TO.C,U2*%
X70493096Y-46957381D02*
X70493096Y-47766905D01*
X70540715Y-47862143D01*
X70588334Y-47909762D01*
X70683572Y-47957381D01*
X70874048Y-47957381D01*
X70969286Y-47909762D01*
X71016905Y-47862143D01*
X71064524Y-47766905D01*
X71064524Y-46957381D01*
X71493096Y-47052620D02*
X71540715Y-47005001D01*
X71635953Y-46957381D01*
X71874048Y-46957381D01*
X71969286Y-47005001D01*
X72016905Y-47052620D01*
X72064524Y-47147858D01*
X72064524Y-47243096D01*
X72016905Y-47385953D01*
X71445477Y-47957381D01*
X72064524Y-47957381D01*
%TO.C,U1*%
X157988095Y-116662380D02*
X157988095Y-117471904D01*
X158035714Y-117567142D01*
X158083333Y-117614761D01*
X158178571Y-117662380D01*
X158369047Y-117662380D01*
X158464285Y-117614761D01*
X158511904Y-117567142D01*
X158559523Y-117471904D01*
X158559523Y-116662380D01*
X159559523Y-117662380D02*
X158988095Y-117662380D01*
X159273809Y-117662380D02*
X159273809Y-116662380D01*
X159178571Y-116805238D01*
X159083333Y-116900476D01*
X158988095Y-116948095D01*
%TO.C,K4*%
X78591905Y-80262381D02*
X78591905Y-79262381D01*
X79163334Y-80262381D02*
X78734762Y-79690953D01*
X79163334Y-79262381D02*
X78591905Y-79833810D01*
X80020477Y-79595715D02*
X80020477Y-80262381D01*
X79782381Y-79214762D02*
X79544286Y-79929048D01*
X80163334Y-79929048D01*
%TO.C,K3*%
X102616905Y-69397381D02*
X102616905Y-68397381D01*
X103188334Y-69397381D02*
X102759762Y-68825953D01*
X103188334Y-68397381D02*
X102616905Y-68968810D01*
X103521667Y-68397381D02*
X104140715Y-68397381D01*
X103807381Y-68778334D01*
X103950239Y-68778334D01*
X104045477Y-68825953D01*
X104093096Y-68873572D01*
X104140715Y-68968810D01*
X104140715Y-69206905D01*
X104093096Y-69302143D01*
X104045477Y-69349762D01*
X103950239Y-69397381D01*
X103664524Y-69397381D01*
X103569286Y-69349762D01*
X103521667Y-69302143D01*
%TO.C,K2*%
X113466905Y-47947381D02*
X113466905Y-46947381D01*
X114038334Y-47947381D02*
X113609762Y-47375953D01*
X114038334Y-46947381D02*
X113466905Y-47518810D01*
X114419286Y-47042620D02*
X114466905Y-46995001D01*
X114562143Y-46947381D01*
X114800239Y-46947381D01*
X114895477Y-46995001D01*
X114943096Y-47042620D01*
X114990715Y-47137858D01*
X114990715Y-47233096D01*
X114943096Y-47375953D01*
X114371667Y-47947381D01*
X114990715Y-47947381D01*
%TO.C,K1*%
X102616905Y-47947381D02*
X102616905Y-46947381D01*
X103188334Y-47947381D02*
X102759762Y-47375953D01*
X103188334Y-46947381D02*
X102616905Y-47518810D01*
X104140715Y-47947381D02*
X103569286Y-47947381D01*
X103855001Y-47947381D02*
X103855001Y-46947381D01*
X103759762Y-47090239D01*
X103664524Y-47185477D01*
X103569286Y-47233096D01*
%TO.C,A1*%
X132635714Y-96686666D02*
X133111904Y-96686666D01*
X132540476Y-96972380D02*
X132873809Y-95972380D01*
X133207142Y-96972380D01*
X134064285Y-96972380D02*
X133492857Y-96972380D01*
X133778571Y-96972380D02*
X133778571Y-95972380D01*
X133683333Y-96115238D01*
X133588095Y-96210476D01*
X133492857Y-96258095D01*
%TD*%
M02*
