%TF.GenerationSoftware,KiCad,Pcbnew,5.1.9-73d0e3b20d~88~ubuntu20.04.1*%
%TF.CreationDate,2021-03-12T19:43:36+02:00*%
%TF.ProjectId,hymRC,68796d52-432e-46b6-9963-61645f706362,rev?*%
%TF.SameCoordinates,Original*%
%TF.FileFunction,Soldermask,Bot*%
%TF.FilePolarity,Negative*%
%FSLAX46Y46*%
G04 Gerber Fmt 4.6, Leading zero omitted, Abs format (unit mm)*
G04 Created by KiCad (PCBNEW 5.1.9-73d0e3b20d~88~ubuntu20.04.1) date 2021-03-12 19:43:36*
%MOMM*%
%LPD*%
G01*
G04 APERTURE LIST*
%ADD10O,1.600000X1.600000*%
%ADD11R,1.600000X1.600000*%
%ADD12O,2.300000X1.600000*%
%ADD13C,1.400000*%
%ADD14R,1.400000X1.400000*%
G04 APERTURE END LIST*
D10*
%TO.C,U2*%
X75065001Y-49835001D03*
X67445001Y-82855001D03*
X75065001Y-52375001D03*
X67445001Y-80315001D03*
X75065001Y-54915001D03*
X67445001Y-77775001D03*
X75065001Y-57455001D03*
X67445001Y-75235001D03*
X75065001Y-59995001D03*
X67445001Y-72695001D03*
X75065001Y-62535001D03*
X67445001Y-70155001D03*
X75065001Y-65075001D03*
X67445001Y-67615001D03*
X75065001Y-67615001D03*
X67445001Y-65075001D03*
X75065001Y-70155001D03*
X67445001Y-62535001D03*
X75065001Y-72695001D03*
X67445001Y-59995001D03*
X75065001Y-75235001D03*
X67445001Y-57455001D03*
X75065001Y-77775001D03*
X67445001Y-54915001D03*
X75065001Y-80315001D03*
X67445001Y-52375001D03*
X75065001Y-82855001D03*
D11*
X67445001Y-49835001D03*
%TD*%
D12*
%TO.C,K4*%
X86315001Y-82985001D03*
X86315001Y-85525001D03*
X86315001Y-88065001D03*
X86315001Y-90605001D03*
X86315001Y-93145001D03*
X78695001Y-93145001D03*
X78695001Y-90605001D03*
X78695001Y-88065001D03*
X78695001Y-85525001D03*
X78695001Y-82985001D03*
%TD*%
D13*
%TO.C,K3*%
X107165001Y-72335001D03*
X99545001Y-87575001D03*
X107165001Y-87575001D03*
D14*
X99545001Y-72335001D03*
D13*
X99545001Y-74875001D03*
X99545001Y-85135001D03*
X107165001Y-85135001D03*
X107165001Y-74875001D03*
%TD*%
%TO.C,K2*%
X118015001Y-50885001D03*
X110395001Y-66125001D03*
X118015001Y-66125001D03*
D14*
X110395001Y-50885001D03*
D13*
X110395001Y-53425001D03*
X110395001Y-63685001D03*
X118015001Y-63685001D03*
X118015001Y-53425001D03*
%TD*%
%TO.C,K1*%
X107165001Y-50885001D03*
X99545001Y-66125001D03*
X107165001Y-66125001D03*
D14*
X99545001Y-50885001D03*
D13*
X99545001Y-53425001D03*
X99545001Y-63685001D03*
X107165001Y-63685001D03*
X107165001Y-53425001D03*
%TD*%
D10*
%TO.C,A1*%
X140970000Y-137160000D03*
X125730000Y-137160000D03*
X140970000Y-101600000D03*
X125730000Y-134620000D03*
X140970000Y-104140000D03*
X125730000Y-132080000D03*
X140970000Y-106680000D03*
X125730000Y-129540000D03*
X140970000Y-109220000D03*
X125730000Y-127000000D03*
X140970000Y-111760000D03*
X125730000Y-124460000D03*
X140970000Y-114300000D03*
X125730000Y-121920000D03*
X140970000Y-116840000D03*
X125730000Y-119380000D03*
X140970000Y-119380000D03*
X125730000Y-116840000D03*
X140970000Y-121920000D03*
X125730000Y-114300000D03*
X140970000Y-124460000D03*
X125730000Y-111760000D03*
X140970000Y-127000000D03*
X125730000Y-109220000D03*
X140970000Y-129540000D03*
X125730000Y-106680000D03*
X140970000Y-132080000D03*
X125730000Y-104140000D03*
X140970000Y-134620000D03*
D11*
X125730000Y-101600000D03*
%TD*%
M02*
