%TF.GenerationSoftware,KiCad,Pcbnew,5.1.9-73d0e3b20d~88~ubuntu20.04.1*%
%TF.CreationDate,2021-03-12T19:43:36+02:00*%
%TF.ProjectId,hymRC,68796d52-432e-46b6-9963-61645f706362,rev?*%
%TF.SameCoordinates,Original*%
%TF.FileFunction,Paste,Top*%
%TF.FilePolarity,Positive*%
%FSLAX46Y46*%
G04 Gerber Fmt 4.6, Leading zero omitted, Abs format (unit mm)*
G04 Created by KiCad (PCBNEW 5.1.9-73d0e3b20d~88~ubuntu20.04.1) date 2021-03-12 19:43:36*
%MOMM*%
%LPD*%
G01*
G04 APERTURE LIST*
%ADD10R,3.100000X1.600000*%
%ADD11R,1.500000X1.780000*%
G04 APERTURE END LIST*
D10*
%TO.C,U6*%
X95550001Y-49865001D03*
X79040001Y-77805001D03*
X95550001Y-52405001D03*
X79040001Y-75265001D03*
X95550001Y-54945001D03*
X79040001Y-72725001D03*
X95550001Y-57485001D03*
X79040001Y-70185001D03*
X95550001Y-60025001D03*
X79040001Y-67645001D03*
X95550001Y-62565001D03*
X79040001Y-65105001D03*
X95550001Y-65105001D03*
X79040001Y-62565001D03*
X95550001Y-67645001D03*
X79040001Y-60025001D03*
X95550001Y-70185001D03*
X79040001Y-57485001D03*
X95550001Y-72725001D03*
X79040001Y-54945001D03*
X95550001Y-75265001D03*
X79040001Y-52405001D03*
X95550001Y-77805001D03*
X79040001Y-49865001D03*
%TD*%
D11*
%TO.C,U4*%
X99460001Y-92715001D03*
X89930001Y-95255001D03*
X99460001Y-95255001D03*
X89930001Y-92715001D03*
%TD*%
%TO.C,U3*%
X130710001Y-49815001D03*
X121180001Y-52355001D03*
X130710001Y-52355001D03*
X121180001Y-49815001D03*
%TD*%
%TO.C,U1*%
G36*
G01*
X155125000Y-115420000D02*
X155125000Y-115720000D01*
G75*
G02*
X154975000Y-115870000I-150000J0D01*
G01*
X153225000Y-115870000D01*
G75*
G02*
X153075000Y-115720000I0J150000D01*
G01*
X153075000Y-115420000D01*
G75*
G02*
X153225000Y-115270000I150000J0D01*
G01*
X154975000Y-115270000D01*
G75*
G02*
X155125000Y-115420000I0J-150000D01*
G01*
G37*
G36*
G01*
X155125000Y-114150000D02*
X155125000Y-114450000D01*
G75*
G02*
X154975000Y-114600000I-150000J0D01*
G01*
X153225000Y-114600000D01*
G75*
G02*
X153075000Y-114450000I0J150000D01*
G01*
X153075000Y-114150000D01*
G75*
G02*
X153225000Y-114000000I150000J0D01*
G01*
X154975000Y-114000000D01*
G75*
G02*
X155125000Y-114150000I0J-150000D01*
G01*
G37*
G36*
G01*
X155125000Y-112880000D02*
X155125000Y-113180000D01*
G75*
G02*
X154975000Y-113330000I-150000J0D01*
G01*
X153225000Y-113330000D01*
G75*
G02*
X153075000Y-113180000I0J150000D01*
G01*
X153075000Y-112880000D01*
G75*
G02*
X153225000Y-112730000I150000J0D01*
G01*
X154975000Y-112730000D01*
G75*
G02*
X155125000Y-112880000I0J-150000D01*
G01*
G37*
G36*
G01*
X155125000Y-111610000D02*
X155125000Y-111910000D01*
G75*
G02*
X154975000Y-112060000I-150000J0D01*
G01*
X153225000Y-112060000D01*
G75*
G02*
X153075000Y-111910000I0J150000D01*
G01*
X153075000Y-111610000D01*
G75*
G02*
X153225000Y-111460000I150000J0D01*
G01*
X154975000Y-111460000D01*
G75*
G02*
X155125000Y-111610000I0J-150000D01*
G01*
G37*
G36*
G01*
X155125000Y-110340000D02*
X155125000Y-110640000D01*
G75*
G02*
X154975000Y-110790000I-150000J0D01*
G01*
X153225000Y-110790000D01*
G75*
G02*
X153075000Y-110640000I0J150000D01*
G01*
X153075000Y-110340000D01*
G75*
G02*
X153225000Y-110190000I150000J0D01*
G01*
X154975000Y-110190000D01*
G75*
G02*
X155125000Y-110340000I0J-150000D01*
G01*
G37*
G36*
G01*
X155125000Y-109070000D02*
X155125000Y-109370000D01*
G75*
G02*
X154975000Y-109520000I-150000J0D01*
G01*
X153225000Y-109520000D01*
G75*
G02*
X153075000Y-109370000I0J150000D01*
G01*
X153075000Y-109070000D01*
G75*
G02*
X153225000Y-108920000I150000J0D01*
G01*
X154975000Y-108920000D01*
G75*
G02*
X155125000Y-109070000I0J-150000D01*
G01*
G37*
G36*
G01*
X155125000Y-107800000D02*
X155125000Y-108100000D01*
G75*
G02*
X154975000Y-108250000I-150000J0D01*
G01*
X153225000Y-108250000D01*
G75*
G02*
X153075000Y-108100000I0J150000D01*
G01*
X153075000Y-107800000D01*
G75*
G02*
X153225000Y-107650000I150000J0D01*
G01*
X154975000Y-107650000D01*
G75*
G02*
X155125000Y-107800000I0J-150000D01*
G01*
G37*
G36*
G01*
X155125000Y-106530000D02*
X155125000Y-106830000D01*
G75*
G02*
X154975000Y-106980000I-150000J0D01*
G01*
X153225000Y-106980000D01*
G75*
G02*
X153075000Y-106830000I0J150000D01*
G01*
X153075000Y-106530000D01*
G75*
G02*
X153225000Y-106380000I150000J0D01*
G01*
X154975000Y-106380000D01*
G75*
G02*
X155125000Y-106530000I0J-150000D01*
G01*
G37*
G36*
G01*
X155125000Y-105260000D02*
X155125000Y-105560000D01*
G75*
G02*
X154975000Y-105710000I-150000J0D01*
G01*
X153225000Y-105710000D01*
G75*
G02*
X153075000Y-105560000I0J150000D01*
G01*
X153075000Y-105260000D01*
G75*
G02*
X153225000Y-105110000I150000J0D01*
G01*
X154975000Y-105110000D01*
G75*
G02*
X155125000Y-105260000I0J-150000D01*
G01*
G37*
G36*
G01*
X164425000Y-105260000D02*
X164425000Y-105560000D01*
G75*
G02*
X164275000Y-105710000I-150000J0D01*
G01*
X162525000Y-105710000D01*
G75*
G02*
X162375000Y-105560000I0J150000D01*
G01*
X162375000Y-105260000D01*
G75*
G02*
X162525000Y-105110000I150000J0D01*
G01*
X164275000Y-105110000D01*
G75*
G02*
X164425000Y-105260000I0J-150000D01*
G01*
G37*
G36*
G01*
X164425000Y-106530000D02*
X164425000Y-106830000D01*
G75*
G02*
X164275000Y-106980000I-150000J0D01*
G01*
X162525000Y-106980000D01*
G75*
G02*
X162375000Y-106830000I0J150000D01*
G01*
X162375000Y-106530000D01*
G75*
G02*
X162525000Y-106380000I150000J0D01*
G01*
X164275000Y-106380000D01*
G75*
G02*
X164425000Y-106530000I0J-150000D01*
G01*
G37*
G36*
G01*
X164425000Y-107800000D02*
X164425000Y-108100000D01*
G75*
G02*
X164275000Y-108250000I-150000J0D01*
G01*
X162525000Y-108250000D01*
G75*
G02*
X162375000Y-108100000I0J150000D01*
G01*
X162375000Y-107800000D01*
G75*
G02*
X162525000Y-107650000I150000J0D01*
G01*
X164275000Y-107650000D01*
G75*
G02*
X164425000Y-107800000I0J-150000D01*
G01*
G37*
G36*
G01*
X164425000Y-109070000D02*
X164425000Y-109370000D01*
G75*
G02*
X164275000Y-109520000I-150000J0D01*
G01*
X162525000Y-109520000D01*
G75*
G02*
X162375000Y-109370000I0J150000D01*
G01*
X162375000Y-109070000D01*
G75*
G02*
X162525000Y-108920000I150000J0D01*
G01*
X164275000Y-108920000D01*
G75*
G02*
X164425000Y-109070000I0J-150000D01*
G01*
G37*
G36*
G01*
X164425000Y-110340000D02*
X164425000Y-110640000D01*
G75*
G02*
X164275000Y-110790000I-150000J0D01*
G01*
X162525000Y-110790000D01*
G75*
G02*
X162375000Y-110640000I0J150000D01*
G01*
X162375000Y-110340000D01*
G75*
G02*
X162525000Y-110190000I150000J0D01*
G01*
X164275000Y-110190000D01*
G75*
G02*
X164425000Y-110340000I0J-150000D01*
G01*
G37*
G36*
G01*
X164425000Y-111610000D02*
X164425000Y-111910000D01*
G75*
G02*
X164275000Y-112060000I-150000J0D01*
G01*
X162525000Y-112060000D01*
G75*
G02*
X162375000Y-111910000I0J150000D01*
G01*
X162375000Y-111610000D01*
G75*
G02*
X162525000Y-111460000I150000J0D01*
G01*
X164275000Y-111460000D01*
G75*
G02*
X164425000Y-111610000I0J-150000D01*
G01*
G37*
G36*
G01*
X164425000Y-112880000D02*
X164425000Y-113180000D01*
G75*
G02*
X164275000Y-113330000I-150000J0D01*
G01*
X162525000Y-113330000D01*
G75*
G02*
X162375000Y-113180000I0J150000D01*
G01*
X162375000Y-112880000D01*
G75*
G02*
X162525000Y-112730000I150000J0D01*
G01*
X164275000Y-112730000D01*
G75*
G02*
X164425000Y-112880000I0J-150000D01*
G01*
G37*
G36*
G01*
X164425000Y-114150000D02*
X164425000Y-114450000D01*
G75*
G02*
X164275000Y-114600000I-150000J0D01*
G01*
X162525000Y-114600000D01*
G75*
G02*
X162375000Y-114450000I0J150000D01*
G01*
X162375000Y-114150000D01*
G75*
G02*
X162525000Y-114000000I150000J0D01*
G01*
X164275000Y-114000000D01*
G75*
G02*
X164425000Y-114150000I0J-150000D01*
G01*
G37*
G36*
G01*
X164425000Y-115420000D02*
X164425000Y-115720000D01*
G75*
G02*
X164275000Y-115870000I-150000J0D01*
G01*
X162525000Y-115870000D01*
G75*
G02*
X162375000Y-115720000I0J150000D01*
G01*
X162375000Y-115420000D01*
G75*
G02*
X162525000Y-115270000I150000J0D01*
G01*
X164275000Y-115270000D01*
G75*
G02*
X164425000Y-115420000I0J-150000D01*
G01*
G37*
%TD*%
M02*
